<svg width="8" height="9" viewBox="0 0 8 9" fill="none" xmlns="http://www.w3.org/2000/svg">
<path d="M0.84702 8.43357C0.706313 8.43331 0.568097 8.39643 0.445969 8.32655C0.170962 8.17071 0 7.8682 0 7.5398V0.893811C0 0.564491 0.170962 0.262901 0.445969 0.107064C0.571006 0.0352037 0.713049 -0.00175042 0.857254 6.37184e-05C1.00146 0.00187786 1.14253 0.0423938 1.26572 0.117377L6.94574 3.51737C7.06412 3.5916 7.16171 3.69467 7.22935 3.81693C7.29699 3.93919 7.33248 4.07662 7.33248 4.21635C7.33248 4.35607 7.29699 4.49351 7.22935 4.61576C7.16171 4.73802 7.06412 4.8411 6.94574 4.91532L1.2648 8.31624C1.13873 8.39245 0.994335 8.43301 0.84702 8.43357Z" fill="#153A7A"/>
</svg>
