<svg width="58" height="58" viewBox="0 0 58 58" fill="none" xmlns="http://www.w3.org/2000/svg">
<g filter="url(#filter0_d_11685_62)">
<rect x="4.5" y="4.5" width="49" height="49" rx="24.5" fill="white"/>
<rect x="4.5" y="4.5" width="49" height="49" rx="24.5" stroke="#D9D9D9"/>
<path d="M26.3125 18.7278C26.4263 18.5923 26.4893 18.4107 26.4879 18.2223C26.4865 18.0338 26.4208 17.8535 26.3049 17.7203C26.189 17.587 26.0322 17.5114 25.8684 17.5098C25.7045 17.5082 25.5466 17.5806 25.4288 17.7115L21.6787 22.024C21.5616 22.1588 21.4958 22.3416 21.4958 22.5322C21.4958 22.7228 21.5616 22.9056 21.6787 23.0403L25.4288 27.3528C25.5466 27.4838 25.7045 27.5562 25.8684 27.5546C26.0322 27.5529 26.189 27.4773 26.3049 27.3441C26.4208 27.2108 26.4865 27.0306 26.4879 26.8421C26.4893 26.6536 26.4263 26.4721 26.3125 26.3365L23.625 23.2459H33.3625C34.1913 23.2459 34.9862 23.6245 35.5722 24.2985C36.1583 24.9724 36.4875 25.8865 36.4875 26.8397V29.7147C36.4875 29.9053 36.5533 30.0881 36.6706 30.2229C36.7878 30.3577 36.9467 30.4334 37.1125 30.4334C37.2783 30.4334 37.4372 30.3577 37.5544 30.2229C37.6717 30.0881 37.7375 29.9053 37.7375 29.7147V26.8397C37.7375 24.0653 35.775 21.8084 33.3625 21.8084H23.625L26.3125 18.7178V18.7278ZM21.5 28.2815C21.5 28.0908 21.4342 27.908 21.3169 27.7732C21.1997 27.6384 21.0408 27.5627 20.875 27.5627C20.7092 27.5627 20.5503 27.6384 20.4331 27.7732C20.3158 27.908 20.25 28.0908 20.25 28.2815V31.1565C20.25 33.9308 22.2125 36.1877 24.625 36.1877H34.3625L31.675 39.2783C31.5612 39.4139 31.4982 39.5955 31.4996 39.7839C31.501 39.9724 31.5667 40.1526 31.6826 40.2859C31.7985 40.4192 31.9553 40.4947 32.1191 40.4964C32.283 40.498 32.4409 40.4256 32.5588 40.2947L36.3088 35.9822C36.4259 35.8474 36.4917 35.6646 36.4917 35.474C36.4917 35.2834 36.4259 35.1006 36.3088 34.9658L32.5588 30.6533C32.4409 30.5224 32.283 30.45 32.1191 30.4516C31.9553 30.4532 31.7985 30.5288 31.6826 30.6621C31.5667 30.7954 31.501 30.9756 31.4996 31.1641C31.4982 31.3525 31.5612 31.5341 31.675 31.6697L34.3625 34.7603H24.625C23.7962 34.7603 23.0013 34.3817 22.4153 33.7077C21.8292 33.0337 21.5 32.1196 21.5 31.1665V28.2915V28.2815Z" fill="#153A7A"/>
</g>
<defs>
<filter id="filter0_d_11685_62" x="0" y="0" width="58" height="58" filterUnits="userSpaceOnUse" color-interpolation-filters="sRGB">
<feFlood flood-opacity="0" result="BackgroundImageFix"/>
<feColorMatrix in="SourceAlpha" type="matrix" values="0 0 0 0 0 0 0 0 0 0 0 0 0 0 0 0 0 0 127 0" result="hardAlpha"/>
<feOffset/>
<feGaussianBlur stdDeviation="2"/>
<feComposite in2="hardAlpha" operator="out"/>
<feColorMatrix type="matrix" values="0 0 0 0 0 0 0 0 0 0 0 0 0 0 0 0 0 0 0.08 0"/>
<feBlend mode="normal" in2="BackgroundImageFix" result="effect1_dropShadow_11685_62"/>
<feBlend mode="normal" in="SourceGraphic" in2="effect1_dropShadow_11685_62" result="shape"/>
</filter>
</defs>
</svg>
