<svg width="118" height="20" viewBox="0 0 118 20" fill="none" xmlns="http://www.w3.org/2000/svg">
<path d="M9.28119 3.31312L9.51785 4.95192H12.7212C12.8818 4.95192 13.0359 5.01574 13.1495 5.12935C13.2631 5.24295 13.3269 5.39703 13.3269 5.55769C13.3269 5.71835 13.2631 5.87243 13.1495 5.98604C13.0359 6.09964 12.8818 6.16346 12.7212 6.16346H12.1L11.3949 14.3898C11.3521 14.8906 11.3174 15.3025 11.2617 15.6353C11.2051 15.9818 11.1187 16.2919 10.9499 16.5795C10.6848 17.0311 10.2907 17.3931 9.81831 17.619C9.51785 17.7619 9.20123 17.8209 8.85069 17.8483C8.51388 17.875 8.10115 17.875 7.59877 17.875H5.72815C5.22577 17.875 4.81304 17.875 4.47623 17.8483C4.12569 17.8209 3.80908 17.7619 3.50862 17.619C3.03618 17.3931 2.6421 17.0311 2.37704 16.5795C2.20742 16.2919 2.12262 15.9818 2.06527 15.6353C2.00954 15.3017 1.97481 14.8906 1.932 14.3898L1.22688 6.16346H0.605769C0.445109 6.16346 0.291029 6.09964 0.177426 5.98604C0.0638219 5.87243 0 5.71835 0 5.55769C0 5.39703 0.0638219 5.24295 0.177426 5.12935C0.291029 5.01574 0.445109 4.95192 0.605769 4.95192H3.80908L4.04573 3.31312L4.05462 3.26385C4.20162 2.62577 4.74923 2.125 5.43577 2.125H7.89115C8.57769 2.125 9.12531 2.62577 9.27231 3.26385L9.28119 3.31312ZM5.03273 4.95192H8.29338L8.08662 3.51746C8.04785 3.38258 7.94931 3.33654 7.89035 3.33654H5.43658C5.37762 3.33654 5.27908 3.38258 5.24031 3.51746L5.03273 4.95192ZM6.05769 8.78846C6.05769 8.6278 5.99387 8.47372 5.88027 8.36012C5.76666 8.24651 5.61258 8.18269 5.45192 8.18269C5.29126 8.18269 5.13718 8.24651 5.02358 8.36012C4.90998 8.47372 4.84615 8.6278 4.84615 8.78846V12.8269C4.84615 12.9876 4.90998 13.1417 5.02358 13.2553C5.13718 13.3689 5.29126 13.4327 5.45192 13.4327C5.61258 13.4327 5.76666 13.3689 5.88027 13.2553C5.99387 13.1417 6.05769 12.9876 6.05769 12.8269V8.78846ZM8.48077 8.78846C8.48077 8.6278 8.41695 8.47372 8.30334 8.36012C8.18974 8.24651 8.03566 8.18269 7.875 8.18269C7.71434 8.18269 7.56026 8.24651 7.44666 8.36012C7.33305 8.47372 7.26923 8.6278 7.26923 8.78846V12.8269C7.26923 12.9876 7.33305 13.1417 7.44666 13.2553C7.56026 13.3689 7.71434 13.4327 7.875 13.4327C8.03566 13.4327 8.18974 13.3689 8.30334 13.2553C8.41695 13.1417 8.48077 12.9876 8.48077 12.8269V8.78846Z" fill="#153A7A"/>
<path d="M23.2601 15V13.768H25.9061C26.7088 13.768 27.3948 13.6047 27.9641 13.278C28.5428 12.9513 28.9861 12.4987 29.2941 11.92C29.6021 11.3413 29.7561 10.6693 29.7561 9.904C29.7561 9.148 29.6021 8.49 29.2941 7.93C28.9955 7.37 28.5568 6.936 27.9781 6.628C27.4088 6.31067 26.7181 6.152 25.9061 6.152H23.2741V4.92H25.9061C26.9888 4.92 27.9315 5.12533 28.7341 5.536C29.5368 5.94667 30.1575 6.53 30.5961 7.286C31.0441 8.03267 31.2681 8.91467 31.2681 9.932C31.2681 10.9493 31.0441 11.8407 30.5961 12.606C30.1481 13.362 29.5228 13.95 28.7201 14.37C27.9268 14.79 26.9935 15 25.9201 15H23.2601ZM22.3641 15V4.92H23.8481V15H22.3641ZM35.9301 15.14C35.2115 15.14 34.5768 14.9813 34.0261 14.664C33.4848 14.3467 33.0601 13.908 32.7521 13.348C32.4441 12.788 32.2901 12.144 32.2901 11.416C32.2901 10.6787 32.4395 10.0347 32.7381 9.484C33.0461 8.924 33.4755 8.49 34.0261 8.182C34.5768 7.874 35.2068 7.72 35.9161 7.72C36.6068 7.72 37.2041 7.86933 37.7081 8.168C38.2215 8.45733 38.6135 8.86333 38.8841 9.386C39.1641 9.90867 39.3041 10.5293 39.3041 11.248C39.3041 11.36 39.2995 11.4673 39.2901 11.57C39.2901 11.6633 39.2808 11.7613 39.2621 11.864H33.2701V10.772H38.2401L37.8761 11.206C37.8761 10.4407 37.7035 9.85733 37.3581 9.456C37.0128 9.05467 36.5321 8.854 35.9161 8.854C35.2535 8.854 34.7261 9.08267 34.3341 9.54C33.9515 9.988 33.7601 10.6133 33.7601 11.416C33.7601 12.228 33.9515 12.8627 34.3341 13.32C34.7261 13.7773 35.2675 14.006 35.9581 14.006C36.3781 14.006 36.7421 13.922 37.0501 13.754C37.3581 13.5767 37.5868 13.32 37.7361 12.984H39.1081C38.8748 13.656 38.4781 14.1833 37.9181 14.566C37.3675 14.9487 36.7048 15.14 35.9301 15.14ZM40.7935 15V4.92H42.2495V15H40.7935ZM47.3735 15.14C46.6548 15.14 46.0202 14.9813 45.4695 14.664C44.9282 14.3467 44.5035 13.908 44.1955 13.348C43.8875 12.788 43.7335 12.144 43.7335 11.416C43.7335 10.6787 43.8828 10.0347 44.1815 9.484C44.4895 8.924 44.9188 8.49 45.4695 8.182C46.0202 7.874 46.6502 7.72 47.3595 7.72C48.0502 7.72 48.6475 7.86933 49.1515 8.168C49.6648 8.45733 50.0568 8.86333 50.3275 9.386C50.6075 9.90867 50.7475 10.5293 50.7475 11.248C50.7475 11.36 50.7428 11.4673 50.7335 11.57C50.7335 11.6633 50.7242 11.7613 50.7055 11.864H44.7135V10.772H49.6835L49.3195 11.206C49.3195 10.4407 49.1468 9.85733 48.8015 9.456C48.4562 9.05467 47.9755 8.854 47.3595 8.854C46.6968 8.854 46.1695 9.08267 45.7775 9.54C45.3948 9.988 45.2035 10.6133 45.2035 11.416C45.2035 12.228 45.3948 12.8627 45.7775 13.32C46.1695 13.7773 46.7108 14.006 47.4015 14.006C47.8215 14.006 48.1855 13.922 48.4935 13.754C48.8015 13.5767 49.0302 13.32 49.1795 12.984H50.5515C50.3182 13.656 49.9215 14.1833 49.3615 14.566C48.8108 14.9487 48.1482 15.14 47.3735 15.14ZM55.1518 15.14C54.3211 15.14 53.7098 14.9487 53.3178 14.566C52.9351 14.174 52.7438 13.6 52.7438 12.844V6.222L54.1858 5.676V12.858C54.1858 13.2313 54.2838 13.5067 54.4798 13.684C54.6758 13.8613 54.9931 13.95 55.4318 13.95C55.5998 13.95 55.7491 13.936 55.8798 13.908C56.0105 13.88 56.1225 13.8473 56.2158 13.81V14.986C56.1131 15.0327 55.9685 15.07 55.7818 15.098C55.5951 15.126 55.3851 15.14 55.1518 15.14ZM51.3158 9.022V7.86H56.2158V9.022H51.3158ZM60.4985 15.14C59.7798 15.14 59.1452 14.9813 58.5945 14.664C58.0532 14.3467 57.6285 13.908 57.3205 13.348C57.0125 12.788 56.8585 12.144 56.8585 11.416C56.8585 10.6787 57.0078 10.0347 57.3065 9.484C57.6145 8.924 58.0438 8.49 58.5945 8.182C59.1452 7.874 59.7752 7.72 60.4845 7.72C61.1752 7.72 61.7725 7.86933 62.2765 8.168C62.7898 8.45733 63.1818 8.86333 63.4525 9.386C63.7325 9.90867 63.8725 10.5293 63.8725 11.248C63.8725 11.36 63.8678 11.4673 63.8585 11.57C63.8585 11.6633 63.8492 11.7613 63.8305 11.864H57.8385V10.772H62.8085L62.4445 11.206C62.4445 10.4407 62.2718 9.85733 61.9265 9.456C61.5812 9.05467 61.1005 8.854 60.4845 8.854C59.8218 8.854 59.2945 9.08267 58.9025 9.54C58.5198 9.988 58.3285 10.6133 58.3285 11.416C58.3285 12.228 58.5198 12.8627 58.9025 13.32C59.2945 13.7773 59.8358 14.006 60.5265 14.006C60.9465 14.006 61.3105 13.922 61.6185 13.754C61.9265 13.5767 62.1552 13.32 62.3045 12.984H63.6765C63.4432 13.656 63.0465 14.1833 62.4865 14.566C61.9358 14.9487 61.2732 15.14 60.4985 15.14ZM71.7916 15.126C70.5782 15.126 69.6076 14.8367 68.8796 14.258C68.1516 13.6793 67.7269 12.8533 67.6056 11.78H69.0476C69.1316 12.48 69.4116 13.012 69.8876 13.376C70.3636 13.74 71.0076 13.922 71.8196 13.922C72.5009 13.922 73.0142 13.796 73.3596 13.544C73.7142 13.292 73.8916 12.9327 73.8916 12.466C73.8916 12.046 73.7749 11.7147 73.5416 11.472C73.3082 11.22 72.9396 11.0147 72.4356 10.856L70.6856 10.296C69.7896 10.0067 69.1316 9.64267 68.7116 9.204C68.2916 8.76533 68.0816 8.21 68.0816 7.538C68.0816 6.96867 68.2216 6.47867 68.5016 6.068C68.7909 5.65733 69.1922 5.34 69.7056 5.116C70.2282 4.88267 70.8349 4.766 71.5256 4.766C72.5896 4.766 73.4389 5.03667 74.0736 5.578C74.7176 6.11 75.0862 6.852 75.1796 7.804H73.7376C73.6256 7.16933 73.3829 6.70733 73.0096 6.418C72.6362 6.11933 72.1229 5.97 71.4696 5.97C70.8536 5.97 70.3729 6.09133 70.0276 6.334C69.6822 6.57667 69.5096 6.91733 69.5096 7.356C69.5096 7.71067 69.6216 8.00933 69.8456 8.252C70.0789 8.48533 70.4616 8.686 70.9936 8.854L72.8276 9.442C73.6769 9.71267 74.3022 10.0813 74.7036 10.548C75.1142 11.0147 75.3196 11.6027 75.3196 12.312C75.3196 13.208 75.0116 13.9033 74.3956 14.398C73.7796 14.8833 72.9116 15.126 71.7916 15.126ZM79.8989 15.14C79.1802 15.14 78.5455 14.9813 77.9949 14.664C77.4535 14.3467 77.0289 13.908 76.7209 13.348C76.4129 12.788 76.2589 12.144 76.2589 11.416C76.2589 10.6787 76.4082 10.0347 76.7069 9.484C77.0149 8.924 77.4442 8.49 77.9949 8.182C78.5455 7.874 79.1755 7.72 79.8849 7.72C80.5755 7.72 81.1729 7.86933 81.6769 8.168C82.1902 8.45733 82.5822 8.86333 82.8529 9.386C83.1329 9.90867 83.2729 10.5293 83.2729 11.248C83.2729 11.36 83.2682 11.4673 83.2589 11.57C83.2589 11.6633 83.2495 11.7613 83.2309 11.864H77.2389V10.772H82.2089L81.8449 11.206C81.8449 10.4407 81.6722 9.85733 81.3269 9.456C80.9815 9.05467 80.5009 8.854 79.8849 8.854C79.2222 8.854 78.6949 9.08267 78.3029 9.54C77.9202 9.988 77.7289 10.6133 77.7289 11.416C77.7289 12.228 77.9202 12.8627 78.3029 13.32C78.6949 13.7773 79.2362 14.006 79.9269 14.006C80.3469 14.006 80.7109 13.922 81.0189 13.754C81.3269 13.5767 81.5555 13.32 81.7049 12.984H83.0769C82.8435 13.656 82.4469 14.1833 81.8869 14.566C81.3362 14.9487 80.6735 15.14 79.8989 15.14ZM87.7713 15.14C87.0899 15.14 86.4833 14.9813 85.9513 14.664C85.4193 14.3373 84.9993 13.894 84.6913 13.334C84.3926 12.774 84.2432 12.1347 84.2432 11.416C84.2432 10.6973 84.3926 10.0627 84.6913 9.512C84.9993 8.952 85.4193 8.51333 85.9513 8.196C86.4833 7.87867 87.0853 7.72 87.7573 7.72C88.3266 7.72 88.8353 7.82733 89.2833 8.042C89.7313 8.25667 90.0999 8.55533 90.3893 8.938C90.6786 9.32067 90.8653 9.77333 90.9493 10.296H89.5773C89.4839 9.876 89.2786 9.54 88.9613 9.288C88.6533 9.036 88.2613 8.91 87.7853 8.91C87.3746 8.91 87.0153 9.01267 86.7073 9.218C86.3993 9.42333 86.1613 9.71267 85.9933 10.086C85.8253 10.4593 85.7413 10.9027 85.7413 11.416C85.7413 11.92 85.8253 12.3633 85.9933 12.746C86.1613 13.1287 86.3993 13.4273 86.7073 13.642C87.0153 13.8473 87.3793 13.95 87.7993 13.95C88.2566 13.95 88.6439 13.8287 88.9613 13.586C89.2879 13.334 89.4979 12.998 89.5913 12.578H90.9633C90.8699 13.0913 90.6739 13.5393 90.3753 13.922C90.0859 14.3047 89.7173 14.6033 89.2693 14.818C88.8213 15.0327 88.3219 15.14 87.7713 15.14ZM95.3881 15.14C94.5575 15.14 93.9461 14.9487 93.5541 14.566C93.1715 14.174 92.9801 13.6 92.9801 12.844V6.222L94.4221 5.676V12.858C94.4221 13.2313 94.5201 13.5067 94.7161 13.684C94.9121 13.8613 95.2295 13.95 95.6681 13.95C95.8361 13.95 95.9855 13.936 96.1161 13.908C96.2468 13.88 96.3588 13.8473 96.4521 13.81V14.986C96.3495 15.0327 96.2048 15.07 96.0181 15.098C95.8315 15.126 95.6215 15.14 95.3881 15.14ZM91.5521 9.022V7.86H96.4521V9.022H91.5521ZM97.8052 15V7.86H99.2612V15H97.8052ZM97.7352 6.46V4.822H99.3452V6.46H97.7352ZM104.386 15.14C103.658 15.14 103.019 14.9813 102.468 14.664C101.917 14.3373 101.488 13.894 101.18 13.334C100.872 12.7647 100.718 12.1207 100.718 11.402C100.718 10.674 100.872 10.0347 101.18 9.484C101.497 8.93333 101.927 8.504 102.468 8.196C103.019 7.87867 103.658 7.72 104.386 7.72C105.123 7.72 105.767 7.87867 106.318 8.196C106.869 8.504 107.293 8.93333 107.592 9.484C107.9 10.0347 108.054 10.674 108.054 11.402C108.054 12.1207 107.9 12.7647 107.592 13.334C107.293 13.894 106.869 14.3373 106.318 14.664C105.767 14.9813 105.123 15.14 104.386 15.14ZM104.386 13.95C104.825 13.95 105.203 13.8427 105.52 13.628C105.847 13.4133 106.103 13.1147 106.29 12.732C106.477 12.3493 106.57 11.9013 106.57 11.388C106.57 10.6227 106.365 10.0207 105.954 9.582C105.553 9.134 105.03 8.91 104.386 8.91C103.751 8.91 103.229 9.134 102.818 9.582C102.417 10.03 102.216 10.632 102.216 11.388C102.216 11.9013 102.305 12.3493 102.482 12.732C102.669 13.1147 102.925 13.4133 103.252 13.628C103.588 13.8427 103.966 13.95 104.386 13.95ZM109.549 15V7.86H110.935V9.54H111.005V15H109.549ZM114.617 15V10.408C114.617 9.91333 114.491 9.54467 114.239 9.302C113.997 9.05933 113.633 8.938 113.147 8.938C112.727 8.938 112.354 9.03133 112.027 9.218C111.71 9.40467 111.458 9.66133 111.271 9.988C111.094 10.3147 111.005 10.702 111.005 11.15L110.823 9.442C111.057 8.91 111.416 8.49 111.901 8.182C112.387 7.874 112.951 7.72 113.595 7.72C114.361 7.72 114.963 7.93467 115.401 8.364C115.84 8.79333 116.059 9.36267 116.059 10.072V15H114.617Z" fill="#153A7A"/>
</svg>
