<svg width="58" height="58" viewBox="0 0 58 58" fill="none" xmlns="http://www.w3.org/2000/svg">
<g filter="url(#filter0_d_11685_3680)">
<rect x="4.5" y="4.5" width="49" height="49" rx="24.5" fill="white"/>
<rect x="4.5" y="4.5" width="49" height="49" rx="24.5" stroke="#D9D9D9"/>
<g clip-path="url(#clip0_11685_3680)">
<path d="M32.9285 19.288L33.2836 21.6465H38.0909C38.332 21.6465 38.5632 21.7383 38.7337 21.9018C38.9042 22.0653 39 22.2871 39 22.5183C39 22.7495 38.9042 22.9713 38.7337 23.1347C38.5632 23.2982 38.332 23.3901 38.0909 23.3901H37.1588L36.1006 35.2291C36.0364 35.9497 35.9842 36.5426 35.9006 37.0215C35.8158 37.5201 35.6861 37.9665 35.4327 38.3803C35.0349 39.0302 34.4435 39.5512 33.7345 39.8763C33.2836 40.0821 32.8085 40.1669 32.2824 40.2064C31.777 40.2448 31.1576 40.2448 30.4036 40.2448H27.5964C26.8424 40.2448 26.223 40.2448 25.7176 40.2064C25.1915 40.1669 24.7164 40.0821 24.2655 39.8763C23.5565 39.5512 22.9651 39.0302 22.5673 38.3803C22.3127 37.9665 22.1855 37.5201 22.0994 37.0215C22.0158 36.5414 21.9636 35.9497 21.8994 35.2291L20.8412 23.3901H19.9091C19.668 23.3901 19.4368 23.2982 19.2663 23.1347C19.0958 22.9713 19 22.7495 19 22.5183C19 22.2871 19.0958 22.0653 19.2663 21.9018C19.4368 21.7383 19.668 21.6465 19.9091 21.6465H24.7164L25.0715 19.288L25.0848 19.2171C25.3055 18.2988 26.1273 17.5781 27.1576 17.5781H30.8424C31.8727 17.5781 32.6945 18.2988 32.9151 19.2171L32.9285 19.288ZM26.5527 21.6465H31.4461L31.1358 19.5821C31.0776 19.388 30.9297 19.3217 30.8412 19.3217H27.1588C27.0703 19.3217 26.9224 19.388 26.8642 19.5821L26.5527 21.6465ZM28.0909 27.1679C28.0909 26.9367 27.9951 26.7149 27.8246 26.5514C27.6542 26.3879 27.4229 26.2961 27.1818 26.2961C26.9407 26.2961 26.7095 26.3879 26.539 26.5514C26.3685 26.7149 26.2727 26.9367 26.2727 27.1679V32.9798C26.2727 33.211 26.3685 33.4328 26.539 33.5963C26.7095 33.7598 26.9407 33.8516 27.1818 33.8516C27.4229 33.8516 27.6542 33.7598 27.8246 33.5963C27.9951 33.4328 28.0909 33.211 28.0909 32.9798V27.1679ZM31.7273 27.1679C31.7273 26.9367 31.6315 26.7149 31.461 26.5514C31.2905 26.3879 31.0593 26.2961 30.8182 26.2961C30.5771 26.2961 30.3458 26.3879 30.1754 26.5514C30.0049 26.7149 29.9091 26.9367 29.9091 27.1679V32.9798C29.9091 33.211 30.0049 33.4328 30.1754 33.5963C30.3458 33.7598 30.5771 33.8516 30.8182 33.8516C31.0593 33.8516 31.2905 33.7598 31.461 33.5963C31.6315 33.4328 31.7273 33.211 31.7273 32.9798V27.1679Z" fill="#153A7A"/>
</g>
</g>
<defs>
<filter id="filter0_d_11685_3680" x="0" y="0" width="58" height="58" filterUnits="userSpaceOnUse" color-interpolation-filters="sRGB">
<feFlood flood-opacity="0" result="BackgroundImageFix"/>
<feColorMatrix in="SourceAlpha" type="matrix" values="0 0 0 0 0 0 0 0 0 0 0 0 0 0 0 0 0 0 127 0" result="hardAlpha"/>
<feOffset/>
<feGaussianBlur stdDeviation="2"/>
<feComposite in2="hardAlpha" operator="out"/>
<feColorMatrix type="matrix" values="0 0 0 0 0 0 0 0 0 0 0 0 0 0 0 0 0 0 0.08 0"/>
<feBlend mode="normal" in2="BackgroundImageFix" result="effect1_dropShadow_11685_3680"/>
<feBlend mode="normal" in="SourceGraphic" in2="effect1_dropShadow_11685_3680" result="shape"/>
</filter>
<clipPath id="clip0_11685_3680">
<rect width="20" height="23" fill="white" transform="translate(19 17.5)"/>
</clipPath>
</defs>
</svg>
