<svg width="50" height="50" viewBox="0 0 50 50" fill="none" xmlns="http://www.w3.org/2000/svg">
<rect x="0.5" y="0.5" width="49" height="49" rx="24.5" fill="white"/>
<rect x="0.5" y="0.5" width="49" height="49" rx="24.5" stroke="#D9D9D9"/>
<g clip-path="url(#clip0_11685_3681)">
<path d="M28.9285 15.288L29.2836 17.6465H34.0909C34.332 17.6465 34.5632 17.7383 34.7337 17.9018C34.9042 18.0653 35 18.2871 35 18.5183C35 18.7495 34.9042 18.9713 34.7337 19.1347C34.5632 19.2982 34.332 19.3901 34.0909 19.3901H33.1588L32.1006 31.2291C32.0364 31.9497 31.9842 32.5426 31.9006 33.0215C31.8158 33.5201 31.6861 33.9665 31.4327 34.3803C31.0349 35.0302 30.4435 35.5512 29.7345 35.8763C29.2836 36.0821 28.8085 36.1669 28.2824 36.2064C27.777 36.2448 27.1576 36.2448 26.4036 36.2448H23.5964C22.8424 36.2448 22.223 36.2448 21.7176 36.2064C21.1915 36.1669 20.7164 36.0821 20.2655 35.8763C19.5565 35.5512 18.9651 35.0302 18.5673 34.3803C18.3127 33.9665 18.1855 33.5201 18.0994 33.0215C18.0158 32.5414 17.9636 31.9497 17.8994 31.2291L16.8412 19.3901H15.9091C15.668 19.3901 15.4368 19.2982 15.2663 19.1347C15.0958 18.9713 15 18.7495 15 18.5183C15 18.2871 15.0958 18.0653 15.2663 17.9018C15.4368 17.7383 15.668 17.6465 15.9091 17.6465H20.7164L21.0715 15.288L21.0848 15.2171C21.3055 14.2988 22.1273 13.5781 23.1576 13.5781H26.8424C27.8727 13.5781 28.6945 14.2988 28.9151 15.2171L28.9285 15.288ZM22.5527 17.6465H27.4461L27.1358 15.5821C27.0776 15.388 26.9297 15.3217 26.8412 15.3217H23.1588C23.0703 15.3217 22.9224 15.388 22.8642 15.5821L22.5527 17.6465ZM24.0909 23.1679C24.0909 22.9367 23.9951 22.7149 23.8246 22.5514C23.6542 22.3879 23.4229 22.2961 23.1818 22.2961C22.9407 22.2961 22.7095 22.3879 22.539 22.5514C22.3685 22.7149 22.2727 22.9367 22.2727 23.1679V28.9798C22.2727 29.211 22.3685 29.4328 22.539 29.5963C22.7095 29.7598 22.9407 29.8516 23.1818 29.8516C23.4229 29.8516 23.6542 29.7598 23.8246 29.5963C23.9951 29.4328 24.0909 29.211 24.0909 28.9798V23.1679ZM27.7273 23.1679C27.7273 22.9367 27.6315 22.7149 27.461 22.5514C27.2905 22.3879 27.0593 22.2961 26.8182 22.2961C26.5771 22.2961 26.3458 22.3879 26.1754 22.5514C26.0049 22.7149 25.9091 22.9367 25.9091 23.1679V28.9798C25.9091 29.211 26.0049 29.4328 26.1754 29.5963C26.3458 29.7598 26.5771 29.8516 26.8182 29.8516C27.0593 29.8516 27.2905 29.7598 27.461 29.5963C27.6315 29.4328 27.7273 29.211 27.7273 28.9798V23.1679Z" fill="#153A7A"/>
</g>
<defs>
<clipPath id="clip0_11685_3681">
<rect width="20" height="23" fill="white" transform="translate(15 13.5)"/>
</clipPath>
</defs>
</svg>
