<svg width="16" height="16" viewBox="0 0 16 16" fill="none" xmlns="http://www.w3.org/2000/svg">
<path d="M6.77295 3.06155C7.56756 2.76855 8.43306 2.76855 9.22766 3.06155L15.5027 5.37555C16.1658 5.62086 16.1658 6.6091 15.5027 6.85442L9.22766 9.16841C8.43306 9.46142 7.56756 9.46142 6.77295 9.16841L2.22435 7.48946C2.05703 7.61999 1.93145 7.80115 1.86436 8.00881C1.97315 8.0882 2.06224 8.19398 2.12411 8.31723C2.18599 8.44049 2.21883 8.57761 2.21989 8.71703C2.22094 8.85646 2.19017 8.99412 2.13016 9.11839C2.07015 9.24267 1.98267 9.34993 1.87509 9.43113L1.87839 9.44679L2.60085 12.8734C2.61691 12.9497 2.61653 13.0287 2.59974 13.1048C2.58294 13.1808 2.55016 13.252 2.50381 13.3129C2.45745 13.3739 2.39871 13.4231 2.33191 13.4569C2.26512 13.4907 2.19196 13.5084 2.11784 13.5085H0.672094C0.597903 13.5085 0.524652 13.491 0.45775 13.4572C0.390847 13.4234 0.332002 13.3742 0.285559 13.3133C0.239115 13.2523 0.20626 13.1811 0.189418 13.105C0.172576 13.0289 0.172178 12.9497 0.188252 12.8734L0.910712 9.44592L0.91484 9.43113C0.799148 9.34404 0.706765 9.22694 0.646637 9.09119C0.586509 8.95543 0.560676 8.80561 0.571638 8.65625C0.582601 8.50689 0.629988 8.36304 0.70921 8.23863C0.788432 8.11423 0.896804 8.01349 1.02383 7.94617C1.08463 7.66599 1.20083 7.40247 1.36483 7.17281L0.497878 6.85355C-0.165959 6.60823 -0.165959 5.61999 0.497878 5.37468L6.77295 3.06155Z" fill="#153A7A"/>
<path d="M2.9733 8.84262L2.67578 11.0266C2.6247 11.3985 2.78959 11.7836 3.14177 12.0108C4.17861 12.6814 5.86874 13.5084 7.99887 13.5084C9.76983 13.5135 11.4934 12.9831 12.9035 11.9992C13.2305 11.7688 13.3712 11.401 13.3246 11.0513L13.0235 8.8418L9.33053 10.0284C8.4681 10.3056 7.52873 10.3056 6.6663 10.0284L2.9733 8.84262Z" fill="#153A7A"/>
</svg>
