<svg width="16" height="17" viewBox="0 0 16 17" fill="none" xmlns="http://www.w3.org/2000/svg">
<path d="M1 13C1.55229 13 2 13.4477 2 14V15H14V14C14 13.4477 14.4477 13 15 13C15.5523 13 16 13.4477 16 14V16C16 16.5523 15.5523 17 15 17H1C0.447715 17 2.23128e-07 16.5523 1.74845e-07 16L0 14C-4.82823e-08 13.4477 0.447716 13 1 13Z" fill="white"/>
<path d="M8.70711 0.292894L13.7071 5.29289C14.0976 5.68342 14.0976 6.31658 13.7071 6.70711C13.3166 7.09763 12.6834 7.09763 12.2929 6.70711L9 3.41421V12C9 12.5523 8.55229 13 8 13C7.44772 13 7 12.5523 7 12V3.41421L3.70711 6.70711C3.31658 7.09763 2.68342 7.09763 2.29289 6.70711C1.90237 6.31658 1.90237 5.68342 2.29289 5.29289L7.29289 0.292894C7.68342 -0.0976314 8.31658 -0.0976315 8.70711 0.292894Z" fill="white"/>
</svg>
