<svg width="157" height="132" viewBox="0 0 157 132" fill="none" xmlns="http://www.w3.org/2000/svg">
  <path d="M130.988 52.6131C128.279 59.1437 131.271 66.6753 137.772 69.547C144.273 72.4186 151.855 69.5573 154.858 63.1569L169.856 69.7814L163.477 84.2225C163.386 84.1797 163.293 84.138 163.201 84.0971C156.607 81.1849 148.901 84.169 145.988 90.7626C143.076 97.3563 146.06 105.063 152.653 107.976C152.746 108.017 152.84 108.056 152.933 108.094L146.309 123.092L131.867 116.713C131.828 116.806 131.789 116.9 131.748 116.993C128.836 123.586 121.129 126.57 114.535 123.658C107.941 120.745 104.957 113.039 107.869 106.445C107.911 106.352 107.953 106.26 107.996 106.169L92.9982 99.5444L99.6227 84.5468C99.5297 84.5082 99.4363 84.4698 99.3438 84.4289C92.7498 81.5164 89.7652 73.8091 92.6778 67.2152C95.5904 60.6214 103.297 57.6376 109.891 60.5501C109.984 60.591 110.076 60.6324 110.167 60.6751L116.546 46.234L130.988 52.6131Z" fill="url(#paint0_radial_8111_19393)"/>
  <path d="M141.215 79.0315C140.42 79.6758 139.198 80.1314 137.703 79.471C136.208 78.8107 135.721 77.6003 135.662 76.5786" stroke="#50A102" stroke-width="2" stroke-linecap="round"/>
  <path d="M142.275 84.1451C140.369 84.2989 135.912 85.3166 130.53 82.9393C125.148 80.562 123.453 76.8271 122.284 75.3148" stroke="#50A102" stroke-width="2" stroke-linecap="round"/>
  <path d="M132.33 75.1071C131.535 75.7513 130.313 76.207 128.818 75.5466C127.323 74.8862 126.836 73.6759 126.777 72.6542" stroke="#50A102" stroke-width="2" stroke-linecap="round"/>
  <path d="M82.7921 16.7242C89.3858 19.6367 92.3707 27.3432 89.4584 33.9371C89.4175 34.0298 89.375 34.122 89.3321 34.2133L95.1815 36.797C100.233 39.0284 102.52 44.9329 100.288 49.9848L97.9502 55.2785C97.8589 55.2357 97.7663 55.1941 97.6736 55.1531C91.0799 52.2409 83.3738 55.2252 80.4611 61.8186C77.5486 68.4124 80.5326 76.1192 87.1262 79.0319C87.2189 79.0729 87.3128 79.1115 87.406 79.1502L84.8219 85.0004C82.5905 90.0524 76.6861 92.3388 71.6341 90.1074L65.7839 87.5233C65.8266 87.4322 65.8698 87.3408 65.9107 87.2483C68.823 80.6545 65.8385 72.9471 59.2447 70.0346C52.6509 67.1225 44.9444 70.1074 42.0318 76.701C41.991 76.7935 41.9516 76.8866 41.9131 76.9795L36.6185 74.6409C31.5668 72.4093 29.2801 66.5049 31.5115 61.453L34.0952 55.6037C34.0022 55.5651 33.9093 55.5258 33.8167 55.4849C27.2229 52.5724 24.238 44.866 27.1503 38.2721C30.0629 31.6782 37.7701 28.6936 44.3641 31.6061C44.4566 31.647 44.5483 31.6893 44.6394 31.732L46.978 26.4374C49.2096 21.3858 55.1141 19.0993 60.1659 21.3305L65.4605 23.6691C65.4991 23.576 65.5387 23.4824 65.5796 23.3897C68.4923 16.7962 76.1984 13.8121 82.7921 16.7242Z" fill="url(#paint1_radial_8111_19393)"/>
  <path d="M56.5392 58.8846C55.7441 59.5289 54.5219 59.9846 53.0268 59.3242C51.5318 58.6638 51.0453 57.4534 50.986 56.4318" stroke="#9DAD3A" stroke-width="2" stroke-linecap="round"/>
  <circle cx="48.0142" cy="51.1374" r="2.42831" transform="rotate(23.8312 48.0142 51.1374)" fill="#9DAD3A"/>
  <circle cx="62.4517" cy="57.515" r="2.42831" transform="rotate(23.8312 62.4517 57.515)" fill="#9DAD3A"/>
  <defs>
    <radialGradient id="paint0_radial_8111_19393" cx="0" cy="0" r="1" gradientUnits="userSpaceOnUse" gradientTransform="translate(131.6 81.4304) rotate(119.709) scale(54.0013)">
      <stop stop-color="#72CF1A"/>
      <stop offset="1" stop-color="#A9F561"/>
    </radialGradient>
    <radialGradient id="paint1_radial_8111_19393" cx="0" cy="0" r="1" gradientUnits="userSpaceOnUse" gradientTransform="translate(53.9565 54.2012) rotate(103.122) scale(26.1578)">
      <stop stop-color="#D9E877"/>
      <stop offset="1" stop-color="#EAF3B2"/>
    </radialGradient>
  </defs>
</svg>