<svg width="100" height="95" viewBox="0 0 100 95" fill="none" xmlns="http://www.w3.org/2000/svg">
<path d="M0 37H74V101H10C4.47715 101 0 96.5228 0 91V37Z" fill="url(#paint0_radial_8111_19212)"/>
<path d="M74 36.9999L113 29.0001V84.2478C113 88.9275 109.755 92.9813 105.188 94.0054L74 101V36.9999Z" fill="#3333A0"/>
<path d="M38.9192 29H113L74 37H0L38.9192 29Z" fill="black"/>
<path d="M38.9222 29H78L38.9222 37H0L38.9222 29Z" fill="#3333A0"/>
<path d="M39 8.45714L77.7619 0L113 29L74 37L39 8.45714Z" fill="#3333A0"/>
<path d="M46.9506 51.0359C46.3578 51.9455 45.175 52.854 43.1098 52.8503C41.0445 52.8465 39.8668 51.9338 39.2793 51.0221" stroke="#153A7A" stroke-width="2" stroke-linecap="round"/>
<path d="M34.6771 51.0137C34.0844 51.9233 32.9016 52.8318 30.8363 52.828C28.7711 52.8243 27.5934 51.9116 27.0059 50.9999" stroke="#153A7A" stroke-width="2" stroke-linecap="round"/>
<path d="M40.0723 56.0064C39.6043 56.9165 38.6694 57.8261 37.035 57.8244C35.4006 57.8226 34.4675 56.911 34.0015 55.9999" stroke="#153A7A" stroke-width="2" stroke-linecap="round"/>
<defs>
<radialGradient id="paint0_radial_8111_19212" cx="0" cy="0" r="1" gradientUnits="userSpaceOnUse" gradientTransform="translate(37 54.8701) rotate(90) scale(54.4416 62.9481)">
<stop stop-color="#5D6BF9"/>
<stop offset="1" stop-color="#3C47BD"/>
</radialGradient>
</defs>
</svg>