<svg width="132" height="127" viewBox="0 0 132 127" fill="none" xmlns="http://www.w3.org/2000/svg">
  <path d="M68.4048 5.28984C67.5919 4.88285 66.337 5.05472 64.7117 5.79566C63.0863 6.5366 61.1224 7.83208 58.9321 9.60815C56.7418 11.3842 54.3679 13.6061 51.946 16.1469C49.5241 18.6877 47.1016 21.4977 44.8169 24.4164C42.5322 27.3351 40.4299 30.3055 38.6302 33.1578C36.8304 36.0101 35.3684 38.6885 34.3277 41.0401C33.2869 43.3918 32.6877 45.3706 32.5644 46.8635C32.4411 48.3565 32.796 49.3344 33.6089 49.7414L51.0068 27.5156L68.4048 5.28984Z" fill="#D0F8EA"/>
  <path d="M78.8391 16.1708C79.2116 17 78.9872 18.2466 78.1787 19.8394C77.3702 21.4322 75.9934 23.34 74.127 25.4539C72.2606 27.5677 69.941 29.8463 67.3008 32.1594C64.6606 34.4725 61.7514 36.7749 58.7393 38.9351C55.7273 41.0953 52.6713 43.071 49.746 44.7495C46.8207 46.4279 44.0832 47.7762 41.69 48.7173C39.2967 49.6585 37.2945 50.174 35.7977 50.2346C34.3009 50.2952 33.3387 49.8995 32.9662 49.0703L55.9027 32.6205L78.8391 16.1708Z" fill="#D0F8EA"/>
  <path d="M32.1441 42.2381C32.6405 43.7087 32.5634 45.2174 32.1515 46.5581C31.344 49.1859 29.1801 51.4718 26.4226 52.5944L17.8037 56.1031C15.0464 57.2254 11.9018 57.1005 9.48869 55.7841C8.2575 55.1123 7.14857 54.0864 6.47666 52.6873C5.7924 51.2623 5.6561 49.6449 6.06902 47.9978C6.25979 47.237 6.50947 46.4866 6.81771 45.7551C8.40912 41.9785 11.436 38.9889 15.2317 37.4437C19.0274 35.8986 23.2816 35.9238 27.0583 37.5152C27.7898 37.8234 28.4917 38.1864 29.1596 38.5977C30.6056 39.488 31.6385 40.7403 32.1441 42.2381Z" stroke="#0D9365" stroke-width="5.6"/>
  <path d="M40.4053 50.8552C38.9568 50.2975 37.4462 50.3112 36.0894 50.6665C33.4301 51.363 31.0553 53.429 29.818 56.137L25.9506 64.601C24.7135 67.3087 24.7064 70.4559 25.9203 72.9221C26.5398 74.1804 27.5183 75.3314 28.888 76.0614C30.283 76.8049 31.8933 77.009 33.5562 76.6655C34.3244 76.5069 35.0846 76.2889 35.8284 76.0116C39.6684 74.5801 42.7824 71.6814 44.4856 67.9539C46.1887 64.2264 46.342 59.9749 44.9106 56.1348C44.6334 55.391 44.3001 54.6744 43.9173 53.9898C43.0884 52.5078 41.8806 51.4232 40.4053 50.8552Z" stroke="#0D9365" stroke-width="5.6"/>
  <path d="M122.969 60.9999L64.1994 86.0256C59.1181 88.1894 56.8451 94.0223 59.1225 99.0537L96.03 180.592L164 151.648L122.969 60.9999Z" fill="url(#paint0_radial_8111_19315)"/>
  <path d="M69.1602 83.9139L64.2003 86.026C59.119 88.1898 56.846 94.0226 59.1234 99.0541L61.2166 103.678L75.377 97.6486L69.1602 83.9139Z" fill="#0D9465"/>
  <path d="M114 72.9999H65V60.1732C65 59.1494 65.1965 58.1352 65.5789 57.1854L72.7345 39.4122C74.3832 35.3171 79.0375 33.3315 83.1346 34.9754L88.9896 37.3246L103.281 58.6233H106C110.418 58.6233 114 62.205 114 66.6233V72.9999Z" fill="url(#paint1_radial_8111_19315)"/>
  <path d="M86.9392 62.528C86.5297 63.3572 85.7117 64.186 84.2816 64.1844C82.8515 64.1828 82.035 63.3523 81.6273 62.5221" stroke="#00BC7B" stroke-width="2" stroke-linecap="round"/>
  <path d="M77.25 55.2331L81.1745 59.3196C81.1794 59.3246 81.1758 59.3331 81.1687 59.3331H77.25" stroke="#00BC7B" stroke-width="2" stroke-linecap="round"/>
  <path d="M90.8125 55.2331L86.888 59.3196C86.8831 59.3246 86.8867 59.3331 86.8938 59.3331H90.8125" stroke="#00BC7B" stroke-width="2" stroke-linecap="round"/>
  <defs>
    <radialGradient id="paint0_radial_8111_19315" cx="0" cy="0" r="1" gradientTransform="matrix(20.5156 45.3243 33.985 -14.4718 109.499 120.796)" gradientUnits="userSpaceOnUse">
      <stop stop-color="#D0F8EA"/>
      <stop offset="1" stop-color="#B0F6DE"/>
    </radialGradient>
    <radialGradient id="paint1_radial_8111_19315" cx="0" cy="0" r="1" gradientTransform="matrix(6.63542 22.8961 -27.3636 8.63012 85.9271 58.0908)" gradientUnits="userSpaceOnUse">
      <stop stop-color="#00BC7B"/>
      <stop offset="1" stop-color="#0D9364"/>
    </radialGradient>
  </defs>
</svg>