<svg preserveAspectRatio="none" width="100%" height="100%" overflow="visible" style="display: block;" viewBox="0 0 140 41.8294" fill="none" xmlns="http://www.w3.org/2000/svg">
<path id="Vector" d="M48.098 37.3946C51.4337 34.0408 52.5726 32.97 52.7688 33.002C52.9124 33.0251 55.0504 35.0207 57.5191 37.4369L62.0079 41.8294H65.0858C66.9955 41.8294 68.1946 41.7807 68.2433 41.7012C68.2869 41.6306 65.2757 38.5514 61.5513 34.8578L54.7797 28.1414C61.2068 28.0089 67.6768 28.013 74.0787 27.4027C75.1726 27.2988 76.9899 27.1526 78.1185 27.0756C80.1374 26.9403 82.129 26.5888 84.1462 26.4421C85.1337 26.369 86.2585 26.2484 86.6471 26.1753C88.2048 25.8771 89.7842 25.7532 91.3282 25.3725C92.6145 25.0528 93.9581 25.0286 95.2398 24.6902C96.4501 24.3746 97.6918 24.1996 98.8949 23.8527C99.3886 23.7104 99.9953 23.5488 100.241 23.4936C100.684 23.3962 101.37 23.182 103.64 22.4317C105.11 21.9457 107.423 20.9299 107.423 20.7696C107.423 20.6414 106.745 20.7504 106.401 20.9351C105.493 21.4211 94.7499 22.9447 88.8914 23.4167C87.5512 23.5244 85.9058 23.6719 85.2363 23.7437C83.9218 23.8848 79.2215 24.1593 73.8863 24.4055C68.7153 24.6453 51.4722 24.603 45.8639 24.3375C40.9445 24.1031 36.0113 23.8423 31.1152 23.2974C26.2958 22.7583 21.4539 22.2906 16.6872 21.3775C14.8453 21.0246 12.9742 20.7342 11.1725 20.2028C10.5376 20.0168 9.545 19.7603 8.9666 19.6321C8.38819 19.5038 7.75079 19.314 7.55073 19.2101C7.34937 19.1062 6.81329 18.9267 6.35801 18.8087C5.90272 18.692 5.13964 18.3996 4.66384 18.1572C4.18803 17.9161 3.71864 17.7186 3.62374 17.7186C3.32748 17.7186 1.11775 16.1822 0.748393 15.7192C0.556019 15.4781 0.359798 15.2819 0.312346 15.2819C0.264894 15.2819 0.15973 15.5999 0.0789326 15.9898C-0.169871 17.1876 0.1546 18.0379 1.26524 19.0883C2.44769 20.2053 4.34963 21.2865 6.19898 21.8918C7.24453 22.2331 8.23351 22.7665 9.31287 22.9909C9.70146 23.0704 10.1747 23.2153 10.3645 23.3128C10.5556 23.4103 10.8903 23.4898 11.1109 23.4898C11.3302 23.4898 11.6226 23.5501 11.7611 23.6245C11.9843 23.7437 12.4781 23.8694 14.7635 24.3888C15.657 24.5935 16.5442 24.859 17.4567 24.9685C18.7648 25.1288 19.0188 25.1724 20.0217 25.4097C21.4734 25.7534 25.1093 26.2856 27.0754 26.4408C28.5787 26.5607 30.0633 26.8102 31.5641 26.9512C32.4105 27.0308 33.6225 27.1475 34.2573 27.2129C36.4414 27.4347 38.7525 27.5874 41.9523 27.7194C47.8068 27.9618 52.9112 28.1016 53.1099 28.0247C53.2177 27.9836 53.5742 27.9901 53.9012 28.0388L54.4976 28.1286C53.0664 29.56 40.9288 41.596 41.0712 41.7384C41.1212 41.7884 41.7291 41.8294 42.4242 41.8294H43.6862L48.098 37.3946ZM45.0302 17.4698C46.6359 17.2825 47.6517 16.749 48.8777 15.4486C49.7742 14.497 50.1025 13.6326 50.2333 11.8832C50.3552 10.2468 50.3859 1.12187 50.2718 0.693515C50.1974 0.41778 50.1358 0.404955 48.8623 0.404955H47.5311L47.5273 5.11811C47.5247 9.82485 47.417 11.8909 47.1246 12.8669C46.9052 13.5979 45.9895 14.5714 45.2572 14.8509C44.4134 15.1728 42.4217 15.1754 41.6316 14.8561C40.5774 14.4277 39.8669 13.5287 39.5707 12.2475C39.4758 11.8396 39.4335 9.96849 39.4463 6.79304C39.4565 4.13444 39.4258 1.60921 39.3783 1.18214L39.2898 0.404955H38.0496C37.2558 0.404955 36.7543 0.460104 36.6556 0.558855C36.4196 0.794834 36.4401 11.5588 36.6799 12.8131C36.9134 14.0404 37.3853 14.9753 38.1805 15.782C39.6335 17.2582 41.9446 17.8276 45.0302 17.4698ZM77.9095 17.33C79.2689 16.9529 79.8024 16.64 80.8246 15.6166C82.0493 14.3892 82.697 13.0708 82.7201 11.7563L82.7355 10.8573L81.4851 10.8201C80.0551 10.779 80.2718 10.5956 79.6549 12.3693C79.2535 13.5223 78.5751 14.3046 77.4927 14.8638C76.9207 15.1587 76.6783 15.2036 75.6177 15.2075C74.5275 15.2113 74.3185 15.1728 73.6298 14.8381C72.2614 14.1725 71.1277 12.6669 70.7301 10.9855C70.5198 10.0993 70.5249 7.69463 70.7391 6.68916C71.0456 5.24764 71.5098 4.39607 72.4615 3.52397C73.0309 3.002 73.5272 2.6724 73.9466 2.53517C74.7802 2.262 76.5872 2.26328 77.426 2.53774C78.2763 2.81604 79.1022 3.63812 79.6306 4.72952L80.0499 5.59904C80.6068 5.59904 82.7131 5.89417 82.7599 5.27842C82.7998 4.77665 82.5634 4.27023 82.4149 3.80356C81.9609 2.38897 80.1474 0.823045 78.3327 0.283117C77.0592 -0.0965007 74.3416 -0.0939346 73.1707 0.288248C70.7198 1.08596 68.9859 2.86477 68.1484 5.43745C67.3528 7.87749 67.4645 10.8347 68.564 13.1516C69.4053 14.9202 70.9365 16.5644 72.4114 17.0133C74.1262 17.6498 76.1267 17.8239 77.9095 17.33ZM114.2 17.1222C115.425 16.6464 116.217 16.0321 116.879 15.0472C117.877 13.5633 117.86 13.6941 117.91 6.65325L117.954 0.395976L115.054 0.469079L114.988 6.49679C114.926 12.1795 114.908 12.554 114.667 13.0375C113.921 14.5406 113.05 15.051 111.207 15.0664C109.175 15.0843 107.953 14.4226 107.43 13.0259C107.025 11.941 106.922 10.4558 106.912 5.48747C106.907 2.66599 106.853 0.79355 106.774 0.646064C106.66 0.434453 106.486 0.404955 105.366 0.404955H104.089V6.15308C104.089 12.3039 104.136 12.9015 104.72 14.1892C105.133 15.0972 106.344 16.3758 107.182 16.7862C108.484 17.4236 109.407 17.5865 111.407 17.5326C113.081 17.489 113.369 17.4454 114.2 17.1222ZM24.8015 13.5184C24.8323 10.0621 24.8528 9.76586 25.058 9.75431C25.1798 9.74662 26.8958 9.73251 28.8709 9.72225L32.4618 9.70301L32.5362 7.33041H24.8605L24.7836 7.04185C24.7412 6.88282 24.7053 5.90171 24.704 4.86161C24.7028 3.1482 24.7233 2.96865 24.9272 2.96096C25.0503 2.95583 26.9125 2.95327 29.0632 2.95583C31.214 2.95711 33.0761 2.9289 33.1993 2.89171C33.3929 2.83399 33.4237 2.65573 33.4237 1.61434V0.404955H22.6649L21.9454 1.0244L21.8813 8.88992C21.8467 13.217 21.8364 16.8888 21.8582 17.0491C21.8992 17.3364 21.9262 17.3415 23.3331 17.3056L24.7669 17.2697L24.8015 13.5184ZM66.335 16.372C66.3427 15.8782 66.3209 15.3165 66.2863 15.1228L66.2247 14.7727L57.7269 14.7047L57.5987 0.469079L54.8413 0.395976V16.2732L55.1196 16.6259C55.6621 17.3172 55.7583 17.3274 61.2538 17.2979L66.3196 17.2697L66.335 16.372ZM100.787 17.1415C100.769 17.0709 100.61 16.5977 100.433 16.0911C100.185 15.3793 100.095 14.806 100.04 13.5902C100 12.722 99.908 11.7383 99.8362 11.4049C99.6541 10.57 99.0667 9.80048 98.378 9.49525C97.0549 8.9102 99.3221 8.11669 99.808 7.10084C100.47 5.7196 100.338 3.35725 99.5348 2.19916C98.9289 1.32188 97.8949 0.927883 96.9711 0.469079L87.4243 0.388282L86.6445 1.18471L86.7112 17.1415L87.9424 17.1774C88.8991 17.2069 89.2082 17.1722 89.3288 17.0273C89.4429 16.8901 89.4814 15.9577 89.4724 13.5697C89.4673 11.7717 89.507 10.2763 89.5609 10.2481C89.616 10.2199 90.9011 10.2314 92.4183 10.2712C94.9628 10.3404 95.2231 10.3686 95.7835 10.6444C96.4658 10.9804 96.8826 11.4831 97.0545 12.1821C97.1186 12.4411 97.2199 13.4889 97.2789 14.5124C97.3482 15.7025 97.4598 16.5464 97.5906 16.8568L97.7945 17.3415L99.3066 17.3056C100.234 17.2838 100.806 17.2197 100.787 17.1415ZM132.427 17.0863C132.5 16.9491 132.56 16.7375 132.56 16.6156C132.56 16.4925 132.872 15.6089 133.253 14.6509C133.634 13.6928 133.988 12.7066 134.039 12.4604C134.092 12.2141 134.242 11.8101 134.372 11.5639C134.725 10.9103 134.653 10.0416 135.119 9.4478C135.174 9.37598 135.261 9.08742 135.31 8.80527C135.36 8.52312 135.511 8.10118 135.647 7.86777C135.856 7.50982 135.907 7.11623 136.099 6.75329C136.209 6.54167 136.436 5.96584 136.603 5.47208C136.777 4.95652 136.936 4.6577 136.977 4.76671C137.017 4.87187 137.063 7.72798 137.081 11.1138L137.113 17.2697H139.935L140 0.398544L135.715 0.469079L135.038 2.45694C131.237 13.6108 131.352 13.2914 131.141 13.1606C131.085 13.126 130.885 12.6232 130.694 12.0423C130.273 10.7699 129.653 9.59035 129.289 8.29227C128.94 7.04928 128.312 5.90681 128.02 4.65C127.756 3.5121 127.25 2.44782 126.904 1.33476L126.615 0.404955H122.299L122.364 17.1415H125.058L125.091 10.8791C125.115 6.37623 125.164 4.62948 125.265 4.66411C125.436 4.72054 125.654 5.26431 126.726 8.29227C129.284 15.523 129.83 17.0427 129.935 17.2133C129.977 17.2787 130.525 17.3338 131.152 17.3338C132.151 17.3338 132.311 17.3031 132.427 17.0863ZM7.06851 14.3867C6.96463 13.7724 7.16213 13.1106 7.55842 12.7387C8.36383 11.982 10.9224 10.9175 13.0321 10.4623C14.1004 10.2314 18.366 9.54399 19.4099 9.43369C19.9037 9.38239 20.1781 9.30031 20.1281 9.21823C20.0332 9.06562 16.7 9.17591 15.5971 9.36957C15.2098 9.43626 14.3441 9.55809 13.6733 9.63889C11.6778 9.88 8.77679 10.6033 7.60587 11.1522C6.28747 11.7717 5.72189 12.3629 5.72189 13.1247C5.72189 13.5838 5.80141 13.7313 6.34518 14.2738C6.68761 14.6162 7.00951 14.8971 7.0621 14.8971C7.1134 14.8971 7.11596 14.6675 7.06851 14.3867ZM89.5968 5.33998V2.69292L92.5786 2.74165C95.8618 2.79552 96.1939 2.86349 96.8198 3.60734C97.1981 4.05621 97.3597 4.88085 97.2494 5.80681C97.1545 6.6058 96.8544 7.11495 96.2157 7.55741L95.7117 7.90753L89.5968 7.98833V5.33998Z" fill="#FFFFFF"/>
</svg>
