<svg width="16" height="16" viewBox="0 0 16 16" fill="none" xmlns="http://www.w3.org/2000/svg">
<path d="M4.6665 6.44402C4.6665 5.97246 4.85383 5.52022 5.18727 5.18678C5.52071 4.85334 5.97295 4.66602 6.4445 4.66602H12.2218C12.4553 4.66602 12.6865 4.71201 12.9022 4.80136C13.118 4.89071 13.314 5.02168 13.4791 5.18678C13.6442 5.35188 13.7751 5.54789 13.8645 5.7636C13.9538 5.97932 13.9998 6.21053 13.9998 6.44402V12.2213C13.9998 12.4548 13.9538 12.686 13.8645 12.9018C13.7751 13.1175 13.6442 13.3135 13.4791 13.4786C13.314 13.6437 13.118 13.7747 12.9022 13.864C12.6865 13.9534 12.4553 13.9993 12.2218 13.9993H6.4445C6.21101 13.9993 5.97981 13.9534 5.76409 13.864C5.54838 13.7747 5.35237 13.6437 5.18727 13.4786C5.02217 13.3135 4.8912 13.1175 4.80185 12.9018C4.71249 12.686 4.6665 12.4548 4.6665 12.2213V6.44402Z" stroke="#484848" stroke-width="1.25" stroke-linecap="round" stroke-linejoin="round"/>
<path d="M2.67467 11.158C2.47 11.0417 2.29977 10.8733 2.18127 10.6699C2.06277 10.4665 2.00023 10.2354 2 10V3.33333C2 2.6 2.6 2 3.33333 2H10C10.5 2 10.772 2.25667 11 2.66667" stroke="#484848" stroke-width="1.25" stroke-linecap="round" stroke-linejoin="round"/>
</svg>
