<svg width="17" height="16" viewBox="0 0 17 16" fill="none" xmlns="http://www.w3.org/2000/svg">
<path d="M16.4483 13.6717L9.45797 0.690293C8.9625 -0.230098 7.64262 -0.230098 7.14674 0.690293L0.156856 13.6717C0.0492771 13.8715 -0.00465791 14.0958 0.000315285 14.3227C0.00528848 14.5496 0.0690001 14.7713 0.185231 14.9662C0.301462 15.1611 0.466242 15.3225 0.663485 15.4348C0.860729 15.547 1.0837 15.6061 1.31063 15.6064H15.2924C15.5195 15.6065 15.7428 15.5476 15.9403 15.4355C16.1378 15.3234 16.3029 15.162 16.4194 14.9671C16.5358 14.7721 16.5997 14.5503 16.6048 14.3232C16.6099 14.0962 16.5559 13.8717 16.4483 13.6717ZM8.30256 13.5967C8.14032 13.5967 7.98172 13.5486 7.84682 13.4584C7.71192 13.3683 7.60678 13.2402 7.54469 13.0903C7.4826 12.9404 7.46636 12.7755 7.49801 12.6163C7.52966 12.4572 7.60779 12.311 7.72251 12.1963C7.83723 12.0816 7.9834 12.0035 8.14252 11.9718C8.30165 11.9402 8.46659 11.9564 8.61648 12.0185C8.76637 12.0806 8.89449 12.1857 8.98462 12.3206C9.07476 12.4555 9.12287 12.6141 9.12287 12.7764C9.12287 12.8841 9.10165 12.9908 9.06043 13.0903C9.0192 13.1898 8.95878 13.2802 8.88261 13.3564C8.80643 13.4326 8.716 13.493 8.61648 13.5342C8.51695 13.5755 8.41028 13.5967 8.30256 13.5967ZM9.19342 5.34639L8.95799 10.3503C8.95799 10.5243 8.88885 10.6913 8.76578 10.8143C8.64271 10.9374 8.47579 11.0065 8.30174 11.0065C8.12769 11.0065 7.96077 10.9374 7.8377 10.8143C7.71463 10.6913 7.64549 10.5243 7.64549 10.3503L7.41006 5.34844C7.40477 5.22891 7.42359 5.10955 7.46542 4.99746C7.50724 4.88536 7.57121 4.78284 7.6535 4.69599C7.73579 4.60915 7.83472 4.53976 7.9444 4.49196C8.05408 4.44417 8.17226 4.41894 8.29189 4.41779H8.30051C8.42096 4.41773 8.54017 4.44207 8.65096 4.48935C8.76174 4.53663 8.8618 4.60586 8.94509 4.69287C9.02838 4.77988 9.09318 4.88287 9.13558 4.99561C9.17798 5.10835 9.1971 5.22852 9.19178 5.34885L9.19342 5.34639Z" fill="#EF4444"/>
</svg>
