<svg width="135" height="41" viewBox="0 0 135 41" fill="none" xmlns="http://www.w3.org/2000/svg">
<g clip-path="url(#clip0_5965_8932)">
<path d="M46.3802 36.059C49.5968 32.8251 50.695 31.7925 50.8842 31.8234C51.0227 31.8456 53.0843 33.7699 55.4649 36.0999L59.7933 40.3355H62.7614C64.6028 40.3355 65.7591 40.2885 65.8061 40.2118C65.8481 40.1438 62.9444 37.1745 59.353 33.6129L52.8233 27.1363C59.0209 27.0086 65.2597 27.0126 71.433 26.424C72.4879 26.3238 74.2403 26.1829 75.3286 26.1087C77.2754 25.9781 79.1959 25.6392 81.141 25.4977C82.0933 25.4272 83.1778 25.311 83.5526 25.2405C85.0547 24.953 86.5777 24.8335 88.0665 24.4663C89.3069 24.1581 90.6024 24.1347 91.8384 23.8084C93.0054 23.5041 94.2028 23.3353 95.3629 23.0009C95.839 22.8636 96.424 22.7078 96.6614 22.6546C97.0881 22.5606 97.7497 22.3541 99.9387 21.6306C101.356 21.1619 103.587 20.1824 103.587 20.0279C103.587 19.9042 102.933 20.0093 102.601 20.1874C101.726 20.6561 91.3659 22.1253 85.7168 22.5804C84.4244 22.6843 82.8377 22.8265 82.1922 22.8957C80.9246 23.0318 76.3921 23.2964 71.2475 23.5339C66.2612 23.7651 49.6339 23.7243 44.2259 23.4683C39.4822 23.2423 34.7252 22.9908 30.004 22.4654C25.3567 21.9455 20.6877 21.4945 16.0912 20.614C14.3151 20.2737 12.5108 19.9937 10.7735 19.4812C10.1613 19.3019 9.20411 19.0546 8.64636 18.9309C8.08861 18.8073 7.47398 18.6242 7.28106 18.524C7.0869 18.4239 6.56996 18.2507 6.13094 18.137C5.69191 18.0244 4.95608 17.7425 4.49727 17.5087C4.03846 17.2762 3.58583 17.0858 3.49432 17.0858C3.20864 17.0858 1.07783 15.6042 0.721665 15.1578C0.536162 14.9253 0.346948 14.7361 0.301191 14.7361C0.255433 14.7361 0.154025 15.0428 0.0761136 15.4187C-0.163804 16.5738 0.149078 17.3937 1.22005 18.4066C2.36028 19.4837 4.19428 20.5262 5.97759 21.11C6.9858 21.4391 7.93946 21.9534 8.98027 22.1698C9.35498 22.2465 9.81132 22.3862 9.99435 22.4802C10.1786 22.5742 10.5014 22.6509 10.7141 22.6509C10.9256 22.6509 11.2075 22.709 11.3411 22.7807C11.5563 22.8957 12.0324 23.0169 14.2362 23.5178C15.0979 23.7152 15.9534 23.9712 16.8332 24.0768C18.0947 24.2314 18.3395 24.2734 19.3066 24.5022C20.7065 24.8336 24.2126 25.3469 26.1084 25.4965C27.558 25.6121 28.9896 25.8527 30.4368 25.9887C31.253 26.0654 32.4217 26.1779 33.0338 26.241C35.1399 26.4549 37.3684 26.6021 40.454 26.7295C46.0995 26.9632 51.0215 27.098 51.2132 27.0238C51.317 26.9842 51.6608 26.9904 51.9762 27.0374L52.5513 27.124C51.1712 28.5043 39.4671 40.1104 39.6044 40.2477C39.6526 40.2959 40.2388 40.3355 40.9091 40.3355H42.126L46.3802 36.059ZM43.422 16.8459C44.9704 16.6653 45.9498 16.1508 47.1321 14.8968C47.9965 13.9792 48.3131 13.1457 48.4393 11.4588C48.5568 9.88084 48.5864 1.0818 48.4764 0.668747C48.4046 0.402859 48.3453 0.390492 47.1172 0.390492H45.8336L45.8299 4.93532C45.8274 9.47397 45.7235 11.4663 45.4415 12.4074C45.2301 13.1123 44.3471 14.0509 43.6409 14.3205C42.8272 14.631 40.9066 14.6334 40.1448 14.3255C39.1282 13.9124 38.4431 13.0455 38.1574 11.8101C38.0659 11.4168 38.0251 9.61247 38.0375 6.55044C38.0474 3.98678 38.0177 1.55174 37.9719 1.13992L37.8866 0.390492H36.6907C35.9252 0.390492 35.4417 0.443671 35.3465 0.538896C35.1189 0.766447 35.1387 11.146 35.37 12.3554C35.595 13.539 36.0501 14.4405 36.8169 15.2184C38.218 16.6418 40.4466 17.1909 43.422 16.8459ZM75.127 16.7111C76.4379 16.3475 76.9523 16.0457 77.938 15.0588C79.119 13.8753 79.7436 12.604 79.7658 11.3364L79.7806 10.4695L78.5749 10.4336C77.196 10.3941 77.405 10.2172 76.8101 11.9276C76.423 13.0393 75.7688 13.7937 74.7251 14.3329C74.1735 14.6173 73.9398 14.6606 72.917 14.6643C71.8658 14.6681 71.6643 14.631 71.0002 14.3082C69.6806 13.6663 68.5874 12.2145 68.204 10.5932C68.0012 9.73862 68.0061 7.41983 68.2127 6.45026C68.5082 5.06023 68.9559 4.23907 69.8735 3.39812C70.4226 2.89479 70.9012 2.57695 71.3056 2.44463C72.1095 2.18121 73.852 2.18245 74.6608 2.4471C75.4807 2.71547 76.2771 3.50818 76.7866 4.5606L77.191 5.39908C77.728 5.39908 79.759 5.68367 79.8041 5.08991C79.8427 4.60606 79.6147 4.11773 79.4715 3.66772C79.0337 2.30365 77.285 0.793651 75.5351 0.273005C74.3071 -0.0930543 71.6865 -0.0905798 70.5574 0.277953C68.1941 1.04717 66.5221 2.76246 65.7146 5.24325C64.9474 7.59615 65.0551 10.4478 66.1152 12.6819C66.9265 14.3873 68.4031 15.9728 69.8253 16.4057C71.4789 17.0194 73.4079 17.1874 75.127 16.7111ZM110.122 16.5107C111.303 16.0519 112.067 15.4595 112.705 14.5098C113.667 13.0789 113.651 13.2051 113.699 6.41564L113.741 0.381835L110.945 0.452327L110.881 6.26476C110.822 11.7445 110.804 12.1056 110.572 12.5719C109.852 14.0213 109.012 14.5135 107.235 14.5283C105.276 14.5456 104.098 13.9075 103.593 12.5607C103.202 11.5145 103.103 10.0824 103.093 5.29149C103.089 2.57077 103.037 0.765209 102.961 0.62299C102.851 0.418937 102.683 0.390492 101.603 0.390492H100.372V5.93333C100.372 11.8645 100.417 12.4408 100.98 13.6824C101.378 14.558 102.546 15.791 103.354 16.1867C104.61 16.8013 105.5 16.9584 107.428 16.9065C109.042 16.8644 109.32 16.8224 110.122 16.5107ZM23.9157 13.0356C23.9454 9.70275 23.9652 9.41708 24.1631 9.40595C24.2806 9.39853 25.9353 9.38492 27.8398 9.37503L31.3025 9.35648L31.3742 7.06861H23.9726L23.8984 6.79035C23.8576 6.637 23.823 5.69094 23.8218 4.68798C23.8205 3.03577 23.8403 2.86263 24.0369 2.85521C24.1557 2.85026 25.9513 2.84779 28.0253 2.85027C30.0992 2.8515 31.8949 2.8243 32.0136 2.78843C32.2003 2.73278 32.23 2.56088 32.23 1.55669V0.390492H21.8554L21.1616 0.987811L21.0998 8.57242C21.0664 12.745 21.0565 16.2856 21.0775 16.4402C21.1171 16.7172 21.1431 16.7222 22.4997 16.6876L23.8824 16.6529L23.9157 13.0356ZM63.9659 15.7873C63.9733 15.3111 63.9523 14.7695 63.9189 14.5827L63.8595 14.2451L55.6652 14.1796L55.5416 0.452327L52.8827 0.381835V15.692L53.1511 16.0321C53.6742 16.6987 53.7669 16.7086 59.0661 16.6801L63.951 16.6529L63.9659 15.7873ZM97.187 16.5293C97.1697 16.4613 97.0164 16.0049 96.8457 15.5164C96.607 14.8301 96.5205 14.2773 96.4673 13.1049C96.4289 12.2676 96.3399 11.3191 96.2707 10.9976C96.095 10.1925 95.5286 9.45047 94.8645 9.15614C93.5886 8.59198 95.7749 7.82681 96.2434 6.84724C96.8816 5.51533 96.7542 3.23735 95.98 2.12062C95.3957 1.27467 94.3987 0.894744 93.5079 0.452327L84.302 0.374415L83.5501 1.1424L83.6144 16.5293L84.8016 16.5639C85.7242 16.5923 86.0222 16.5589 86.1385 16.4192C86.2485 16.2869 86.2856 15.3878 86.277 13.0851C86.272 11.3513 86.3104 9.90928 86.3623 9.88207C86.4155 9.85487 87.6546 9.86599 89.1176 9.90433C91.5712 9.97111 91.8223 9.99832 92.3627 10.2642C93.0206 10.5882 93.4226 11.073 93.5883 11.747C93.6501 11.9968 93.7478 13.0072 93.8047 13.9941C93.8715 15.1417 93.9791 15.9554 94.1052 16.2547L94.3018 16.7222L95.7599 16.6876C96.654 16.6665 97.2056 16.6047 97.187 16.5293ZM127.697 16.4761C127.768 16.3438 127.826 16.1397 127.826 16.0222C127.826 15.9035 128.126 15.0514 128.494 14.1276C128.861 13.2038 129.202 12.2528 129.252 12.0154C129.303 11.7779 129.447 11.3884 129.573 11.1509C129.913 10.5207 129.844 9.68297 130.293 9.11038C130.346 9.04113 130.43 8.76287 130.477 8.4908C130.526 8.21873 130.672 7.81186 130.803 7.58678C131.004 7.24162 131.053 6.86208 131.238 6.5121C131.344 6.30804 131.563 5.75277 131.724 5.27665C131.892 4.7795 132.046 4.49135 132.085 4.59647C132.123 4.69788 132.168 7.45198 132.185 10.7168L132.216 16.6529H134.937L135 0.38431L130.868 0.452327L130.215 2.36919C126.55 13.1247 126.661 12.8167 126.457 12.6906C126.404 12.6572 126.211 12.1724 126.027 11.6122C125.62 10.3852 125.023 9.24783 124.671 7.99612C124.335 6.79752 123.729 5.69585 123.448 4.48393C123.193 3.38667 122.706 2.3604 122.372 1.28709L122.093 0.390492H117.931L117.994 16.5293H120.591L120.624 10.4905C120.647 6.14851 120.694 4.46414 120.792 4.49753C120.956 4.55195 121.166 5.0763 122.2 7.99612C124.666 14.9686 125.193 16.434 125.294 16.5985C125.335 16.6616 125.863 16.7148 126.468 16.7148C127.431 16.7148 127.586 16.6851 127.697 16.4761ZM6.81606 13.8729C6.71589 13.2805 6.90634 12.6424 7.28848 12.2837C8.06512 11.5541 10.5323 10.5276 12.5667 10.0886C13.5968 9.866 17.71 9.20313 18.7167 9.09677C19.1928 9.04731 19.4575 8.96816 19.4093 8.88901C19.3177 8.74185 16.1036 8.8482 15.04 9.03494C14.6666 9.09925 13.8318 9.21673 13.185 9.29465C11.2607 9.52714 8.46333 10.2246 7.33424 10.7539C6.06292 11.3513 5.51754 11.9214 5.51754 12.656C5.51754 13.0987 5.59421 13.2409 6.11857 13.764C6.44877 14.0942 6.75917 14.3651 6.80988 14.3651C6.85935 14.3651 6.86182 14.1437 6.81606 13.8729ZM86.3969 5.14927V2.59674L89.2722 2.64374C92.4381 2.69568 92.7585 2.76122 93.362 3.4785C93.7268 3.91134 93.8826 4.70653 93.7762 5.59942C93.6847 6.36988 93.3953 6.86084 92.7795 7.2875L92.2935 7.62512L86.3969 7.70303V5.14927Z" fill="#153A7A"/>
<path d="M76.6692 36.8288C76.248 36.8288 75.8772 36.728 75.5568 36.5264C75.24 36.3212 74.9916 36.0422 74.8116 35.6894C74.6352 35.333 74.547 34.9316 74.547 34.4852C74.547 34.0388 74.6352 33.6392 74.8116 33.2864C74.9916 32.93 75.24 32.6492 75.5568 32.444C75.8772 32.2388 76.248 32.1362 76.6692 32.1362C76.968 32.1362 77.2326 32.1848 77.463 32.282C77.697 32.3792 77.8842 32.4944 78.0246 32.6276C78.165 32.7608 78.2478 32.8796 78.273 32.984V29.2688H79.65V36.6992H78.2892V35.927C78.2316 36.053 78.1254 36.1862 77.9706 36.3266C77.8158 36.467 77.6268 36.5858 77.4036 36.683C77.1804 36.7802 76.9356 36.8288 76.6692 36.8288ZM77.058 35.738C77.2884 35.738 77.4954 35.6858 77.679 35.5814C77.8626 35.4734 78.0066 35.3258 78.111 35.1386C78.219 34.9478 78.273 34.73 78.273 34.4852C78.273 34.2404 78.219 34.0244 78.111 33.8372C78.0066 33.6464 77.8626 33.497 77.679 33.389C77.4954 33.281 77.2884 33.227 77.058 33.227C76.8456 33.227 76.6512 33.281 76.4748 33.389C76.2984 33.4934 76.1562 33.641 76.0482 33.8318C75.9438 34.019 75.8916 34.2368 75.8916 34.4852C75.8916 34.7336 75.9438 34.9532 76.0482 35.144C76.1562 35.3312 76.2984 35.477 76.4748 35.5814C76.6512 35.6858 76.8456 35.738 77.058 35.738ZM82.4842 36.8288C82.0126 36.8288 81.5914 36.728 81.2206 36.5264C80.8534 36.3248 80.5654 36.0494 80.3566 35.7002C80.1478 35.3474 80.0434 34.946 80.0434 34.496C80.0434 34.046 80.1478 33.6446 80.3566 33.2918C80.5654 32.9354 80.8534 32.6546 81.2206 32.4494C81.5914 32.2406 82.0126 32.1362 82.4842 32.1362C82.9594 32.1362 83.3788 32.2406 83.7424 32.4494C84.106 32.6546 84.3904 32.9354 84.5956 33.2918C84.8008 33.6446 84.9034 34.046 84.9034 34.496C84.9034 34.946 84.8008 35.3474 84.5956 35.7002C84.3904 36.0494 84.106 36.3248 83.7424 36.5264C83.3788 36.728 82.9594 36.8288 82.4842 36.8288ZM82.4842 35.6894C82.711 35.6894 82.9072 35.639 83.0728 35.5382C83.242 35.4338 83.3716 35.2916 83.4616 35.1116C83.5552 34.928 83.602 34.721 83.602 34.4906C83.602 34.2602 83.5552 34.0532 83.4616 33.8696C83.3716 33.686 83.242 33.542 83.0728 33.4376C82.9072 33.3296 82.711 33.2756 82.4842 33.2756C82.2574 33.2756 82.0594 33.3296 81.8902 33.4376C81.7246 33.542 81.595 33.686 81.5014 33.8696C81.4078 34.0532 81.361 34.2602 81.361 34.4906C81.361 34.721 81.4078 34.928 81.5014 35.1116C81.595 35.2916 81.7246 35.4338 81.8902 35.5382C82.0594 35.639 82.2574 35.6894 82.4842 35.6894ZM86.5638 36.8288C86.3226 36.8288 86.1156 36.7424 85.9428 36.5696C85.77 36.3968 85.6836 36.1898 85.6836 35.9486C85.6836 35.7002 85.77 35.4896 85.9428 35.3168C86.1156 35.144 86.3226 35.0576 86.5638 35.0576C86.8122 35.0576 87.021 35.144 87.1902 35.3168C87.363 35.4896 87.4494 35.7002 87.4494 35.9486C87.4494 36.1898 87.363 36.3968 87.1902 36.5696C87.021 36.7424 86.8122 36.8288 86.5638 36.8288ZM92.2279 36.6992H90.8563V32.2658H92.2279V32.984H92.2009C92.2261 32.8976 92.2945 32.7878 92.4061 32.6546C92.5213 32.5214 92.6797 32.4026 92.8813 32.2982C93.0829 32.1902 93.3259 32.1362 93.6103 32.1362C93.8155 32.1362 94.0009 32.1668 94.1665 32.228C94.3357 32.2856 94.4563 32.3432 94.5283 32.4008L93.9883 33.524C93.9415 33.4664 93.8533 33.407 93.7237 33.3458C93.5977 33.2846 93.4393 33.254 93.2485 33.254C93.0217 33.254 92.8327 33.317 92.6815 33.443C92.5303 33.5654 92.4169 33.7166 92.3413 33.8966C92.2657 34.073 92.2279 34.2386 92.2279 34.3934V36.6992ZM94.7919 36.6992V32.2658H96.1581V36.6992H94.7919ZM95.4939 31.121C95.2671 31.121 95.0745 31.0418 94.9161 30.8834C94.7613 30.725 94.6839 30.536 94.6839 30.3164C94.6839 30.0968 94.7631 29.906 94.9215 29.744C95.0799 29.582 95.2707 29.501 95.4939 29.501C95.6415 29.501 95.7765 29.5388 95.8989 29.6144C96.0213 29.6864 96.1203 29.7836 96.1959 29.906C96.2715 30.0284 96.3093 30.1652 96.3093 30.3164C96.3093 30.536 96.2283 30.725 96.0663 30.8834C95.9079 31.0418 95.7171 31.121 95.4939 31.121ZM98.9447 32.1362C99.2111 32.1362 99.4577 32.1614 99.6845 32.2118C99.9113 32.2586 100.102 32.3126 100.257 32.3738C100.415 32.435 100.52 32.4872 100.57 32.5304L100.1 33.3566C100.028 33.299 99.8987 33.2306 99.7115 33.1514C99.5279 33.0722 99.3227 33.0326 99.0959 33.0326C98.8907 33.0326 98.7179 33.0686 98.5775 33.1406C98.4371 33.209 98.3669 33.3134 98.3669 33.4538C98.3669 33.5942 98.4425 33.7058 98.5937 33.7886C98.7449 33.8714 98.9555 33.9434 99.2255 34.0046C99.4523 34.0514 99.6755 34.1234 99.8951 34.2206C100.115 34.3142 100.297 34.451 100.441 34.631C100.585 34.8074 100.657 35.0432 100.657 35.3384C100.657 35.63 100.594 35.873 100.468 36.0674C100.345 36.2582 100.181 36.4094 99.9761 36.521C99.7709 36.6326 99.5459 36.7118 99.3011 36.7586C99.0563 36.8054 98.8133 36.8288 98.5721 36.8288C98.2589 36.8288 97.9835 36.7982 97.7459 36.737C97.5083 36.6794 97.3121 36.6128 97.1573 36.5372C97.0061 36.458 96.8981 36.3914 96.8333 36.3374L97.3031 35.4194C97.3967 35.5022 97.5497 35.594 97.7621 35.6948C97.9781 35.792 98.2103 35.8406 98.4587 35.8406C98.7179 35.8406 98.9213 35.7956 99.0689 35.7056C99.2201 35.6156 99.2957 35.495 99.2957 35.3438C99.2957 35.2322 99.2597 35.1422 99.1877 35.0738C99.1157 35.0018 99.0167 34.9424 98.8907 34.8956C98.7647 34.8488 98.6171 34.8074 98.4479 34.7714C98.2931 34.739 98.1347 34.6922 97.9727 34.631C97.8107 34.5662 97.6595 34.4816 97.5191 34.3772C97.3787 34.2728 97.2653 34.1432 97.1789 33.9884C97.0925 33.83 97.0493 33.641 97.0493 33.4214C97.0493 33.1406 97.1393 32.9066 97.3193 32.7194C97.4993 32.5286 97.7333 32.3846 98.0213 32.2874C98.3093 32.1866 98.6171 32.1362 98.9447 32.1362ZM104.198 32.2658H105.775L103.609 34.3826L105.969 36.6992H104.355L102.513 34.847V36.6992H101.142V29.2688H102.513V33.8912L104.198 32.2658ZM107.232 36.8288C106.991 36.8288 106.784 36.7424 106.611 36.5696C106.438 36.3968 106.352 36.1898 106.352 35.9486C106.352 35.7002 106.438 35.4896 106.611 35.3168C106.784 35.144 106.991 35.0576 107.232 35.0576C107.481 35.0576 107.689 35.144 107.859 35.3168C108.031 35.4896 108.118 35.7002 108.118 35.9486C108.118 36.1898 108.031 36.3968 107.859 36.5696C107.689 36.7424 107.481 36.8288 107.232 36.8288ZM113.863 39.0698C113.539 39.0698 113.228 39.0392 112.929 38.978C112.634 38.9168 112.365 38.8214 112.124 38.6918C111.883 38.5622 111.681 38.393 111.519 38.1842L112.351 37.3418C112.427 37.439 112.524 37.5362 112.643 37.6334C112.765 37.7342 112.92 37.817 113.107 37.8818C113.294 37.9502 113.528 37.9844 113.809 37.9844C114.075 37.9844 114.304 37.9322 114.495 37.8278C114.689 37.727 114.839 37.583 114.943 37.3958C115.051 37.2086 115.105 36.9908 115.105 36.7424V36.6182H116.45V36.8234C116.45 37.313 116.334 37.7252 116.104 38.06C115.874 38.3948 115.564 38.6468 115.175 38.816C114.786 38.9852 114.349 39.0698 113.863 39.0698ZM115.105 36.6992V35.927C115.073 36.0062 114.99 36.1178 114.857 36.2618C114.723 36.4058 114.543 36.5372 114.317 36.656C114.093 36.7712 113.831 36.8288 113.528 36.8288C113.103 36.8288 112.727 36.728 112.4 36.5264C112.072 36.3212 111.815 36.0422 111.627 35.6894C111.444 35.333 111.352 34.9316 111.352 34.4852C111.352 34.0388 111.444 33.6392 111.627 33.2864C111.815 32.93 112.072 32.6492 112.4 32.444C112.727 32.2388 113.103 32.1362 113.528 32.1362C113.823 32.1362 114.079 32.1866 114.295 32.2874C114.515 32.3846 114.691 32.4998 114.824 32.633C114.961 32.7626 115.049 32.8796 115.089 32.984V32.2658H116.45V36.6992H115.105ZM112.697 34.4852C112.697 34.7336 112.752 34.9532 112.864 35.144C112.976 35.3312 113.123 35.477 113.307 35.5814C113.49 35.6858 113.69 35.738 113.906 35.738C114.133 35.738 114.335 35.6858 114.511 35.5814C114.687 35.4734 114.826 35.3258 114.927 35.1386C115.031 34.9478 115.083 34.73 115.083 34.4852C115.083 34.2404 115.031 34.0244 114.927 33.8372C114.826 33.6464 114.687 33.497 114.511 33.389C114.335 33.281 114.133 33.227 113.906 33.227C113.69 33.227 113.49 33.281 113.307 33.389C113.123 33.4934 112.976 33.641 112.864 33.8318C112.752 34.019 112.697 34.2368 112.697 34.4852ZM118.552 36.6992H117.181V32.2658H118.552V32.984H118.525C118.551 32.8976 118.619 32.7878 118.731 32.6546C118.846 32.5214 119.004 32.4026 119.206 32.2982C119.407 32.1902 119.65 32.1362 119.935 32.1362C120.14 32.1362 120.325 32.1668 120.491 32.228C120.66 32.2856 120.781 32.3432 120.853 32.4008L120.313 33.524C120.266 33.4664 120.178 33.407 120.048 33.3458C119.922 33.2846 119.764 33.254 119.573 33.254C119.346 33.254 119.157 33.317 119.006 33.443C118.855 33.5654 118.741 33.7166 118.666 33.8966C118.59 34.073 118.552 34.2386 118.552 34.3934V36.6992ZM123.112 36.8288C122.64 36.8288 122.219 36.728 121.848 36.5264C121.481 36.3248 121.193 36.0494 120.984 35.7002C120.775 35.3474 120.671 34.946 120.671 34.496C120.671 34.046 120.775 33.6446 120.984 33.2918C121.193 32.9354 121.481 32.6546 121.848 32.4494C122.219 32.2406 122.64 32.1362 123.112 32.1362C123.587 32.1362 124.006 32.2406 124.37 32.4494C124.733 32.6546 125.018 32.9354 125.223 33.2918C125.428 33.6446 125.531 34.046 125.531 34.496C125.531 34.946 125.428 35.3474 125.223 35.7002C125.018 36.0494 124.733 36.3248 124.37 36.5264C124.006 36.728 123.587 36.8288 123.112 36.8288ZM123.112 35.6894C123.338 35.6894 123.535 35.639 123.7 35.5382C123.869 35.4338 123.999 35.2916 124.089 35.1116C124.183 34.928 124.229 34.721 124.229 34.4906C124.229 34.2602 124.183 34.0532 124.089 33.8696C123.999 33.686 123.869 33.542 123.7 33.4376C123.535 33.3296 123.338 33.2756 123.112 33.2756C122.885 33.2756 122.687 33.3296 122.518 33.4376C122.352 33.542 122.222 33.686 122.129 33.8696C122.035 34.0532 121.988 34.2602 121.988 34.4906C121.988 34.721 122.035 34.928 122.129 35.1116C122.222 35.2916 122.352 35.4338 122.518 35.5382C122.687 35.639 122.885 35.6894 123.112 35.6894ZM129.351 33.8426L128.282 36.6992H126.981L125.614 32.2658H127.072L127.818 35.225L128.871 32.3522H129.837L130.879 35.225L131.63 32.2658H133.088L131.727 36.6992H130.426L129.351 33.8426ZM134.471 36.8288C134.23 36.8288 134.023 36.7424 133.85 36.5696C133.678 36.3968 133.591 36.1898 133.591 35.9486C133.591 35.7002 133.678 35.4896 133.85 35.3168C134.023 35.144 134.23 35.0576 134.471 35.0576C134.72 35.0576 134.929 35.144 135.098 35.3168C135.271 35.4896 135.357 35.7002 135.357 35.9486C135.357 36.1898 135.271 36.3968 135.098 36.5696C134.929 36.7424 134.72 36.8288 134.471 36.8288Z" fill="#153A7A"/>
</g>
<defs>
<clipPath id="clip0_5965_8932">
<rect width="135" height="40.5" fill="white"/>
</clipPath>
</defs>
</svg>
