<svg width="133" height="133" viewBox="0 0 133 133" fill="none" xmlns="http://www.w3.org/2000/svg">
<g filter="url(#filter0_d_1247_12536)">
<g clip-path="url(#clip0_1247_12536)">
<rect x="5" y="3" width="123" height="123" rx="16" fill="white"/>
<path d="M22.11 94.8H25.08L30.29 108H27.1L26.14 105.35H21.06L20.09 108H16.89L22.11 94.8ZM22.06 102.73H25.15L23.62 98.4H23.59L22.06 102.73ZM35.8056 105.85C36.1856 105.85 36.499 105.787 36.7456 105.66C36.9923 105.527 37.159 105.42 37.2456 105.34L38.6356 107.4C38.529 107.487 38.3456 107.6 38.0856 107.74C37.8256 107.873 37.499 107.99 37.1056 108.09C36.719 108.19 36.2756 108.24 35.7756 108.24C34.8356 108.24 34.009 108.063 33.2956 107.71C32.5823 107.35 32.0256 106.843 31.6256 106.19C31.2323 105.537 31.0356 104.77 31.0356 103.89C31.0356 103.003 31.2323 102.237 31.6256 101.59C32.0256 100.943 32.5823 100.443 33.2956 100.09C34.009 99.73 34.8356 99.55 35.7756 99.55C36.269 99.55 36.709 99.6033 37.0956 99.71C37.489 99.81 37.819 99.9267 38.0856 100.06C38.3523 100.187 38.539 100.297 38.6456 100.39L37.2256 102.47C37.179 102.423 37.0923 102.357 36.9656 102.27C36.8456 102.183 36.689 102.107 36.4956 102.04C36.3023 101.973 36.0723 101.94 35.8056 101.94C35.479 101.94 35.1723 102.023 34.8856 102.19C34.6056 102.357 34.379 102.587 34.2056 102.88C34.0323 103.173 33.9456 103.51 33.9456 103.89C33.9456 104.27 34.0323 104.61 34.2056 104.91C34.379 105.203 34.6056 105.433 34.8856 105.6C35.1723 105.767 35.479 105.85 35.8056 105.85ZM39.0931 99.79H40.4931V96.42H43.5031V99.79H45.3431V102.29H43.5031V104.58C43.5031 104.92 43.5531 105.197 43.6531 105.41C43.7531 105.617 43.9365 105.72 44.2031 105.72C44.3831 105.72 44.5365 105.68 44.6631 105.6C44.7898 105.52 44.8665 105.467 44.8931 105.44L45.9331 107.6C45.8865 107.64 45.7398 107.713 45.4931 107.82C45.2531 107.927 44.9465 108.023 44.5731 108.11C44.1998 108.197 43.7831 108.24 43.3231 108.24C42.5031 108.24 41.8265 108.01 41.2931 107.55C40.7598 107.083 40.4931 106.367 40.4931 105.4V102.29H39.0931V99.79ZM47.1588 108V99.79H50.1988V108H47.1588ZM48.7188 98.1C48.2388 98.1 47.8321 97.9333 47.4988 97.6C47.1654 97.26 46.9988 96.8567 46.9988 96.39C46.9988 95.9233 47.1654 95.52 47.4988 95.18C47.8388 94.8333 48.2454 94.66 48.7188 94.66C49.0321 94.66 49.3188 94.74 49.5788 94.9C49.8388 95.0533 50.0488 95.26 50.2088 95.52C50.3688 95.78 50.4488 96.07 50.4488 96.39C50.4488 96.8567 50.2788 97.26 49.9388 97.6C49.5988 97.9333 49.1921 98.1 48.7188 98.1ZM51.5531 99.79H54.8031L56.7831 105.24L58.7731 99.79H62.0031L58.5631 108H55.0031L51.5531 99.79ZM65.6506 104.54C65.6706 104.833 65.764 105.093 65.9306 105.32C66.0973 105.547 66.3273 105.727 66.6206 105.86C66.9206 105.987 67.274 106.05 67.6806 106.05C68.0673 106.05 68.414 106.01 68.7206 105.93C69.034 105.85 69.304 105.75 69.5306 105.63C69.764 105.51 69.944 105.387 70.0706 105.26L71.2506 107.14C71.084 107.32 70.8473 107.497 70.5406 107.67C70.2406 107.837 69.844 107.973 69.3506 108.08C68.8573 108.187 68.234 108.24 67.4806 108.24C66.574 108.24 65.7673 108.07 65.0606 107.73C64.354 107.39 63.7973 106.89 63.3906 106.23C62.984 105.57 62.7806 104.763 62.7806 103.81C62.7806 103.01 62.954 102.29 63.3006 101.65C63.654 101.003 64.164 100.493 64.8306 100.12C65.4973 99.74 66.3006 99.55 67.2406 99.55C68.134 99.55 68.9073 99.7133 69.5606 100.04C70.2206 100.367 70.7273 100.853 71.0806 101.5C71.4406 102.14 71.6206 102.94 71.6206 103.9C71.6206 103.953 71.6173 104.06 71.6106 104.22C71.6106 104.38 71.604 104.487 71.5906 104.54H65.6506ZM68.7606 102.95C68.754 102.737 68.6973 102.527 68.5906 102.32C68.484 102.107 68.324 101.933 68.1106 101.8C67.8973 101.66 67.624 101.59 67.2906 101.59C66.9573 101.59 66.674 101.657 66.4406 101.79C66.214 101.917 66.0406 102.083 65.9206 102.29C65.8006 102.497 65.734 102.717 65.7206 102.95H68.7606Z" fill="#FF6B6B"/>
<path d="M93.5832 47.7207L115.515 38.4785L115.874 100.616L100.923 65.1378L78.9908 74.38L78.6324 12.2422L93.5832 47.7207Z" fill="url(#paint0_radial_1247_12536)"/>
<g style="mix-blend-mode:multiply">
<path d="M95.1934 61.0999H88.9074C88.9035 61.0999 88.9004 61.1029 88.9004 61.1067C88.905 62.1841 89.993 63.8999 92.0504 63.8999C94.1068 63.8999 95.1947 61.9715 95.2004 61.1066C95.2004 61.1027 95.1973 61.0999 95.1934 61.0999Z" fill="#C44E4E"/>
</g>
<g style="mix-blend-mode:multiply">
<path d="M99.3657 58.1748C98.9508 57.5381 98.1229 56.9021 96.6772 56.9047C95.2315 56.9074 94.4071 57.5463 93.9959 58.1845" stroke="#C44E4E" stroke-width="1.4" stroke-linecap="round"/>
</g>
<g style="mix-blend-mode:multiply">
<path d="M90.7744 58.1904C90.3595 57.5537 89.5316 56.9178 88.0859 56.9204C86.6402 56.923 85.8158 57.5619 85.4046 58.2001" stroke="#C44E4E" stroke-width="1.4" stroke-linecap="round"/>
</g>
<path d="M54.6649 71.6361L62.2263 62.448L76.8258 89.8733L61.9619 77.6411L54.3999 86.83L39.801 59.4039L54.6649 71.6361Z" fill="url(#paint1_radial_1247_12536)"/>
</g>
<rect x="5.5" y="3.5" width="122" height="122" rx="15.5" stroke="#EBEBEB"/>
</g>
<defs>
<filter id="filter0_d_1247_12536" x="0" y="0" width="133" height="133" filterUnits="userSpaceOnUse" color-interpolation-filters="sRGB">
<feFlood flood-opacity="0" result="BackgroundImageFix"/>
<feColorMatrix in="SourceAlpha" type="matrix" values="0 0 0 0 0 0 0 0 0 0 0 0 0 0 0 0 0 0 127 0" result="hardAlpha"/>
<feOffset dy="2"/>
<feGaussianBlur stdDeviation="2.5"/>
<feColorMatrix type="matrix" values="0 0 0 0 0 0 0 0 0 0 0 0 0 0 0 0 0 0 0.05 0"/>
<feBlend mode="normal" in2="BackgroundImageFix" result="effect1_dropShadow_1247_12536"/>
<feBlend mode="normal" in="SourceGraphic" in2="effect1_dropShadow_1247_12536" result="shape"/>
</filter>
<radialGradient id="paint0_radial_1247_12536" cx="0" cy="0" r="1" gradientTransform="matrix(14.35 27.3001 -13.5502 7.12258 92.4004 60.7501)" gradientUnits="userSpaceOnUse">
<stop stop-color="#FF6B6B"/>
<stop offset="1" stop-color="#FF8D8D"/>
</radialGradient>
<radialGradient id="paint1_radial_1247_12536" cx="0" cy="0" r="1" gradientTransform="matrix(8.92977 8.56805 -5.15713 3.53998 58.224 75.0796)" gradientUnits="userSpaceOnUse">
<stop stop-color="#FF8D8D"/>
<stop offset="1" stop-color="#FF6B6B"/>
</radialGradient>
<clipPath id="clip0_1247_12536">
<rect x="5" y="3" width="123" height="123" rx="16" fill="white"/>
</clipPath>
</defs>
</svg>
