<svg width="133" height="133" viewBox="0 0 133 133" fill="none" xmlns="http://www.w3.org/2000/svg">
<g filter="url(#filter0_d_1247_12509)">
<g clip-path="url(#clip0_1247_12509)">
<rect x="5" y="3" width="123" height="123" rx="16" fill="white"/>
<path d="M24.82 105.28C25.4333 105.28 25.99 105.19 26.49 105.01C26.9967 104.83 27.3733 104.653 27.62 104.48L28.9 107.02C28.5867 107.287 28.05 107.557 27.29 107.83C26.5367 108.103 25.64 108.24 24.6 108.24C23.6267 108.24 22.7133 108.07 21.86 107.73C21.0067 107.39 20.2533 106.913 19.6 106.3C18.9533 105.68 18.4433 104.957 18.07 104.13C17.7033 103.297 17.52 102.393 17.52 101.42C17.52 100.447 17.7033 99.5433 18.07 98.71C18.4367 97.87 18.9433 97.14 19.59 96.52C20.2433 95.9 20.9967 95.42 21.85 95.08C22.71 94.7333 23.6267 94.56 24.6 94.56C25.64 94.56 26.5367 94.6967 27.29 94.97C28.05 95.2433 28.5867 95.5133 28.9 95.78L27.62 98.32C27.3733 98.14 26.9967 97.9633 26.49 97.79C25.99 97.61 25.4333 97.52 24.82 97.52C24.14 97.52 23.5467 97.6267 23.04 97.84C22.5333 98.0467 22.11 98.3333 21.77 98.7C21.43 99.0667 21.1767 99.48 21.01 99.94C20.8433 100.4 20.76 100.883 20.76 101.39C20.76 101.903 20.8433 102.393 21.01 102.86C21.1767 103.32 21.43 103.733 21.77 104.1C22.11 104.467 22.5333 104.757 23.04 104.97C23.5467 105.177 24.14 105.28 24.82 105.28ZM34.9106 108.24C34.0106 108.24 33.2106 108.057 32.5106 107.69C31.8173 107.317 31.2706 106.807 30.8706 106.16C30.4773 105.507 30.2806 104.76 30.2806 103.92C30.2806 103.08 30.4773 102.333 30.8706 101.68C31.2706 101.02 31.8173 100.5 32.5106 100.12C33.2106 99.74 34.0106 99.55 34.9106 99.55C35.8106 99.55 36.604 99.74 37.2906 100.12C37.9773 100.5 38.514 101.02 38.9006 101.68C39.2873 102.333 39.4806 103.08 39.4806 103.92C39.4806 104.76 39.2873 105.507 38.9006 106.16C38.514 106.807 37.9773 107.317 37.2906 107.69C36.604 108.057 35.8106 108.24 34.9106 108.24ZM34.9106 105.74C35.2573 105.74 35.5573 105.663 35.8106 105.51C36.064 105.357 36.2606 105.14 36.4006 104.86C36.5406 104.58 36.6106 104.263 36.6106 103.91C36.6106 103.55 36.5406 103.23 36.4006 102.95C36.2606 102.67 36.064 102.45 35.8106 102.29C35.5573 102.13 35.2573 102.05 34.9106 102.05C34.564 102.05 34.2606 102.13 34.0006 102.29C33.7473 102.45 33.5473 102.67 33.4006 102.95C33.2606 103.23 33.1906 103.55 33.1906 103.91C33.1906 104.263 33.2606 104.58 33.4006 104.86C33.5473 105.14 33.7473 105.357 34.0006 105.51C34.2606 105.663 34.564 105.74 34.9106 105.74ZM46.7127 99.55C47.286 99.55 47.846 99.6667 48.3927 99.9C48.9393 100.133 49.3893 100.503 49.7427 101.01C50.096 101.51 50.2727 102.17 50.2727 102.99V108H47.2227V103.49C47.2227 102.903 47.0827 102.463 46.8027 102.17C46.5227 101.87 46.156 101.72 45.7027 101.72C45.4027 101.72 45.1193 101.8 44.8527 101.96C44.5927 102.113 44.3793 102.333 44.2127 102.62C44.0527 102.9 43.9727 103.223 43.9727 103.59V108H40.9327V99.79H43.9727V101C44.0527 100.78 44.2193 100.56 44.4727 100.34C44.7327 100.113 45.056 99.9267 45.4427 99.78C45.836 99.6267 46.2593 99.55 46.7127 99.55ZM57.6892 99.55C58.2626 99.55 58.8226 99.6667 59.3692 99.9C59.9159 100.133 60.3659 100.503 60.7192 101.01C61.0726 101.51 61.2492 102.17 61.2492 102.99V108H58.1992V103.49C58.1992 102.903 58.0592 102.463 57.7792 102.17C57.4992 101.87 57.1326 101.72 56.6792 101.72C56.3792 101.72 56.0959 101.8 55.8292 101.96C55.5692 102.113 55.3559 102.333 55.1892 102.62C55.0292 102.9 54.9492 103.223 54.9492 103.59V108H51.9092V99.79H54.9492V101C55.0292 100.78 55.1959 100.56 55.4492 100.34C55.7092 100.113 56.0326 99.9267 56.4192 99.78C56.8126 99.6267 57.2359 99.55 57.6892 99.55ZM65.4358 104.54C65.4558 104.833 65.5491 105.093 65.7158 105.32C65.8824 105.547 66.1124 105.727 66.4058 105.86C66.7058 105.987 67.0591 106.05 67.4658 106.05C67.8524 106.05 68.1991 106.01 68.5058 105.93C68.8191 105.85 69.0891 105.75 69.3158 105.63C69.5491 105.51 69.7291 105.387 69.8558 105.26L71.0358 107.14C70.8691 107.32 70.6324 107.497 70.3258 107.67C70.0258 107.837 69.6291 107.973 69.1358 108.08C68.6424 108.187 68.0191 108.24 67.2658 108.24C66.3591 108.24 65.5524 108.07 64.8458 107.73C64.1391 107.39 63.5824 106.89 63.1758 106.23C62.7691 105.57 62.5658 104.763 62.5658 103.81C62.5658 103.01 62.7391 102.29 63.0858 101.65C63.4391 101.003 63.9491 100.493 64.6158 100.12C65.2824 99.74 66.0858 99.55 67.0258 99.55C67.9191 99.55 68.6924 99.7133 69.3458 100.04C70.0058 100.367 70.5124 100.853 70.8658 101.5C71.2258 102.14 71.4058 102.94 71.4058 103.9C71.4058 103.953 71.4024 104.06 71.3958 104.22C71.3958 104.38 71.3891 104.487 71.3758 104.54H65.4358ZM68.5458 102.95C68.5391 102.737 68.4824 102.527 68.3758 102.32C68.2691 102.107 68.1091 101.933 67.8958 101.8C67.6824 101.66 67.4091 101.59 67.0758 101.59C66.7424 101.59 66.4591 101.657 66.2258 101.79C65.9991 101.917 65.8258 102.083 65.7058 102.29C65.5858 102.497 65.5191 102.717 65.5058 102.95H68.5458ZM77.4267 105.85C77.8067 105.85 78.1201 105.787 78.3667 105.66C78.6134 105.527 78.7801 105.42 78.8667 105.34L80.2567 107.4C80.1501 107.487 79.9667 107.6 79.7067 107.74C79.4467 107.873 79.1201 107.99 78.7267 108.09C78.3401 108.19 77.8967 108.24 77.3967 108.24C76.4567 108.24 75.6301 108.063 74.9167 107.71C74.2034 107.35 73.6467 106.843 73.2467 106.19C72.8534 105.537 72.6567 104.77 72.6567 103.89C72.6567 103.003 72.8534 102.237 73.2467 101.59C73.6467 100.943 74.2034 100.443 74.9167 100.09C75.6301 99.73 76.4567 99.55 77.3967 99.55C77.8901 99.55 78.3301 99.6033 78.7167 99.71C79.1101 99.81 79.4401 99.9267 79.7067 100.06C79.9734 100.187 80.1601 100.297 80.2667 100.39L78.8467 102.47C78.8001 102.423 78.7134 102.357 78.5867 102.27C78.4667 102.183 78.3101 102.107 78.1167 102.04C77.9234 101.973 77.6934 101.94 77.4267 101.94C77.1001 101.94 76.7934 102.023 76.5067 102.19C76.2267 102.357 76.0001 102.587 75.8267 102.88C75.6534 103.173 75.5667 103.51 75.5667 103.89C75.5667 104.27 75.6534 104.61 75.8267 104.91C76.0001 105.203 76.2267 105.433 76.5067 105.6C76.7934 105.767 77.1001 105.85 77.4267 105.85ZM80.7142 99.79H82.1142V96.42H85.1242V99.79H86.9642V102.29H85.1242V104.58C85.1242 104.92 85.1742 105.197 85.2742 105.41C85.3742 105.617 85.5576 105.72 85.8242 105.72C86.0042 105.72 86.1576 105.68 86.2842 105.6C86.4109 105.52 86.4876 105.467 86.5142 105.44L87.5542 107.6C87.5076 107.64 87.3609 107.713 87.1142 107.82C86.8742 107.927 86.5676 108.023 86.1942 108.11C85.8209 108.197 85.4042 108.24 84.9442 108.24C84.1242 108.24 83.4476 108.01 82.9142 107.55C82.3809 107.083 82.1142 106.367 82.1142 105.4V102.29H80.7142V99.79ZM88.7798 108V99.79H91.8198V108H88.7798ZM90.3398 98.1C89.8598 98.1 89.4532 97.9333 89.1198 97.6C88.7865 97.26 88.6198 96.8567 88.6198 96.39C88.6198 95.9233 88.7865 95.52 89.1198 95.18C89.4598 94.8333 89.8665 94.66 90.3398 94.66C90.6532 94.66 90.9398 94.74 91.1998 94.9C91.4598 95.0533 91.6698 95.26 91.8298 95.52C91.9898 95.78 92.0698 96.07 92.0698 96.39C92.0698 96.8567 91.8998 97.26 91.5598 97.6C91.2198 97.9333 90.8132 98.1 90.3398 98.1ZM98.0942 108.24C97.1942 108.24 96.3942 108.057 95.6942 107.69C95.0009 107.317 94.4542 106.807 94.0542 106.16C93.6609 105.507 93.4642 104.76 93.4642 103.92C93.4642 103.08 93.6609 102.333 94.0542 101.68C94.4542 101.02 95.0009 100.5 95.6942 100.12C96.3942 99.74 97.1942 99.55 98.0942 99.55C98.9942 99.55 99.7876 99.74 100.474 100.12C101.161 100.5 101.698 101.02 102.084 101.68C102.471 102.333 102.664 103.08 102.664 103.92C102.664 104.76 102.471 105.507 102.084 106.16C101.698 106.807 101.161 107.317 100.474 107.69C99.7876 108.057 98.9942 108.24 98.0942 108.24ZM98.0942 105.74C98.4409 105.74 98.7409 105.663 98.9942 105.51C99.2476 105.357 99.4442 105.14 99.5842 104.86C99.7242 104.58 99.7942 104.263 99.7942 103.91C99.7942 103.55 99.7242 103.23 99.5842 102.95C99.4442 102.67 99.2476 102.45 98.9942 102.29C98.7409 102.13 98.4409 102.05 98.0942 102.05C97.7476 102.05 97.4442 102.13 97.1842 102.29C96.9309 102.45 96.7309 102.67 96.5842 102.95C96.4442 103.23 96.3742 103.55 96.3742 103.91C96.3742 104.263 96.4442 104.58 96.5842 104.86C96.7309 105.14 96.9309 105.357 97.1842 105.51C97.4442 105.663 97.7476 105.74 98.0942 105.74ZM109.896 99.55C110.47 99.55 111.03 99.6667 111.576 99.9C112.123 100.133 112.573 100.503 112.926 101.01C113.28 101.51 113.456 102.17 113.456 102.99V108H110.406V103.49C110.406 102.903 110.266 102.463 109.986 102.17C109.706 101.87 109.34 101.72 108.886 101.72C108.586 101.72 108.303 101.8 108.036 101.96C107.776 102.113 107.563 102.333 107.396 102.62C107.236 102.9 107.156 103.223 107.156 103.59V108H104.116V99.79H107.156V101C107.236 100.78 107.403 100.56 107.656 100.34C107.916 100.113 108.24 99.9267 108.626 99.78C109.02 99.6267 109.443 99.55 109.896 99.55Z" fill="#72CF1A"/>
<path d="M92.2075 27.7624C93.6908 32.4837 98.6794 35.1799 103.458 33.7979C108.237 32.4155 111.017 27.4723 109.751 22.6881L120.779 19.4986L123.85 30.1171C123.782 30.1351 123.712 30.1518 123.644 30.1715C118.797 31.5735 116.004 36.6398 117.406 41.4871C118.808 46.3342 123.874 49.1265 128.721 47.7245C128.789 47.7048 128.856 47.6809 128.924 47.6597L132.114 58.6882L121.494 61.7597C121.515 61.8269 121.539 61.8936 121.559 61.9616C122.961 66.8088 120.168 71.8751 115.32 73.2772C110.473 74.6792 105.407 71.8861 104.005 67.0388C103.985 66.9708 103.969 66.9021 103.951 66.8339L92.9241 70.0232L89.7345 58.9957C89.667 59.0169 89.6 59.0407 89.5316 59.0605C84.6845 60.4624 79.6182 57.6692 78.216 52.8221C76.8141 47.9749 79.6072 42.9086 84.4544 41.5066C84.5227 41.4868 84.5919 41.4702 84.6603 41.4521L81.589 30.8336L92.2075 27.7624Z" fill="url(#paint0_radial_1247_12509)"/>
<g style="mix-blend-mode:multiply">
<path d="M109.57 37.3388C109.433 38.042 108.982 38.836 107.883 39.1538C106.784 39.4717 105.979 39.041 105.488 38.5195" stroke="#50A102" stroke-width="1.4" stroke-linecap="round"/>
</g>
<g style="mix-blend-mode:multiply">
<path d="M112.438 39.6058C111.484 40.5451 109.551 43.0952 105.594 44.2395C101.638 45.3839 99.0494 44.1418 97.7418 43.8565" stroke="#50A102" stroke-width="1.4" stroke-linecap="round"/>
</g>
<g style="mix-blend-mode:multiply">
<path d="M103.038 39.2278C102.901 39.931 102.451 40.725 101.352 41.0429C100.252 41.3607 99.4473 40.9301 98.9561 40.4086" stroke="#50A102" stroke-width="1.4" stroke-linecap="round"/>
</g>
<path d="M50.2111 30.1769C55.0584 28.7749 60.1247 31.568 61.5267 36.4153C61.5464 36.4833 61.5629 36.5521 61.5809 36.6202L65.8831 35.3759C69.5965 34.3023 73.4782 36.442 74.5524 40.1553L75.6787 44.0494C75.6106 44.0674 75.5408 44.0842 75.4728 44.1039C70.6258 45.506 67.8336 50.5721 69.2354 55.4192C70.6375 60.2661 75.703 63.0595 80.55 61.6578C80.618 61.6381 80.6858 61.6141 80.7529 61.593L81.9975 65.8961C83.0714 69.6095 80.9313 73.491 77.2181 74.5654L72.9159 75.8098C72.8979 75.7415 72.8812 75.6721 72.8615 75.6039C71.4593 70.757 66.3929 67.9639 61.5459 69.3656C56.699 70.7677 53.9068 75.8338 55.3085 80.6809C55.3282 80.7491 55.3511 80.8166 55.3723 80.884L51.4782 82.0103C47.7646 83.0845 43.8832 80.9445 42.8089 77.2309L41.5643 72.9278C41.4967 72.949 41.4298 72.9728 41.3614 72.9926C36.5141 74.3946 31.4479 71.6015 30.0458 66.7542C28.6439 61.907 31.437 56.8406 36.2842 55.4386C36.3526 55.4189 36.4216 55.4023 36.4901 55.3842L35.3637 51.4901C34.2897 47.7764 36.4295 43.8949 40.1432 42.8208L44.0363 41.6947C44.0152 41.6275 43.9925 41.5606 43.9728 41.4925C42.5708 36.6452 45.3639 31.579 50.2111 30.1769Z" fill="url(#paint1_radial_1247_12509)"/>
<g style="mix-blend-mode:multiply">
<path d="M55.0808 64.6006C54.9439 65.3038 54.493 66.0978 53.394 66.4157C52.295 66.7335 51.4897 66.3029 50.9986 65.7814" stroke="#9DAD3A" stroke-width="1.4" stroke-linecap="round"/>
</g>
<g style="mix-blend-mode:multiply">
<circle cx="47.0238" cy="64.2767" r="1.69982" transform="rotate(-16.1318 47.0238 64.2767)" fill="#9DAD3A"/>
</g>
<g style="mix-blend-mode:multiply">
<circle cx="57.6379" cy="61.2067" r="1.69982" transform="rotate(-16.1318 57.6379 61.2067)" fill="#9DAD3A"/>
</g>
</g>
<rect x="5.5" y="3.5" width="122" height="122" rx="15.5" stroke="#EBEBEB"/>
</g>
<defs>
<filter id="filter0_d_1247_12509" x="0" y="0" width="133" height="133" filterUnits="userSpaceOnUse" color-interpolation-filters="sRGB">
<feFlood flood-opacity="0" result="BackgroundImageFix"/>
<feColorMatrix in="SourceAlpha" type="matrix" values="0 0 0 0 0 0 0 0 0 0 0 0 0 0 0 0 0 0 127 0" result="hardAlpha"/>
<feOffset dy="2"/>
<feGaussianBlur stdDeviation="2.5"/>
<feColorMatrix type="matrix" values="0 0 0 0 0 0 0 0 0 0 0 0 0 0 0 0 0 0 0.05 0"/>
<feBlend mode="normal" in2="BackgroundImageFix" result="effect1_dropShadow_1247_12509"/>
<feBlend mode="normal" in="SourceGraphic" in2="effect1_dropShadow_1247_12509" result="shape"/>
</filter>
<radialGradient id="paint0_radial_1247_12509" cx="0" cy="0" r="1" gradientTransform="matrix(6.72913 37.1973 -37.198 6.72941 105.49 42.9488)" gradientUnits="userSpaceOnUse">
<stop stop-color="#72CF1A"/>
<stop offset="1" stop-color="#A9F561"/>
</radialGradient>
<radialGradient id="paint1_radial_1247_12509" cx="0" cy="0" r="1" gradientUnits="userSpaceOnUse" gradientTransform="translate(51.5898 63.2488) rotate(63.1591) scale(18.3105)">
<stop stop-color="#D9E877"/>
<stop offset="1" stop-color="#EAF3B2"/>
</radialGradient>
<clipPath id="clip0_1247_12509">
<rect x="5" y="3" width="123" height="123" rx="16" fill="white"/>
</clipPath>
</defs>
</svg>
