<svg width="133" height="133" viewBox="0 0 133 133" fill="none" xmlns="http://www.w3.org/2000/svg">
<g filter="url(#filter0_d_1247_12568)">
<rect x="5" y="3" width="123" height="123" rx="16" fill="white"/>
<rect x="5.5" y="3.5" width="122" height="122" rx="15.5" stroke="#EBEBEB"/>
<path d="M17.86 94.8H21.83C23.2367 94.8 24.4 95.0833 25.32 95.65C26.2467 96.21 26.94 96.9867 27.4 97.98C27.86 98.9733 28.09 100.11 28.09 101.39C28.09 102.677 27.86 103.817 27.4 104.81C26.94 105.803 26.2467 106.583 25.32 107.15C24.4 107.717 23.2367 108 21.83 108H17.86V94.8ZM20.84 97.45V105.35H21.56C22.3133 105.35 22.9367 105.18 23.43 104.84C23.9233 104.493 24.2933 104.023 24.54 103.43C24.7933 102.83 24.92 102.157 24.92 101.41C24.92 100.657 24.7967 99.9833 24.55 99.39C24.31 98.79 23.94 98.3167 23.44 97.97C22.94 97.6233 22.3133 97.45 21.56 97.45H20.84ZM32.2717 104.54C32.2917 104.833 32.3851 105.093 32.5517 105.32C32.7184 105.547 32.9484 105.727 33.2417 105.86C33.5417 105.987 33.8951 106.05 34.3017 106.05C34.6884 106.05 35.0351 106.01 35.3417 105.93C35.6551 105.85 35.9251 105.75 36.1517 105.63C36.3851 105.51 36.5651 105.387 36.6917 105.26L37.8717 107.14C37.7051 107.32 37.4684 107.497 37.1617 107.67C36.8617 107.837 36.4651 107.973 35.9717 108.08C35.4784 108.187 34.8551 108.24 34.1017 108.24C33.1951 108.24 32.3884 108.07 31.6817 107.73C30.9751 107.39 30.4184 106.89 30.0117 106.23C29.6051 105.57 29.4017 104.763 29.4017 103.81C29.4017 103.01 29.5751 102.29 29.9217 101.65C30.2751 101.003 30.7851 100.493 31.4517 100.12C32.1184 99.74 32.9217 99.55 33.8617 99.55C34.7551 99.55 35.5284 99.7133 36.1817 100.04C36.8417 100.367 37.3484 100.853 37.7017 101.5C38.0617 102.14 38.2417 102.94 38.2417 103.9C38.2417 103.953 38.2384 104.06 38.2317 104.22C38.2317 104.38 38.2251 104.487 38.2117 104.54H32.2717ZM35.3817 102.95C35.3751 102.737 35.3184 102.527 35.2117 102.32C35.1051 102.107 34.9451 101.933 34.7317 101.8C34.5184 101.66 34.2451 101.59 33.9117 101.59C33.5784 101.59 33.2951 101.657 33.0617 101.79C32.8351 101.917 32.6617 102.083 32.5417 102.29C32.4217 102.497 32.3551 102.717 32.3417 102.95H35.3817ZM39.7627 108V94.24H42.8027V100.99C42.8627 100.803 43.016 100.6 43.2627 100.38C43.516 100.153 43.846 99.96 44.2527 99.8C44.666 99.6333 45.1327 99.55 45.6527 99.55C46.4527 99.55 47.146 99.7467 47.7327 100.14C48.3193 100.533 48.7727 101.06 49.0927 101.72C49.4127 102.373 49.5727 103.1 49.5727 103.9C49.5727 104.7 49.4127 105.43 49.0927 106.09C48.7727 106.743 48.3193 107.267 47.7327 107.66C47.146 108.047 46.4527 108.24 45.6527 108.24C45.2127 108.24 44.796 108.16 44.4027 108C44.016 107.847 43.6793 107.65 43.3927 107.41C43.1127 107.163 42.906 106.917 42.7727 106.67V108H39.7627ZM46.5927 103.9C46.5927 103.527 46.5093 103.193 46.3427 102.9C46.1827 102.6 45.9593 102.367 45.6727 102.2C45.3927 102.027 45.076 101.94 44.7227 101.94C44.356 101.94 44.026 102.027 43.7327 102.2C43.446 102.367 43.2193 102.6 43.0527 102.9C42.886 103.193 42.8027 103.527 42.8027 103.9C42.8027 104.273 42.886 104.61 43.0527 104.91C43.2193 105.203 43.446 105.433 43.7327 105.6C44.026 105.767 44.356 105.85 44.7227 105.85C45.076 105.85 45.3927 105.767 45.6727 105.6C45.9593 105.433 46.1827 105.203 46.3427 104.91C46.5093 104.61 46.5927 104.273 46.5927 103.9ZM53.7645 108H50.7245V99.79H53.7645V101.06H53.7145C53.7679 100.907 53.8979 100.713 54.1045 100.48C54.3112 100.24 54.6012 100.027 54.9745 99.84C55.3479 99.6467 55.8045 99.55 56.3445 99.55C56.7245 99.55 57.0745 99.61 57.3945 99.73C57.7145 99.8433 57.9479 99.9533 58.0945 100.06L56.9145 102.53C56.8212 102.417 56.6545 102.3 56.4145 102.18C56.1812 102.053 55.8879 101.99 55.5345 101.99C55.1279 101.99 54.7912 102.093 54.5245 102.3C54.2645 102.507 54.0712 102.757 53.9445 103.05C53.8245 103.343 53.7645 103.62 53.7645 103.88V108ZM59.0142 108V99.79H62.0542V108H59.0142ZM60.5742 98.1C60.0942 98.1 59.6876 97.9333 59.3542 97.6C59.0209 97.26 58.8542 96.8567 58.8542 96.39C58.8542 95.9233 59.0209 95.52 59.3542 95.18C59.6942 94.8333 60.1009 94.66 60.5742 94.66C60.8876 94.66 61.1742 94.74 61.4342 94.9C61.6942 95.0533 61.9042 95.26 62.0642 95.52C62.2242 95.78 62.3042 96.07 62.3042 96.39C62.3042 96.8567 62.1342 97.26 61.7942 97.6C61.4542 97.9333 61.0476 98.1 60.5742 98.1ZM66.5686 104.54C66.5886 104.833 66.6819 105.093 66.8486 105.32C67.0153 105.547 67.2453 105.727 67.5386 105.86C67.8386 105.987 68.1919 106.05 68.5986 106.05C68.9853 106.05 69.3319 106.01 69.6386 105.93C69.9519 105.85 70.2219 105.75 70.4486 105.63C70.6819 105.51 70.8619 105.387 70.9886 105.26L72.1686 107.14C72.0019 107.32 71.7653 107.497 71.4586 107.67C71.1586 107.837 70.7619 107.973 70.2686 108.08C69.7753 108.187 69.1519 108.24 68.3986 108.24C67.4919 108.24 66.6853 108.07 65.9786 107.73C65.2719 107.39 64.7153 106.89 64.3086 106.23C63.9019 105.57 63.6986 104.763 63.6986 103.81C63.6986 103.01 63.8719 102.29 64.2186 101.65C64.5719 101.003 65.0819 100.493 65.7486 100.12C66.4153 99.74 67.2186 99.55 68.1586 99.55C69.0519 99.55 69.8253 99.7133 70.4786 100.04C71.1386 100.367 71.6453 100.853 71.9986 101.5C72.3586 102.14 72.5386 102.94 72.5386 103.9C72.5386 103.953 72.5353 104.06 72.5286 104.22C72.5286 104.38 72.5219 104.487 72.5086 104.54H66.5686ZM69.6786 102.95C69.6719 102.737 69.6153 102.527 69.5086 102.32C69.4019 102.107 69.2419 101.933 69.0286 101.8C68.8153 101.66 68.5419 101.59 68.2086 101.59C67.8753 101.59 67.5919 101.657 67.3586 101.79C67.1319 101.917 66.9586 102.083 66.8386 102.29C66.7186 102.497 66.6519 102.717 66.6386 102.95H69.6786ZM73.4014 99.79H74.7614V97.62C74.7614 96.82 74.9314 96.1533 75.2714 95.62C75.6114 95.0867 76.0514 94.6833 76.5914 94.41C77.1314 94.1367 77.6914 94 78.2714 94C78.9914 94 79.5381 94.0967 79.9114 94.29C80.2914 94.4833 80.5314 94.6267 80.6314 94.72L79.4714 96.95C79.4381 96.8967 79.3547 96.82 79.2214 96.72C79.0881 96.62 78.9114 96.57 78.6914 96.57C78.5514 96.57 78.4114 96.6067 78.2714 96.68C78.1314 96.7533 78.0147 96.8833 77.9214 97.07C77.8347 97.2567 77.7914 97.53 77.7914 97.89V99.79H79.8214V102.29H77.7914V108H74.7614V102.29H73.4014V99.79Z" fill="#ECD528"/>
<path d="M88.8348 8C96.6129 8 102.919 14.3059 102.919 22.084H108.877L109.24 22.0879C116.85 22.2805 122.961 28.5104 122.961 36.167C122.961 43.945 116.655 50.25 108.877 50.25H105.482L112.948 65.2764L95.0966 50.25H68.2518V50.209C60.98 49.6558 55.2519 43.5805 55.2518 36.167C55.2518 28.7534 60.98 22.6782 68.2518 22.125V22.084H74.7518C74.7518 14.3061 81.057 8.00025 88.8348 8Z" fill="url(#paint0_radial_1247_12568)"/>
<g style="mix-blend-mode:multiply">
<circle cx="88.6087" cy="36.3075" r="1.69982" transform="rotate(0.256274 88.6087 36.3075)" fill="#ECD528"/>
</g>
<g style="mix-blend-mode:multiply">
<circle cx="99.6575" cy="36.3568" r="1.69982" transform="rotate(0.256274 99.6575 36.3568)" fill="#ECD528"/>
</g>
<g style="mix-blend-mode:multiply">
<path d="M97.3943 39.5H91.1083C91.1045 39.5 91.1013 39.503 91.1013 39.5069C91.106 40.5842 92.1939 42.3 94.2513 42.3C96.3078 42.3 97.3956 40.3716 97.4013 39.5068C97.4013 39.5029 97.3982 39.5 97.3943 39.5Z" fill="#ECD528"/>
</g>
<path d="M70.4181 34.542C78.1959 34.5421 84.5009 40.8472 84.5011 48.625C84.5011 48.9125 84.4907 49.1982 84.4738 49.4814C89.8635 51.4574 93.7091 56.6344 93.7091 62.709C93.709 70.1225 87.9809 76.1978 80.7091 76.751V76.792H53.8644L36.0128 91.8184L43.4786 76.792H40.0841L39.7208 76.7881C32.1107 76.5954 26.0002 70.3655 26.0001 62.709C26.0001 54.9309 32.306 48.625 40.0841 48.625H40.9503C42.9338 43.2498 48.103 39.4171 54.1671 39.417C55.8889 39.417 57.5386 39.7265 59.0636 40.292C61.6271 36.8051 65.7584 34.542 70.4181 34.542Z" fill="url(#paint1_radial_1247_12568)"/>
<g style="mix-blend-mode:multiply">
<path d="M76.2878 60.5252C75.9595 61.1619 75.3042 61.7978 74.1602 61.7952C73.0161 61.7926 72.3637 61.1537 72.0383 60.5155" stroke="#ECBB28" stroke-width="1.4" stroke-linecap="round"/>
</g>
<g style="mix-blend-mode:multiply">
<path d="M78.4057 63.5045C77.2275 64.1392 74.6569 66.0457 70.5383 66.0363C66.4196 66.0269 64.2827 64.1097 63.1074 63.4696" stroke="#ECBB28" stroke-width="1.4" stroke-linecap="round"/>
</g>
<g style="mix-blend-mode:multiply">
<path d="M69.4881 60.5098C69.1598 61.1465 68.5046 61.7824 67.3605 61.7798C66.2164 61.7772 65.564 61.1383 65.2386 60.5001" stroke="#ECBB28" stroke-width="1.4" stroke-linecap="round"/>
</g>
</g>
<defs>
<filter id="filter0_d_1247_12568" x="0" y="0" width="133" height="133" filterUnits="userSpaceOnUse" color-interpolation-filters="sRGB">
<feFlood flood-opacity="0" result="BackgroundImageFix"/>
<feColorMatrix in="SourceAlpha" type="matrix" values="0 0 0 0 0 0 0 0 0 0 0 0 0 0 0 0 0 0 127 0" result="hardAlpha"/>
<feOffset dy="2"/>
<feGaussianBlur stdDeviation="2.5"/>
<feColorMatrix type="matrix" values="0 0 0 0 0 0 0 0 0 0 0 0 0 0 0 0 0 0 0.05 0"/>
<feBlend mode="normal" in2="BackgroundImageFix" result="effect1_dropShadow_1247_12568"/>
<feBlend mode="normal" in="SourceGraphic" in2="effect1_dropShadow_1247_12568" result="shape"/>
</filter>
<radialGradient id="paint0_radial_1247_12568" cx="0" cy="0" r="1" gradientTransform="matrix(-5.14544 28.5763 -33.7814 -6.08261 94.2518 36.7)" gradientUnits="userSpaceOnUse">
<stop stop-color="#ECD528"/>
<stop offset="1" stop-color="#FFEE6B"/>
</radialGradient>
<radialGradient id="paint1_radial_1247_12568" cx="0" cy="0" r="1" gradientTransform="matrix(-10.9458 28.5182 -33.7127 -12.9394 70.8004 63.3001)" gradientUnits="userSpaceOnUse">
<stop stop-color="#ECD528"/>
<stop offset="1" stop-color="#ECBB28"/>
</radialGradient>
</defs>
</svg>
