<svg width="130" height="39" viewBox="0 0 130 39" fill="none" xmlns="http://www.w3.org/2000/svg">
<g clip-path="url(#clip0_6068_32295)">
<path d="M44.6624 34.7235C47.7599 31.6094 48.8174 30.615 48.9996 30.6447C49.133 30.6662 51.1182 32.5192 53.4106 34.7628L57.5787 38.8416H60.4369C62.2101 38.8416 63.3236 38.7964 63.3688 38.7225C63.4093 38.657 60.6131 35.7977 57.1548 32.368L50.8669 26.1313C56.8349 26.0083 62.8427 26.0121 68.7873 25.4453C69.8032 25.3489 71.4906 25.2131 72.5386 25.1417C74.4133 25.016 76.2627 24.6896 78.1358 24.5534C79.0528 24.4855 80.0972 24.3735 80.458 24.3057C81.9045 24.0288 83.3711 23.9137 84.8047 23.5602C85.9992 23.2634 87.2468 23.2409 88.4369 22.9266C89.5608 22.6336 90.7138 22.4711 91.831 22.149C92.2895 22.0168 92.8527 21.8667 93.0814 21.8155C93.4922 21.725 94.1294 21.5261 96.2372 20.8295C97.602 20.3781 99.7503 19.4349 99.7503 19.2861C99.7503 19.167 99.1204 19.2682 98.8012 19.4397C97.9581 19.8911 87.982 21.3058 82.5421 21.7441C81.2976 21.8441 79.7697 21.9811 79.148 22.0478C77.9274 22.1787 73.5628 22.4336 68.6087 22.6622C63.8071 22.8849 47.7956 22.8456 42.5879 22.5991C38.0199 22.3815 33.4391 22.1393 28.8927 21.6333C24.4176 21.1327 19.9215 20.6984 15.4953 19.8506C13.7849 19.5229 12.0475 19.2532 10.3744 18.7597C9.78496 18.587 8.86321 18.3489 8.32613 18.2298C7.78904 18.1107 7.19717 17.9344 7.01139 17.838C6.82442 17.7415 6.32663 17.5748 5.90387 17.4652C5.4811 17.3569 4.77253 17.0853 4.33071 16.8603C3.88889 16.6364 3.45303 16.453 3.3649 16.453C3.08981 16.453 1.03791 15.0263 0.694937 14.5964C0.516304 14.3725 0.334098 14.1903 0.290036 14.1903C0.245973 14.1903 0.14832 14.4856 0.0732946 14.8477C-0.157737 15.9599 0.143557 16.7495 1.17486 17.7248C2.27286 18.7621 4.03894 19.766 5.7562 20.3281C6.72707 20.6451 7.6454 21.1403 8.64766 21.3487C9.0085 21.4225 9.44794 21.5571 9.62419 21.6476C9.80163 21.7381 10.1125 21.812 10.3173 21.812C10.5209 21.812 10.7924 21.8679 10.9211 21.937C11.1283 22.0477 11.5868 22.1645 13.7089 22.6468C14.5387 22.8369 15.3625 23.0834 16.2098 23.185C17.4245 23.3339 17.6603 23.3744 18.5916 23.5947C19.9396 23.9139 23.3158 24.4081 25.1414 24.5522C26.5373 24.6635 27.9159 24.8952 29.3095 25.0261C30.0955 25.1 31.2209 25.2084 31.8104 25.2691C33.8384 25.4751 35.9844 25.6168 38.9557 25.7395C44.3921 25.9646 49.1318 26.0944 49.3164 26.0229C49.4164 25.9848 49.7475 25.9908 50.0512 26.036L50.6049 26.1194C49.276 27.4486 38.0053 38.6248 38.1375 38.757C38.184 38.8035 38.7485 38.8416 39.3939 38.8416H40.5658L44.6624 34.7235ZM41.8138 16.2219C43.3048 16.0481 44.248 15.5527 45.3865 14.3451C46.2189 13.4615 46.5238 12.6588 46.6452 11.0344C46.7584 9.51488 46.7869 1.04173 46.6809 0.643979C46.6119 0.387938 46.5547 0.37603 45.3722 0.37603H44.136L44.1325 4.75253C44.1301 9.12308 44.03 11.0416 43.7585 11.9479C43.5549 12.6267 42.7046 13.5305 42.0246 13.7902C41.241 14.0891 39.3915 14.0914 38.658 13.7949C37.6791 13.3972 37.0193 12.5624 36.7442 11.3727C36.6561 10.994 36.6168 9.25646 36.6287 6.30783C36.6382 3.83912 36.6096 1.49427 36.5656 1.09771L36.4834 0.37603H35.3318C34.5947 0.37603 34.129 0.427239 34.0373 0.518937C33.8182 0.73806 33.8373 10.7332 34.06 11.8978C34.2767 13.0375 34.7149 13.9057 35.4533 14.6547C36.8026 16.0254 38.9485 16.5542 41.8138 16.2219ZM72.3445 16.0921C73.6068 15.742 74.1023 15.4514 75.0514 14.5011C76.1887 13.3614 76.7901 12.1372 76.8115 10.9166L76.8258 10.0817L75.6647 10.0472C74.3369 10.0091 74.5381 9.8388 73.9653 11.4858C73.5926 12.5564 72.9626 13.2828 71.9575 13.8021C71.4263 14.076 71.2013 14.1176 70.2164 14.1212C69.2041 14.1248 69.01 14.0891 68.3705 13.7782C67.0999 13.1602 66.0471 11.7621 65.6779 10.2008C65.4826 9.37793 65.4874 7.14502 65.6863 6.21136C65.9709 4.87281 66.402 4.08206 67.2856 3.27226C67.8144 2.78757 68.2753 2.48151 68.6647 2.35409C69.4388 2.10043 71.1167 2.10162 71.8955 2.35647C72.6851 2.61489 73.452 3.37825 73.9427 4.39169L74.3321 5.19911C74.8492 5.19911 76.805 5.47316 76.8484 4.90139C76.8856 4.43546 76.666 3.96522 76.5281 3.53187C76.1065 2.21833 74.4226 0.764257 72.7375 0.262894C71.555 -0.0896078 69.0315 -0.087225 67.9442 0.267659C65.6684 1.00839 64.0583 2.66015 63.2807 5.04906C62.5419 7.31481 62.6456 10.0608 63.6665 12.2122C64.4478 13.8545 65.8696 15.3813 67.2392 15.7981C68.8315 16.3891 70.6891 16.5508 72.3445 16.0921ZM106.043 15.8992C107.18 15.4574 107.916 14.887 108.531 13.9724C109.457 12.5945 109.442 12.716 109.488 6.17802L109.529 0.367693L106.836 0.435574L106.774 6.03273C106.717 11.3095 106.7 11.6573 106.476 12.1062C105.783 13.502 104.975 13.9759 103.263 13.9902C101.377 14.0069 100.242 13.3924 99.7563 12.0955C99.38 11.088 99.2847 9.70899 99.2752 5.09551C99.2704 2.47556 99.2204 0.736868 99.1478 0.599916C99.0418 0.40342 98.8798 0.37603 97.8402 0.37603H96.654V5.71358C96.654 11.4251 96.6981 11.98 97.24 13.1757C97.6234 14.0188 98.7476 15.2061 99.5265 15.5872C100.735 16.1791 101.593 16.3303 103.449 16.2803C105.003 16.2398 105.271 16.1993 106.043 15.8992ZM23.03 12.5528C23.0586 9.34339 23.0776 9.0683 23.2682 9.05758C23.3813 9.05043 24.9747 9.03733 26.8087 9.02781L30.1431 9.00994L30.2122 6.80681H23.0848L23.0133 6.53886C22.974 6.39119 22.9407 5.48016 22.9395 4.51435C22.9383 2.92333 22.9573 2.75661 23.1467 2.74946C23.261 2.7447 24.9902 2.74232 26.9873 2.7447C28.9844 2.74589 30.7136 2.71969 30.8279 2.68516C31.0077 2.63157 31.0363 2.46603 31.0363 1.49903V0.37603H21.046L20.3779 0.951225L20.3183 8.25492C20.2862 12.273 20.2767 15.6825 20.2969 15.8313C20.335 16.0981 20.36 16.1029 21.6664 16.0695L22.9978 16.0362L23.03 12.5528ZM61.5968 15.2025C61.6039 14.7441 61.5837 14.2224 61.5515 14.0426L61.4944 13.7175L53.6036 13.6544L53.4845 0.435574L50.9241 0.367693V15.1108L51.1825 15.4383C51.6862 16.0802 51.7756 16.0898 56.8785 16.0624L61.5825 16.0362L61.5968 15.2025ZM93.5875 15.9171C93.5708 15.8516 93.4232 15.4121 93.2588 14.9417C93.029 14.2808 92.9456 13.7485 92.8944 12.6195C92.8575 11.8133 92.7718 10.8999 92.7051 10.5902C92.536 9.81498 91.9905 9.10045 91.351 8.81702C90.1224 8.27376 92.2277 7.53693 92.6789 6.59364C93.2934 5.31105 93.1707 3.11744 92.4252 2.04208C91.8626 1.22746 90.9024 0.861606 90.0446 0.435574L81.1797 0.360547L80.4556 1.10009L80.5176 15.9171L81.6608 15.9504C82.5492 15.9778 82.8362 15.9457 82.9481 15.8111C83.0541 15.6837 83.0899 14.8179 83.0815 12.6005C83.0768 10.9308 83.1137 9.54227 83.1637 9.51607C83.2149 9.48987 84.4082 9.50059 85.817 9.5375C88.1797 9.60181 88.4215 9.62801 88.9419 9.88405C89.5754 10.1961 89.9625 10.6629 90.122 11.3119C90.1816 11.5525 90.2757 12.5254 90.3304 13.4758C90.3948 14.5809 90.4984 15.3645 90.6198 15.6527L90.8092 16.1029L92.2132 16.0695C93.0742 16.0493 93.6054 15.9897 93.5875 15.9171ZM122.968 15.8659C123.036 15.7384 123.092 15.5419 123.092 15.4288C123.092 15.3145 123.381 14.494 123.735 13.6044C124.088 12.7148 124.417 11.799 124.465 11.5703C124.514 11.3417 124.653 10.9666 124.774 10.7379C125.102 10.131 125.035 9.32434 125.467 8.77296C125.519 8.70627 125.6 8.43832 125.645 8.17632C125.691 7.91433 125.832 7.52253 125.958 7.30579C126.152 6.97341 126.2 6.60793 126.377 6.27091C126.48 6.07441 126.691 5.53971 126.845 5.08122C127.007 4.60248 127.155 4.325 127.193 4.42623C127.23 4.52388 127.273 7.17598 127.29 10.3199L127.319 16.0362H129.939L130 0.370077L126.021 0.435574L125.392 2.28145C121.863 12.6386 121.97 12.342 121.773 12.2206C121.722 12.1884 121.536 11.7216 121.359 11.1821C120.968 10.0006 120.392 8.90532 120.054 7.69997C119.73 6.54576 119.147 5.4849 118.876 4.31786C118.631 3.26124 118.161 2.27298 117.84 1.23942L117.571 0.37603H113.563L113.624 15.9171H116.125L116.156 10.102C116.179 5.92079 116.224 4.2988 116.318 4.33096C116.476 4.38336 116.679 4.88829 117.674 7.69997C120.049 14.4142 120.556 15.8254 120.654 15.9838C120.693 16.0445 121.202 16.0957 121.784 16.0957C122.712 16.0957 122.861 16.0671 122.968 15.8659ZM6.56362 13.3591C6.46715 12.7886 6.65055 12.1741 7.01853 11.8288C7.76641 11.1261 10.1422 10.1377 12.1012 9.71495C13.0932 9.50059 17.0541 8.86227 18.0235 8.75986C18.482 8.71222 18.7368 8.63601 18.6904 8.55979C18.6023 8.41807 15.5072 8.52049 14.483 8.70031C14.1234 8.76224 13.3195 8.87537 12.6967 8.9504C10.8437 9.17429 8.14987 9.84594 7.0626 10.3556C5.83837 10.9308 5.31319 11.4798 5.31319 12.1872C5.31319 12.6136 5.38702 12.7505 5.89196 13.2543C6.20992 13.5722 6.50883 13.833 6.55766 13.833C6.6053 13.833 6.60768 13.6199 6.56362 13.3591ZM83.197 4.95856V2.50057L85.9659 2.54582C89.0145 2.59584 89.323 2.65896 89.9041 3.34967C90.2554 3.76648 90.4055 4.53222 90.303 5.39204C90.2149 6.13396 89.9363 6.60674 89.3432 7.01759L88.8752 7.34271L83.197 7.41773V4.95856Z" fill="white"/>
<path d="M73.8296 35.7248C73.424 35.7248 73.0669 35.6277 72.7584 35.4336C72.4533 35.236 72.2141 34.9673 72.0408 34.6276C71.8709 34.2844 71.786 33.8978 71.786 33.468C71.786 33.0381 71.8709 32.6533 72.0408 32.3136C72.2141 31.9704 72.4533 31.7 72.7584 31.5024C73.0669 31.3048 73.424 31.206 73.8296 31.206C74.1173 31.206 74.3721 31.2528 74.594 31.3464C74.8193 31.44 74.9996 31.5509 75.1348 31.6792C75.27 31.8074 75.3497 31.9218 75.374 32.0224V28.4448H76.7V35.6H75.3896V34.8564C75.3341 34.9777 75.2319 35.106 75.0828 35.2412C74.9337 35.3764 74.7517 35.4908 74.5368 35.5844C74.3219 35.678 74.0861 35.7248 73.8296 35.7248ZM74.204 34.6744C74.4259 34.6744 74.6252 34.6241 74.802 34.5236C74.9788 34.4196 75.1175 34.2774 75.218 34.0972C75.322 33.9134 75.374 33.7037 75.374 33.468C75.374 33.2322 75.322 33.0242 75.218 32.844C75.1175 32.6602 74.9788 32.5164 74.802 32.4124C74.6252 32.3084 74.4259 32.2564 74.204 32.2564C73.9995 32.2564 73.8123 32.3084 73.6424 32.4124C73.4725 32.5129 73.3356 32.655 73.2316 32.8388C73.1311 33.019 73.0808 33.2288 73.0808 33.468C73.0808 33.7072 73.1311 33.9186 73.2316 34.1024C73.3356 34.2826 73.4725 34.423 73.6424 34.5236C73.8123 34.6241 73.9995 34.6744 74.204 34.6744ZM79.4292 35.7248C78.9751 35.7248 78.5695 35.6277 78.2124 35.4336C77.8588 35.2394 77.5815 34.9742 77.3804 34.638C77.1793 34.2982 77.0788 33.9117 77.0788 33.4784C77.0788 33.045 77.1793 32.6585 77.3804 32.3188C77.5815 31.9756 77.8588 31.7052 78.2124 31.5076C78.5695 31.3065 78.9751 31.206 79.4292 31.206C79.8868 31.206 80.2907 31.3065 80.6408 31.5076C80.9909 31.7052 81.2648 31.9756 81.4624 32.3188C81.66 32.6585 81.7588 33.045 81.7588 33.4784C81.7588 33.9117 81.66 34.2982 81.4624 34.638C81.2648 34.9742 80.9909 35.2394 80.6408 35.4336C80.2907 35.6277 79.8868 35.7248 79.4292 35.7248ZM79.4292 34.6276C79.6476 34.6276 79.8365 34.579 79.996 34.482C80.1589 34.3814 80.2837 34.2445 80.3704 34.0712C80.4605 33.8944 80.5056 33.695 80.5056 33.4732C80.5056 33.2513 80.4605 33.052 80.3704 32.8752C80.2837 32.6984 80.1589 32.5597 79.996 32.4592C79.8365 32.3552 79.6476 32.3032 79.4292 32.3032C79.2108 32.3032 79.0201 32.3552 78.8572 32.4592C78.6977 32.5597 78.5729 32.6984 78.4828 32.8752C78.3927 33.052 78.3476 33.2513 78.3476 33.4732C78.3476 33.695 78.3927 33.8944 78.4828 34.0712C78.5729 34.2445 78.6977 34.3814 78.8572 34.482C79.0201 34.579 79.2108 34.6276 79.4292 34.6276ZM83.3577 35.7248C83.1254 35.7248 82.9261 35.6416 82.7597 35.4752C82.5933 35.3088 82.5101 35.1094 82.5101 34.8772C82.5101 34.638 82.5933 34.4352 82.7597 34.2688C82.9261 34.1024 83.1254 34.0192 83.3577 34.0192C83.5969 34.0192 83.798 34.1024 83.9609 34.2688C84.1273 34.4352 84.2105 34.638 84.2105 34.8772C84.2105 35.1094 84.1273 35.3088 83.9609 35.4752C83.798 35.6416 83.5969 35.7248 83.3577 35.7248ZM88.812 35.6H87.4912V31.3308H88.812V32.0224H88.786C88.8103 31.9392 88.8762 31.8334 88.9836 31.7052C89.0946 31.5769 89.2471 31.4625 89.4412 31.362C89.6354 31.258 89.8694 31.206 90.1432 31.206C90.3408 31.206 90.5194 31.2354 90.6788 31.2944C90.8418 31.3498 90.9579 31.4053 91.0272 31.4608L90.5072 32.5424C90.4622 32.4869 90.3772 32.4297 90.2524 32.3708C90.1311 32.3118 89.9786 32.2824 89.7948 32.2824C89.5764 32.2824 89.3944 32.343 89.2488 32.4644C89.1032 32.5822 88.994 32.7278 88.9212 32.9012C88.8484 33.071 88.812 33.2305 88.812 33.3796V35.6ZM91.2811 35.6V31.3308H92.5967V35.6H91.2811ZM91.9571 30.2284C91.7387 30.2284 91.5532 30.1521 91.4007 29.9996C91.2516 29.847 91.1771 29.665 91.1771 29.4536C91.1771 29.2421 91.2533 29.0584 91.4059 28.9024C91.5584 28.7464 91.7421 28.6684 91.9571 28.6684C92.0992 28.6684 92.2292 28.7048 92.3471 28.7776C92.4649 28.8469 92.5603 28.9405 92.6331 29.0584C92.7059 29.1762 92.7423 29.308 92.7423 29.4536C92.7423 29.665 92.6643 29.847 92.5083 29.9996C92.3557 30.1521 92.172 30.2284 91.9571 30.2284ZM95.2801 31.206C95.5366 31.206 95.7741 31.2302 95.9925 31.2788C96.2109 31.3238 96.3946 31.3758 96.5437 31.4348C96.6962 31.4937 96.7968 31.544 96.8453 31.5856L96.3929 32.3812C96.3236 32.3257 96.1988 32.2598 96.0185 32.1836C95.8417 32.1073 95.6441 32.0692 95.4257 32.0692C95.2281 32.0692 95.0617 32.1038 94.9265 32.1732C94.7913 32.239 94.7237 32.3396 94.7237 32.4748C94.7237 32.61 94.7965 32.7174 94.9421 32.7972C95.0877 32.8769 95.2905 32.9462 95.5505 33.0052C95.7689 33.0502 95.9838 33.1196 96.1953 33.2132C96.4068 33.3033 96.5818 33.435 96.7205 33.6084C96.8592 33.7782 96.9285 34.0053 96.9285 34.2896C96.9285 34.5704 96.8678 34.8044 96.7465 34.9916C96.6286 35.1753 96.4709 35.3209 96.2733 35.4284C96.0757 35.5358 95.859 35.6121 95.6233 35.6572C95.3876 35.7022 95.1536 35.7248 94.9213 35.7248C94.6197 35.7248 94.3545 35.6953 94.1257 35.6364C93.8969 35.5809 93.708 35.5168 93.5589 35.444C93.4133 35.3677 93.3093 35.3036 93.2469 35.2516L93.6993 34.3676C93.7894 34.4473 93.9368 34.5357 94.1413 34.6328C94.3493 34.7264 94.5729 34.7732 94.8121 34.7732C95.0617 34.7732 95.2576 34.7298 95.3997 34.6432C95.5453 34.5565 95.6181 34.4404 95.6181 34.2948C95.6181 34.1873 95.5834 34.1006 95.5141 34.0348C95.4448 33.9654 95.3494 33.9082 95.2281 33.8632C95.1068 33.8181 94.9646 33.7782 94.8017 33.7436C94.6526 33.7124 94.5001 33.6673 94.3441 33.6084C94.1881 33.546 94.0425 33.4645 93.9073 33.364C93.7721 33.2634 93.6629 33.1386 93.5797 32.9896C93.4965 32.837 93.4549 32.655 93.4549 32.4436C93.4549 32.1732 93.5416 31.9478 93.7149 31.7676C93.8882 31.5838 94.1136 31.4452 94.3909 31.3516C94.6682 31.2545 94.9646 31.206 95.2801 31.206ZM100.339 31.3308H101.857L99.7721 33.3692L102.044 35.6H100.49L98.7165 33.8164V35.6H97.3957V28.4448H98.7165V32.896L100.339 31.3308ZM103.261 35.7248C103.028 35.7248 102.829 35.6416 102.663 35.4752C102.496 35.3088 102.413 35.1094 102.413 34.8772C102.413 34.638 102.496 34.4352 102.663 34.2688C102.829 34.1024 103.028 34.0192 103.261 34.0192C103.5 34.0192 103.701 34.1024 103.864 34.2688C104.03 34.4352 104.114 34.638 104.114 34.8772C104.114 35.1094 104.03 35.3088 103.864 35.4752C103.701 35.6416 103.5 35.7248 103.261 35.7248ZM109.646 37.8828C109.334 37.8828 109.034 37.8533 108.746 37.7944C108.462 37.7354 108.204 37.6436 107.971 37.5188C107.739 37.394 107.545 37.231 107.389 37.03L108.19 36.2188C108.263 36.3124 108.356 36.406 108.471 36.4996C108.588 36.5966 108.738 36.6764 108.918 36.7388C109.098 36.8046 109.323 36.8376 109.594 36.8376C109.85 36.8376 110.07 36.7873 110.254 36.6868C110.441 36.5897 110.585 36.451 110.686 36.2708C110.79 36.0905 110.842 35.8808 110.842 35.6416V35.522H112.137V35.7196C112.137 36.191 112.026 36.588 111.804 36.9104C111.582 37.2328 111.284 37.4754 110.909 37.6384C110.535 37.8013 110.114 37.8828 109.646 37.8828ZM110.842 35.6V34.8564C110.811 34.9326 110.731 35.0401 110.603 35.1788C110.474 35.3174 110.301 35.444 110.083 35.5584C109.868 35.6693 109.615 35.7248 109.323 35.7248C108.914 35.7248 108.552 35.6277 108.237 35.4336C107.921 35.236 107.673 34.9673 107.493 34.6276C107.316 34.2844 107.228 33.8978 107.228 33.468C107.228 33.0381 107.316 32.6533 107.493 32.3136C107.673 31.9704 107.921 31.7 108.237 31.5024C108.552 31.3048 108.914 31.206 109.323 31.206C109.608 31.206 109.854 31.2545 110.062 31.3516C110.273 31.4452 110.443 31.5561 110.571 31.6844C110.703 31.8092 110.788 31.9218 110.826 32.0224V31.3308H112.137V35.6H110.842ZM108.523 33.468C108.523 33.7072 108.576 33.9186 108.684 34.1024C108.791 34.2826 108.933 34.423 109.11 34.5236C109.287 34.6241 109.479 34.6744 109.687 34.6744C109.906 34.6744 110.1 34.6241 110.27 34.5236C110.44 34.4196 110.573 34.2774 110.67 34.0972C110.771 33.9134 110.821 33.7037 110.821 33.468C110.821 33.2322 110.771 33.0242 110.67 32.844C110.573 32.6602 110.44 32.5164 110.27 32.4124C110.1 32.3084 109.906 32.2564 109.687 32.2564C109.479 32.2564 109.287 32.3084 109.11 32.4124C108.933 32.5129 108.791 32.655 108.684 32.8388C108.576 33.019 108.523 33.2288 108.523 33.468ZM114.162 35.6H112.841V31.3308H114.162V32.0224H114.136C114.16 31.9392 114.226 31.8334 114.333 31.7052C114.444 31.5769 114.597 31.4625 114.791 31.362C114.985 31.258 115.219 31.206 115.493 31.206C115.69 31.206 115.869 31.2354 116.028 31.2944C116.191 31.3498 116.307 31.4053 116.377 31.4608L115.857 32.5424C115.812 32.4869 115.727 32.4297 115.602 32.3708C115.481 32.3118 115.328 32.2824 115.144 32.2824C114.926 32.2824 114.744 32.343 114.598 32.4644C114.453 32.5822 114.344 32.7278 114.271 32.9012C114.198 33.071 114.162 33.2305 114.162 33.3796V35.6ZM118.552 35.7248C118.098 35.7248 117.692 35.6277 117.335 35.4336C116.981 35.2394 116.704 34.9742 116.503 34.638C116.302 34.2982 116.201 33.9117 116.201 33.4784C116.201 33.045 116.302 32.6585 116.503 32.3188C116.704 31.9756 116.981 31.7052 117.335 31.5076C117.692 31.3065 118.098 31.206 118.552 31.206C119.009 31.206 119.413 31.3065 119.763 31.5076C120.114 31.7052 120.387 31.9756 120.585 32.3188C120.783 32.6585 120.881 33.045 120.881 33.4784C120.881 33.9117 120.783 34.2982 120.585 34.638C120.387 34.9742 120.114 35.2394 119.763 35.4336C119.413 35.6277 119.009 35.7248 118.552 35.7248ZM118.552 34.6276C118.77 34.6276 118.959 34.579 119.119 34.482C119.282 34.3814 119.406 34.2445 119.493 34.0712C119.583 33.8944 119.628 33.695 119.628 33.4732C119.628 33.2513 119.583 33.052 119.493 32.8752C119.406 32.6984 119.282 32.5597 119.119 32.4592C118.959 32.3552 118.77 32.3032 118.552 32.3032C118.333 32.3032 118.143 32.3552 117.98 32.4592C117.82 32.5597 117.696 32.6984 117.605 32.8752C117.515 33.052 117.47 33.2513 117.47 33.4732C117.47 33.695 117.515 33.8944 117.605 34.0712C117.696 34.2445 117.82 34.3814 117.98 34.482C118.143 34.579 118.333 34.6276 118.552 34.6276ZM124.56 32.8492L123.531 35.6H122.278L120.962 31.3308H122.366L123.084 34.1804L124.098 31.414H125.028L126.032 34.1804L126.755 31.3308H128.159L126.848 35.6H125.595L124.56 32.8492ZM129.491 35.7248C129.259 35.7248 129.059 35.6416 128.893 35.4752C128.727 35.3088 128.643 35.1094 128.643 34.8772C128.643 34.638 128.727 34.4352 128.893 34.2688C129.059 34.1024 129.259 34.0192 129.491 34.0192C129.73 34.0192 129.931 34.1024 130.094 34.2688C130.261 34.4352 130.344 34.638 130.344 34.8772C130.344 35.1094 130.261 35.3088 130.094 35.4752C129.931 35.6416 129.73 35.7248 129.491 35.7248Z" fill="white"/>
</g>
<defs>
<clipPath id="clip0_6068_32295">
<rect width="130" height="39" fill="white"/>
</clipPath>
</defs>
</svg>
