<svg width="390" height="115" viewBox="0 0 390 115" fill="none" xmlns="http://www.w3.org/2000/svg">
<rect width="390" height="115" fill="url(#paint0_linear_1406_21712)"/>
<rect width="390" height="115" fill="url(#paint1_linear_1406_21712)"/>
<g clip-path="url(#clip0_1406_21712)">
<path d="M174.662 94.7235C177.76 91.6094 178.817 90.615 179 90.6447C179.133 90.6662 181.118 92.5192 183.411 94.7628L187.579 98.8416H190.437C192.21 98.8416 193.324 98.7964 193.369 98.7225C193.409 98.657 190.613 95.7977 187.155 92.368L180.867 86.1313C186.835 86.0083 192.843 86.0121 198.787 85.4453C199.803 85.3489 201.491 85.2131 202.539 85.1417C204.413 85.016 206.263 84.6896 208.136 84.5534C209.053 84.4855 210.097 84.3735 210.458 84.3057C211.904 84.0288 213.371 83.9137 214.805 83.5602C215.999 83.2634 217.247 83.2409 218.437 82.9266C219.561 82.6336 220.714 82.4711 221.831 82.149C222.289 82.0168 222.853 81.8667 223.081 81.8155C223.492 81.725 224.129 81.5261 226.237 80.8295C227.602 80.3781 229.75 79.4349 229.75 79.2861C229.75 79.167 229.12 79.2682 228.801 79.4397C227.958 79.8911 217.982 81.3058 212.542 81.7441C211.298 81.8441 209.77 81.9811 209.148 82.0478C207.927 82.1787 203.563 82.4336 198.609 82.6622C193.807 82.8849 177.796 82.8456 172.588 82.5991C168.02 82.3815 163.439 82.1393 158.893 81.6333C154.418 81.1327 149.921 80.6984 145.495 79.8506C143.785 79.5229 142.047 79.2532 140.374 78.7597C139.785 78.587 138.863 78.3489 138.326 78.2298C137.789 78.1107 137.197 77.9344 137.011 77.838C136.824 77.7415 136.327 77.5748 135.904 77.4652C135.481 77.3569 134.773 77.0853 134.331 76.8603C133.889 76.6364 133.453 76.453 133.365 76.453C133.09 76.453 131.038 75.0263 130.695 74.5964C130.516 74.3725 130.334 74.1903 130.29 74.1903C130.246 74.1903 130.148 74.4856 130.073 74.8477C129.842 75.9599 130.144 76.7495 131.175 77.7248C132.273 78.7621 134.039 79.766 135.756 80.3281C136.727 80.6451 137.645 81.1403 138.648 81.3487C139.009 81.4225 139.448 81.5571 139.624 81.6476C139.802 81.7381 140.112 81.812 140.317 81.812C140.521 81.812 140.792 81.8679 140.921 81.937C141.128 82.0477 141.587 82.1645 143.709 82.6468C144.539 82.8369 145.363 83.0834 146.21 83.185C147.424 83.3339 147.66 83.3744 148.592 83.5947C149.94 83.9139 153.316 84.4081 155.141 84.5522C156.537 84.6635 157.916 84.8952 159.31 85.0261C160.095 85.1 161.221 85.2084 161.81 85.2691C163.838 85.4751 165.984 85.6168 168.956 85.7395C174.392 85.9646 179.132 86.0944 179.316 86.0229C179.416 85.9848 179.747 85.9908 180.051 86.036L180.605 86.1194C179.276 87.4486 168.005 98.6248 168.138 98.757C168.184 98.8035 168.748 98.8416 169.394 98.8416H170.566L174.662 94.7235ZM171.814 76.2219C173.305 76.0481 174.248 75.5527 175.386 74.3451C176.219 73.4615 176.524 72.6588 176.645 71.0344C176.758 69.5149 176.787 61.0417 176.681 60.644C176.612 60.3879 176.555 60.376 175.372 60.376H174.136L174.132 64.7525C174.13 69.1231 174.03 71.0416 173.759 71.9479C173.555 72.6267 172.705 73.5305 172.025 73.7902C171.241 74.0891 169.392 74.0914 168.658 73.7949C167.679 73.3972 167.019 72.5624 166.744 71.3727C166.656 70.994 166.617 69.2565 166.629 66.3078C166.638 63.8391 166.61 61.4943 166.566 61.0977L166.483 60.376H165.332C164.595 60.376 164.129 60.4272 164.037 60.5189C163.818 60.7381 163.837 70.7332 164.06 71.8978C164.277 73.0375 164.715 73.9057 165.453 74.6547C166.803 76.0254 168.949 76.5542 171.814 76.2219ZM202.345 76.0921C203.607 75.742 204.102 75.4514 205.051 74.5011C206.189 73.3614 206.79 72.1372 206.812 70.9166L206.826 70.0817L205.665 70.0472C204.337 70.0091 204.538 69.8388 203.965 71.4858C203.593 72.5564 202.963 73.2828 201.957 73.8021C201.426 74.076 201.201 74.1176 200.216 74.1212C199.204 74.1248 199.01 74.0891 198.371 73.7782C197.1 73.1602 196.047 71.7621 195.678 70.2008C195.483 69.3779 195.487 67.145 195.686 66.2114C195.971 64.8728 196.402 64.0821 197.286 63.2723C197.814 62.7876 198.275 62.4815 198.665 62.3541C199.439 62.1004 201.117 62.1016 201.896 62.3565C202.685 62.6149 203.452 63.3783 203.943 64.3917L204.332 65.1991C204.849 65.1991 206.805 65.4732 206.848 64.9014C206.886 64.4355 206.666 63.9652 206.528 63.5319C206.107 62.2183 204.423 60.7643 202.738 60.2629C201.555 59.9104 199.031 59.9128 197.944 60.2677C195.668 61.0084 194.058 62.6601 193.281 65.0491C192.542 67.3148 192.646 70.0608 193.667 72.2122C194.448 73.8545 195.87 75.3813 197.239 75.7981C198.831 76.3891 200.689 76.5508 202.345 76.0921ZM236.043 75.8992C237.18 75.4574 237.916 74.887 238.531 73.9724C239.457 72.5945 239.442 72.716 239.488 66.178L239.529 60.3677L236.836 60.4356L236.774 66.0327C236.717 71.3095 236.7 71.6573 236.476 72.1062C235.783 73.502 234.975 73.9759 233.263 73.9902C231.377 74.0069 230.242 73.3924 229.756 72.0955C229.38 71.088 229.285 69.709 229.275 65.0955C229.27 62.4756 229.22 60.7369 229.148 60.5999C229.042 60.4034 228.88 60.376 227.84 60.376H226.654V65.7136C226.654 71.4251 226.698 71.98 227.24 73.1757C227.623 74.0188 228.748 75.2061 229.526 75.5872C230.735 76.1791 231.593 76.3303 233.449 76.2803C235.003 76.2398 235.271 76.1993 236.043 75.8992ZM153.03 72.5528C153.059 69.3434 153.078 69.0683 153.268 69.0576C153.381 69.0504 154.975 69.0373 156.809 69.0278L160.143 69.0099L160.212 66.8068H153.085L153.013 66.5389C152.974 66.3912 152.941 65.4802 152.939 64.5144C152.938 62.9233 152.957 62.7566 153.147 62.7495C153.261 62.7447 154.99 62.7423 156.987 62.7447C158.984 62.7459 160.714 62.7197 160.828 62.6852C161.008 62.6316 161.036 62.466 161.036 61.499V60.376H151.046L150.378 60.9512L150.318 68.2549C150.286 72.273 150.277 75.6825 150.297 75.8313C150.335 76.0981 150.36 76.1029 151.666 76.0695L152.998 76.0362L153.03 72.5528ZM191.597 75.2025C191.604 74.7441 191.584 74.2224 191.552 74.0426L191.494 73.7175L183.604 73.6544L183.484 60.4356L180.924 60.3677V75.1108L181.182 75.4383C181.686 76.0802 181.776 76.0898 186.878 76.0624L191.582 76.0362L191.597 75.2025ZM223.588 75.9171C223.571 75.8516 223.423 75.4121 223.259 74.9417C223.029 74.2808 222.946 73.7485 222.894 72.6195C222.857 71.8133 222.772 70.8999 222.705 70.5902C222.536 69.815 221.991 69.1005 221.351 68.817C220.122 68.2738 222.228 67.5369 222.679 66.5936C223.293 65.3111 223.171 63.1174 222.425 62.0421C221.863 61.2275 220.902 60.8616 220.045 60.4356L211.18 60.3605L210.456 61.1001L210.518 75.9171L211.661 75.9504C212.549 75.9778 212.836 75.9457 212.948 75.8111C213.054 75.6837 213.09 74.8179 213.082 72.6005C213.077 70.9308 213.114 69.5423 213.164 69.5161C213.215 69.4899 214.408 69.5006 215.817 69.5375C218.18 69.6018 218.421 69.628 218.942 69.8841C219.575 70.1961 219.962 70.6629 220.122 71.3119C220.182 71.5525 220.276 72.5254 220.33 73.4758C220.395 74.5809 220.498 75.3645 220.62 75.6527L220.809 76.1029L222.213 76.0695C223.074 76.0493 223.605 75.9897 223.588 75.9171ZM252.968 75.8659C253.036 75.7384 253.092 75.5419 253.092 75.4288C253.092 75.3145 253.381 74.494 253.735 73.6044C254.088 72.7148 254.417 71.799 254.465 71.5703C254.514 71.3417 254.653 70.9666 254.774 70.7379C255.102 70.131 255.035 69.3243 255.467 68.773C255.519 68.7063 255.6 68.4383 255.645 68.1763C255.691 67.9143 255.832 67.5225 255.958 67.3058C256.152 66.9734 256.2 66.6079 256.377 66.2709C256.48 66.0744 256.691 65.5397 256.845 65.0812C257.007 64.6025 257.155 64.325 257.193 64.4262C257.23 64.5239 257.273 67.176 257.29 70.3199L257.319 76.0362H259.939L260 60.3701L256.021 60.4356L255.392 62.2814C251.863 72.6386 251.97 72.342 251.773 72.2206C251.722 72.1884 251.536 71.7216 251.359 71.1821C250.968 70.0006 250.392 68.9053 250.054 67.7C249.73 66.5458 249.147 65.4849 248.876 64.3179C248.631 63.2612 248.161 62.273 247.84 61.2394L247.571 60.376H243.563L243.624 75.9171H246.125L246.156 70.102C246.179 65.9208 246.224 64.2988 246.318 64.331C246.476 64.3834 246.679 64.8883 247.674 67.7C250.049 74.4142 250.556 75.8254 250.654 75.9838C250.693 76.0445 251.202 76.0957 251.784 76.0957C252.712 76.0957 252.861 76.0671 252.968 75.8659ZM136.564 73.3591C136.467 72.7886 136.651 72.1741 137.019 71.8288C137.766 71.1261 140.142 70.1377 142.101 69.7149C143.093 69.5006 147.054 68.8623 148.023 68.7599C148.482 68.7122 148.737 68.636 148.69 68.5598C148.602 68.4181 145.507 68.5205 144.483 68.7003C144.123 68.7622 143.32 68.8754 142.697 68.9504C140.844 69.1743 138.15 69.8459 137.063 70.3556C135.838 70.9308 135.313 71.4798 135.313 72.1872C135.313 72.6136 135.387 72.7505 135.892 73.2543C136.21 73.5722 136.509 73.833 136.558 73.833C136.605 73.833 136.608 73.6199 136.564 73.3591ZM213.197 64.9586V62.5006L215.966 62.5458C219.015 62.5958 219.323 62.659 219.904 63.3497C220.255 63.7665 220.405 64.5322 220.303 65.392C220.215 66.134 219.936 66.6067 219.343 67.0176L218.875 67.3427L213.197 67.4177V64.9586Z" fill="white"/>
<path d="M203.83 95.7248C203.424 95.7248 203.067 95.6277 202.758 95.4336C202.453 95.236 202.214 94.9673 202.041 94.6276C201.871 94.2844 201.786 93.8979 201.786 93.468C201.786 93.0381 201.871 92.6533 202.041 92.3136C202.214 91.9704 202.453 91.7 202.758 91.5024C203.067 91.3048 203.424 91.206 203.83 91.206C204.117 91.206 204.372 91.2528 204.594 91.3464C204.819 91.44 205 91.5509 205.135 91.6792C205.27 91.8075 205.35 91.9219 205.374 92.0224V88.4448H206.7V95.6H205.39V94.8564C205.334 94.9777 205.232 95.106 205.083 95.2412C204.934 95.3764 204.752 95.4908 204.537 95.5844C204.322 95.678 204.086 95.7248 203.83 95.7248ZM204.204 94.6744C204.426 94.6744 204.625 94.6241 204.802 94.5236C204.979 94.4196 205.117 94.2775 205.218 94.0972C205.322 93.9135 205.374 93.7037 205.374 93.468C205.374 93.2323 205.322 93.0243 205.218 92.844C205.117 92.6603 204.979 92.5164 204.802 92.4124C204.625 92.3084 204.426 92.2564 204.204 92.2564C203.999 92.2564 203.812 92.3084 203.642 92.4124C203.473 92.5129 203.336 92.6551 203.232 92.8388C203.131 93.0191 203.081 93.2288 203.081 93.468C203.081 93.7072 203.131 93.9187 203.232 94.1024C203.336 94.2827 203.473 94.4231 203.642 94.5236C203.812 94.6241 203.999 94.6744 204.204 94.6744ZM209.429 95.7248C208.975 95.7248 208.569 95.6277 208.212 95.4336C207.859 95.2395 207.581 94.9743 207.38 94.638C207.179 94.2983 207.079 93.9117 207.079 93.4784C207.079 93.0451 207.179 92.6585 207.38 92.3188C207.581 91.9756 207.859 91.7052 208.212 91.5076C208.569 91.3065 208.975 91.206 209.429 91.206C209.887 91.206 210.291 91.3065 210.641 91.5076C210.991 91.7052 211.265 91.9756 211.462 92.3188C211.66 92.6585 211.759 93.0451 211.759 93.4784C211.759 93.9117 211.66 94.2983 211.462 94.638C211.265 94.9743 210.991 95.2395 210.641 95.4336C210.291 95.6277 209.887 95.7248 209.429 95.7248ZM209.429 94.6276C209.648 94.6276 209.837 94.5791 209.996 94.482C210.159 94.3815 210.284 94.2445 210.37 94.0712C210.461 93.8944 210.506 93.6951 210.506 93.4732C210.506 93.2513 210.461 93.052 210.37 92.8752C210.284 92.6984 210.159 92.5597 209.996 92.4592C209.837 92.3552 209.648 92.3032 209.429 92.3032C209.211 92.3032 209.02 92.3552 208.857 92.4592C208.698 92.5597 208.573 92.6984 208.483 92.8752C208.393 93.052 208.348 93.2513 208.348 93.4732C208.348 93.6951 208.393 93.8944 208.483 94.0712C208.573 94.2445 208.698 94.3815 208.857 94.482C209.02 94.5791 209.211 94.6276 209.429 94.6276ZM213.358 95.7248C213.125 95.7248 212.926 95.6416 212.76 95.4752C212.593 95.3088 212.51 95.1095 212.51 94.8772C212.51 94.638 212.593 94.4352 212.76 94.2688C212.926 94.1024 213.125 94.0192 213.358 94.0192C213.597 94.0192 213.798 94.1024 213.961 94.2688C214.127 94.4352 214.211 94.638 214.211 94.8772C214.211 95.1095 214.127 95.3088 213.961 95.4752C213.798 95.6416 213.597 95.7248 213.358 95.7248ZM218.812 95.6H217.491V91.3308H218.812V92.0224H218.786C218.81 91.9392 218.876 91.8335 218.984 91.7052C219.095 91.5769 219.247 91.4625 219.441 91.362C219.635 91.258 219.869 91.206 220.143 91.206C220.341 91.206 220.519 91.2355 220.679 91.2944C220.842 91.3499 220.958 91.4053 221.027 91.4608L220.507 92.5424C220.462 92.4869 220.377 92.4297 220.252 92.3708C220.131 92.3119 219.979 92.2824 219.795 92.2824C219.576 92.2824 219.394 92.3431 219.249 92.4644C219.103 92.5823 218.994 92.7279 218.921 92.9012C218.848 93.0711 218.812 93.2305 218.812 93.3796V95.6ZM221.281 95.6V91.3308H222.597V95.6H221.281ZM221.957 90.2284C221.739 90.2284 221.553 90.1521 221.401 89.9996C221.252 89.8471 221.177 89.6651 221.177 89.4536C221.177 89.2421 221.253 89.0584 221.406 88.9024C221.558 88.7464 221.742 88.6684 221.957 88.6684C222.099 88.6684 222.229 88.7048 222.347 88.7776C222.465 88.8469 222.56 88.9405 222.633 89.0584C222.706 89.1763 222.742 89.308 222.742 89.4536C222.742 89.6651 222.664 89.8471 222.508 89.9996C222.356 90.1521 222.172 90.2284 221.957 90.2284ZM225.28 91.206C225.537 91.206 225.774 91.2303 225.992 91.2788C226.211 91.3239 226.395 91.3759 226.544 91.4348C226.696 91.4937 226.797 91.544 226.845 91.5856L226.393 92.3812C226.324 92.3257 226.199 92.2599 226.018 92.1836C225.842 92.1073 225.644 92.0692 225.426 92.0692C225.228 92.0692 225.062 92.1039 224.926 92.1732C224.791 92.2391 224.724 92.3396 224.724 92.4748C224.724 92.61 224.796 92.7175 224.942 92.7972C225.088 92.8769 225.29 92.9463 225.55 93.0052C225.769 93.0503 225.984 93.1196 226.195 93.2132C226.407 93.3033 226.582 93.4351 226.72 93.6084C226.859 93.7783 226.928 94.0053 226.928 94.2896C226.928 94.5704 226.868 94.8044 226.746 94.9916C226.629 95.1753 226.471 95.3209 226.273 95.4284C226.076 95.5359 225.859 95.6121 225.623 95.6572C225.388 95.7023 225.154 95.7248 224.921 95.7248C224.62 95.7248 224.354 95.6953 224.126 95.6364C223.897 95.5809 223.708 95.5168 223.559 95.444C223.413 95.3677 223.309 95.3036 223.247 95.2516L223.699 94.3676C223.789 94.4473 223.937 94.5357 224.141 94.6328C224.349 94.7264 224.573 94.7732 224.812 94.7732C225.062 94.7732 225.258 94.7299 225.4 94.6432C225.545 94.5565 225.618 94.4404 225.618 94.2948C225.618 94.1873 225.583 94.1007 225.514 94.0348C225.445 93.9655 225.349 93.9083 225.228 93.8632C225.107 93.8181 224.965 93.7783 224.802 93.7436C224.653 93.7124 224.5 93.6673 224.344 93.6084C224.188 93.546 224.042 93.4645 223.907 93.364C223.772 93.2635 223.663 93.1387 223.58 92.9896C223.496 92.8371 223.455 92.6551 223.455 92.4436C223.455 92.1732 223.542 91.9479 223.715 91.7676C223.888 91.5839 224.114 91.4452 224.391 91.3516C224.668 91.2545 224.965 91.206 225.28 91.206ZM230.339 91.3308H231.857L229.772 93.3692L232.044 95.6H230.49L228.716 93.8164V95.6H227.396V88.4448H228.716V92.896L230.339 91.3308ZM233.261 95.7248C233.028 95.7248 232.829 95.6416 232.663 95.4752C232.496 95.3088 232.413 95.1095 232.413 94.8772C232.413 94.638 232.496 94.4352 232.663 94.2688C232.829 94.1024 233.028 94.0192 233.261 94.0192C233.5 94.0192 233.701 94.1024 233.864 94.2688C234.03 94.4352 234.114 94.638 234.114 94.8772C234.114 95.1095 234.03 95.3088 233.864 95.4752C233.701 95.6416 233.5 95.7248 233.261 95.7248ZM239.646 97.8828C239.334 97.8828 239.034 97.8533 238.746 97.7944C238.462 97.7355 238.204 97.6436 237.971 97.5188C237.739 97.394 237.545 97.2311 237.389 97.03L238.19 96.2188C238.263 96.3124 238.356 96.406 238.471 96.4996C238.588 96.5967 238.738 96.6764 238.918 96.7388C239.098 96.8047 239.323 96.8376 239.594 96.8376C239.85 96.8376 240.07 96.7873 240.254 96.6868C240.441 96.5897 240.585 96.4511 240.686 96.2708C240.79 96.0905 240.842 95.8808 240.842 95.6416V95.522H242.137V95.7196C242.137 96.1911 242.026 96.588 241.804 96.9104C241.582 97.2328 241.284 97.4755 240.909 97.6384C240.535 97.8013 240.114 97.8828 239.646 97.8828ZM240.842 95.6V94.8564C240.811 94.9327 240.731 95.0401 240.603 95.1788C240.474 95.3175 240.301 95.444 240.083 95.5584C239.868 95.6693 239.615 95.7248 239.323 95.7248C238.914 95.7248 238.552 95.6277 238.237 95.4336C237.921 95.236 237.673 94.9673 237.493 94.6276C237.316 94.2844 237.228 93.8979 237.228 93.468C237.228 93.0381 237.316 92.6533 237.493 92.3136C237.673 91.9704 237.921 91.7 238.237 91.5024C238.552 91.3048 238.914 91.206 239.323 91.206C239.608 91.206 239.854 91.2545 240.062 91.3516C240.273 91.4452 240.443 91.5561 240.571 91.6844C240.703 91.8092 240.788 91.9219 240.826 92.0224V91.3308H242.137V95.6H240.842ZM238.523 93.468C238.523 93.7072 238.576 93.9187 238.684 94.1024C238.791 94.2827 238.933 94.4231 239.11 94.5236C239.287 94.6241 239.479 94.6744 239.687 94.6744C239.906 94.6744 240.1 94.6241 240.27 94.5236C240.44 94.4196 240.573 94.2775 240.67 94.0972C240.771 93.9135 240.821 93.7037 240.821 93.468C240.821 93.2323 240.771 93.0243 240.67 92.844C240.573 92.6603 240.44 92.5164 240.27 92.4124C240.1 92.3084 239.906 92.2564 239.687 92.2564C239.479 92.2564 239.287 92.3084 239.11 92.4124C238.933 92.5129 238.791 92.6551 238.684 92.8388C238.576 93.0191 238.523 93.2288 238.523 93.468ZM244.162 95.6H242.841V91.3308H244.162V92.0224H244.136C244.16 91.9392 244.226 91.8335 244.333 91.7052C244.444 91.5769 244.597 91.4625 244.791 91.362C244.985 91.258 245.219 91.206 245.493 91.206C245.69 91.206 245.869 91.2355 246.028 91.2944C246.191 91.3499 246.307 91.4053 246.377 91.4608L245.857 92.5424C245.812 92.4869 245.727 92.4297 245.602 92.3708C245.481 92.3119 245.328 92.2824 245.144 92.2824C244.926 92.2824 244.744 92.3431 244.598 92.4644C244.453 92.5823 244.344 92.7279 244.271 92.9012C244.198 93.0711 244.162 93.2305 244.162 93.3796V95.6ZM248.552 95.7248C248.098 95.7248 247.692 95.6277 247.335 95.4336C246.981 95.2395 246.704 94.9743 246.503 94.638C246.302 94.2983 246.201 93.9117 246.201 93.4784C246.201 93.0451 246.302 92.6585 246.503 92.3188C246.704 91.9756 246.981 91.7052 247.335 91.5076C247.692 91.3065 248.098 91.206 248.552 91.206C249.009 91.206 249.413 91.3065 249.763 91.5076C250.114 91.7052 250.387 91.9756 250.585 92.3188C250.783 92.6585 250.881 93.0451 250.881 93.4784C250.881 93.9117 250.783 94.2983 250.585 94.638C250.387 94.9743 250.114 95.2395 249.763 95.4336C249.413 95.6277 249.009 95.7248 248.552 95.7248ZM248.552 94.6276C248.77 94.6276 248.959 94.5791 249.119 94.482C249.282 94.3815 249.406 94.2445 249.493 94.0712C249.583 93.8944 249.628 93.6951 249.628 93.4732C249.628 93.2513 249.583 93.052 249.493 92.8752C249.406 92.6984 249.282 92.5597 249.119 92.4592C248.959 92.3552 248.77 92.3032 248.552 92.3032C248.333 92.3032 248.143 92.3552 247.98 92.4592C247.82 92.5597 247.696 92.6984 247.605 92.8752C247.515 93.052 247.47 93.2513 247.47 93.4732C247.47 93.6951 247.515 93.8944 247.605 94.0712C247.696 94.2445 247.82 94.3815 247.98 94.482C248.143 94.5791 248.333 94.6276 248.552 94.6276ZM254.56 92.8492L253.531 95.6H252.278L250.962 91.3308H252.366L253.084 94.1804L254.098 91.414H255.028L256.032 94.1804L256.755 91.3308H258.159L256.848 95.6H255.595L254.56 92.8492ZM259.491 95.7248C259.259 95.7248 259.059 95.6416 258.893 95.4752C258.727 95.3088 258.643 95.1095 258.643 94.8772C258.643 94.638 258.727 94.4352 258.893 94.2688C259.059 94.1024 259.259 94.0192 259.491 94.0192C259.73 94.0192 259.931 94.1024 260.094 94.2688C260.261 94.4352 260.344 94.638 260.344 94.8772C260.344 95.1095 260.261 95.3088 260.094 95.4752C259.931 95.6416 259.73 95.7248 259.491 95.7248Z" fill="white"/>
</g>
<defs>
<linearGradient id="paint0_linear_1406_21712" x1="0" y1="57.5" x2="390" y2="57.5" gradientUnits="userSpaceOnUse">
<stop stop-color="#153A7A"/>
<stop offset="1" stop-color="#276BE0"/>
</linearGradient>
<linearGradient id="paint1_linear_1406_21712" x1="16" y1="7" x2="32" y2="173.5" gradientUnits="userSpaceOnUse">
<stop offset="0.0552023" stop-color="#276BE0"/>
<stop offset="1" stop-color="#153A7A"/>
</linearGradient>
<clipPath id="clip0_1406_21712">
<rect width="130" height="39" fill="white" transform="translate(130 60)"/>
</clipPath>
</defs>
</svg>
