<svg width="133" height="133" viewBox="0 0 133 133" fill="none" xmlns="http://www.w3.org/2000/svg">
<g filter="url(#filter0_d_1247_12489)">
<g clip-path="url(#clip0_1247_12489)">
<rect x="5" y="3" width="123" height="123" rx="16" fill="white"/>
<path d="M17.94 94.8H20.93V108H17.94V94.8ZM27.7002 105.85C28.0802 105.85 28.3935 105.787 28.6402 105.66C28.8868 105.527 29.0535 105.42 29.1402 105.34L30.5302 107.4C30.4235 107.487 30.2402 107.6 29.9802 107.74C29.7202 107.873 29.3935 107.99 29.0002 108.09C28.6135 108.19 28.1702 108.24 27.6702 108.24C26.7302 108.24 25.9035 108.063 25.1902 107.71C24.4768 107.35 23.9202 106.843 23.5202 106.19C23.1268 105.537 22.9302 104.77 22.9302 103.89C22.9302 103.003 23.1268 102.237 23.5202 101.59C23.9202 100.943 24.4768 100.443 25.1902 100.09C25.9035 99.73 26.7302 99.55 27.6702 99.55C28.1635 99.55 28.6035 99.6033 28.9902 99.71C29.3835 99.81 29.7135 99.9267 29.9802 100.06C30.2468 100.187 30.4335 100.297 30.5402 100.39L29.1202 102.47C29.0735 102.423 28.9868 102.357 28.8602 102.27C28.7402 102.183 28.5835 102.107 28.3902 102.04C28.1968 101.973 27.9668 101.94 27.7002 101.94C27.3735 101.94 27.0668 102.023 26.7802 102.19C26.5002 102.357 26.2735 102.587 26.1002 102.88C25.9268 103.173 25.8402 103.51 25.8402 103.89C25.8402 104.27 25.9268 104.61 26.1002 104.91C26.2735 105.203 26.5002 105.433 26.7802 105.6C27.0668 105.767 27.3735 105.85 27.7002 105.85ZM34.1858 104.54C34.2058 104.833 34.2991 105.093 34.4658 105.32C34.6324 105.547 34.8624 105.727 35.1558 105.86C35.4558 105.987 35.8091 106.05 36.2158 106.05C36.6024 106.05 36.9491 106.01 37.2558 105.93C37.5691 105.85 37.8391 105.75 38.0658 105.63C38.2991 105.51 38.4791 105.387 38.6058 105.26L39.7858 107.14C39.6191 107.32 39.3824 107.497 39.0758 107.67C38.7758 107.837 38.3791 107.973 37.8858 108.08C37.3924 108.187 36.7691 108.24 36.0158 108.24C35.1091 108.24 34.3024 108.07 33.5958 107.73C32.8891 107.39 32.3324 106.89 31.9258 106.23C31.5191 105.57 31.3158 104.763 31.3158 103.81C31.3158 103.01 31.4891 102.29 31.8358 101.65C32.1891 101.003 32.6991 100.493 33.3658 100.12C34.0324 99.74 34.8358 99.55 35.7758 99.55C36.6691 99.55 37.4424 99.7133 38.0958 100.04C38.7558 100.367 39.2624 100.853 39.6158 101.5C39.9758 102.14 40.1558 102.94 40.1558 103.9C40.1558 103.953 40.1524 104.06 40.1458 104.22C40.1458 104.38 40.1391 104.487 40.1258 104.54H34.1858ZM37.2958 102.95C37.2891 102.737 37.2324 102.527 37.1258 102.32C37.0191 102.107 36.8591 101.933 36.6458 101.8C36.4324 101.66 36.1591 101.59 35.8258 101.59C35.4924 101.59 35.2091 101.657 34.9758 101.79C34.7491 101.917 34.5758 102.083 34.4558 102.29C34.3358 102.497 34.2691 102.717 34.2558 102.95H37.2958ZM41.6767 108V94.24H44.7167V100.99C44.7767 100.803 44.9301 100.6 45.1767 100.38C45.4301 100.153 45.7601 99.96 46.1667 99.8C46.5801 99.6333 47.0467 99.55 47.5667 99.55C48.3667 99.55 49.0601 99.7467 49.6467 100.14C50.2334 100.533 50.6867 101.06 51.0067 101.72C51.3267 102.373 51.4867 103.1 51.4867 103.9C51.4867 104.7 51.3267 105.43 51.0067 106.09C50.6867 106.743 50.2334 107.267 49.6467 107.66C49.0601 108.047 48.3667 108.24 47.5667 108.24C47.1267 108.24 46.7101 108.16 46.3167 108C45.9301 107.847 45.5934 107.65 45.3067 107.41C45.0267 107.163 44.8201 106.917 44.6867 106.67V108H41.6767ZM48.5067 103.9C48.5067 103.527 48.4234 103.193 48.2567 102.9C48.0967 102.6 47.8734 102.367 47.5867 102.2C47.3067 102.027 46.9901 101.94 46.6367 101.94C46.2701 101.94 45.9401 102.027 45.6467 102.2C45.3601 102.367 45.1334 102.6 44.9667 102.9C44.8001 103.193 44.7167 103.527 44.7167 103.9C44.7167 104.273 44.8001 104.61 44.9667 104.91C45.1334 105.203 45.3601 105.433 45.6467 105.6C45.9401 105.767 46.2701 105.85 46.6367 105.85C46.9901 105.85 47.3067 105.767 47.5867 105.6C47.8734 105.433 48.0967 105.203 48.2567 104.91C48.4234 104.61 48.5067 104.273 48.5067 103.9ZM55.6786 108H52.6386V99.79H55.6786V101.06H55.6286C55.6819 100.907 55.8119 100.713 56.0186 100.48C56.2253 100.24 56.5153 100.027 56.8886 99.84C57.2619 99.6467 57.7186 99.55 58.2586 99.55C58.6386 99.55 58.9886 99.61 59.3086 99.73C59.6286 99.8433 59.8619 99.9533 60.0086 100.06L58.8286 102.53C58.7353 102.417 58.5686 102.3 58.3286 102.18C58.0953 102.053 57.8019 101.99 57.4486 101.99C57.0419 101.99 56.7053 102.093 56.4386 102.3C56.1786 102.507 55.9853 102.757 55.8586 103.05C55.7386 103.343 55.6786 103.62 55.6786 103.88V108ZM63.0334 104.54C63.0534 104.833 63.1468 105.093 63.3134 105.32C63.4801 105.547 63.7101 105.727 64.0034 105.86C64.3034 105.987 64.6568 106.05 65.0634 106.05C65.4501 106.05 65.7968 106.01 66.1034 105.93C66.4168 105.85 66.6868 105.75 66.9134 105.63C67.1468 105.51 67.3268 105.387 67.4534 105.26L68.6334 107.14C68.4668 107.32 68.2301 107.497 67.9234 107.67C67.6234 107.837 67.2268 107.973 66.7334 108.08C66.2401 108.187 65.6168 108.24 64.8634 108.24C63.9568 108.24 63.1501 108.07 62.4434 107.73C61.7368 107.39 61.1801 106.89 60.7734 106.23C60.3668 105.57 60.1634 104.763 60.1634 103.81C60.1634 103.01 60.3368 102.29 60.6834 101.65C61.0368 101.003 61.5468 100.493 62.2134 100.12C62.8801 99.74 63.6834 99.55 64.6234 99.55C65.5168 99.55 66.2901 99.7133 66.9434 100.04C67.6034 100.367 68.1101 100.853 68.4634 101.5C68.8234 102.14 69.0034 102.94 69.0034 103.9C69.0034 103.953 69.0001 104.06 68.9934 104.22C68.9934 104.38 68.9868 104.487 68.9734 104.54H63.0334ZM66.1434 102.95C66.1368 102.737 66.0801 102.527 65.9734 102.32C65.8668 102.107 65.7068 101.933 65.4934 101.8C65.2801 101.66 65.0068 101.59 64.6734 101.59C64.3401 101.59 64.0568 101.657 63.8234 101.79C63.5968 101.917 63.4234 102.083 63.3034 102.29C63.1834 102.497 63.1168 102.717 63.1034 102.95H66.1434ZM76.9444 108V106.67C76.8844 106.803 76.731 106.997 76.4844 107.25C76.2444 107.503 75.9244 107.733 75.5244 107.94C75.1244 108.14 74.6577 108.24 74.1244 108.24C73.3244 108.24 72.6244 108.047 72.0244 107.66C71.4244 107.267 70.9577 106.743 70.6244 106.09C70.291 105.43 70.1244 104.7 70.1244 103.9C70.1244 103.1 70.291 102.373 70.6244 101.72C70.9577 101.06 71.4244 100.533 72.0244 100.14C72.6244 99.7467 73.3244 99.55 74.1244 99.55C74.6377 99.55 75.0877 99.6333 75.4744 99.8C75.861 99.96 76.1744 100.153 76.4144 100.38C76.6544 100.6 76.821 100.803 76.9144 100.99V99.79H79.9344V108H76.9444ZM73.1044 103.9C73.1044 104.273 73.191 104.61 73.3644 104.91C73.5377 105.203 73.7677 105.433 74.0544 105.6C74.3477 105.767 74.671 105.85 75.0244 105.85C75.391 105.85 75.7144 105.767 75.9944 105.6C76.2744 105.433 76.4944 105.203 76.6544 104.91C76.821 104.61 76.9044 104.273 76.9044 103.9C76.9044 103.527 76.821 103.193 76.6544 102.9C76.4944 102.6 76.2744 102.367 75.9944 102.2C75.7144 102.027 75.391 101.94 75.0244 101.94C74.671 101.94 74.3477 102.027 74.0544 102.2C73.7677 102.367 73.5377 102.6 73.3644 102.9C73.191 103.193 73.1044 103.527 73.1044 103.9ZM87.4634 99.79H90.9034L87.0334 103.71L91.3034 108H87.7834L84.6134 104.7V108H81.5734V94.24H84.6134V102.65L87.4634 99.79ZM94.1467 104.54C94.1667 104.833 94.2601 105.093 94.4267 105.32C94.5934 105.547 94.8234 105.727 95.1167 105.86C95.4167 105.987 95.7701 106.05 96.1767 106.05C96.5634 106.05 96.9101 106.01 97.2167 105.93C97.5301 105.85 97.8001 105.75 98.0267 105.63C98.2601 105.51 98.4401 105.387 98.5667 105.26L99.7467 107.14C99.5801 107.32 99.3434 107.497 99.0367 107.67C98.7367 107.837 98.3401 107.973 97.8467 108.08C97.3534 108.187 96.7301 108.24 95.9767 108.24C95.0701 108.24 94.2634 108.07 93.5567 107.73C92.8501 107.39 92.2934 106.89 91.8867 106.23C91.4801 105.57 91.2767 104.763 91.2767 103.81C91.2767 103.01 91.4501 102.29 91.7967 101.65C92.1501 101.003 92.6601 100.493 93.3267 100.12C93.9934 99.74 94.7967 99.55 95.7367 99.55C96.6301 99.55 97.4034 99.7133 98.0567 100.04C98.7167 100.367 99.2234 100.853 99.5767 101.5C99.9367 102.14 100.117 102.94 100.117 103.9C100.117 103.953 100.113 104.06 100.107 104.22C100.107 104.38 100.1 104.487 100.087 104.54H94.1467ZM97.2567 102.95C97.2501 102.737 97.1934 102.527 97.0867 102.32C96.9801 102.107 96.8201 101.933 96.6067 101.8C96.3934 101.66 96.1201 101.59 95.7867 101.59C95.4534 101.59 95.1701 101.657 94.9367 101.79C94.7101 101.917 94.5367 102.083 94.4167 102.29C94.2967 102.497 94.2301 102.717 94.2167 102.95H97.2567ZM104.468 108H101.428V99.79H104.468V101.06H104.418C104.471 100.907 104.601 100.713 104.808 100.48C105.014 100.24 105.304 100.027 105.678 99.84C106.051 99.6467 106.508 99.55 107.048 99.55C107.428 99.55 107.778 99.61 108.098 99.73C108.418 99.8433 108.651 99.9533 108.798 100.06L107.618 102.53C107.524 102.417 107.358 102.3 107.118 102.18C106.884 102.053 106.591 101.99 106.238 101.99C105.831 101.99 105.494 102.093 105.228 102.3C104.968 102.507 104.774 102.757 104.648 103.05C104.528 103.343 104.468 103.62 104.468 103.88V108Z" fill="#9FBAF1"/>
<rect x="96.2002" y="44.8999" width="32.2" height="32.2" rx="7" fill="url(#paint0_radial_1247_12489)"/>
<g style="mix-blend-mode:multiply">
<circle cx="111.207" cy="66.2074" r="1.69982" transform="rotate(0.256274 111.207 66.2074)" fill="#9FBAF1"/>
</g>
<g style="mix-blend-mode:multiply">
<circle cx="122.256" cy="66.2567" r="1.69982" transform="rotate(0.256274 122.256 66.2567)" fill="#9FBAF1"/>
</g>
<g style="mix-blend-mode:multiply">
<path d="M119.993 69.3999H113.707C113.703 69.3999 113.7 69.4029 113.7 69.4068C113.705 70.4841 114.793 72.1999 116.85 72.1999C118.907 72.1999 119.995 70.2715 120 69.4067C120 69.4028 119.997 69.3999 119.993 69.3999Z" fill="#9FBAF1"/>
</g>
<rect x="80.0999" y="12" width="32.9" height="32.9" rx="7" fill="url(#paint1_radial_1247_12489)"/>
<g style="mix-blend-mode:multiply">
<path d="M103.865 32.3251C103.45 32.9618 102.622 33.5977 101.177 33.5951C99.731 33.5925 98.9066 32.9536 98.4954 32.3154" stroke="#9FBAF1" stroke-width="1.4" stroke-linecap="round"/>
</g>
<g style="mix-blend-mode:multiply">
<path d="M95.2737 32.3096C94.8588 32.9463 94.0308 33.5822 92.5851 33.5796C91.1395 33.577 90.3151 32.9381 89.9038 32.2999" stroke="#9FBAF1" stroke-width="1.4" stroke-linecap="round"/>
</g>
<g style="mix-blend-mode:multiply">
<path d="M99.0504 35.8045C98.7229 36.4416 98.0684 37.0783 96.9243 37.0771C95.7803 37.0759 95.1271 36.4377 94.8009 35.7999" stroke="#9FBAF1" stroke-width="1.4" stroke-linecap="round"/>
</g>
<path d="M89.554 44.6169C93.4199 44.617 96.554 47.751 96.554 51.6169V70.2341C96.5539 74.1 93.4199 77.2341 89.554 77.2341H83.5452C84.5548 79.6944 86.9731 81.4274 89.7971 81.4275H92.9426C94.9369 81.4276 96.554 83.0445 96.554 85.0388C96.5539 87.0331 94.9369 88.6501 92.9426 88.6501H73.1389C71.1447 88.65 69.5286 87.0331 69.5286 85.0388C69.5286 83.0445 67.9115 81.4277 65.9172 81.4275H26.427C23.9823 81.4275 22.0002 79.4455 22.0002 77.0007C22.0004 74.5561 23.9824 72.574 26.427 72.574H40.4055C42.2069 72.574 43.6672 71.1136 43.6672 69.3123C43.6675 67.5112 45.1278 66.0516 46.929 66.0515H63.9368V51.6169C63.9368 47.751 67.0708 44.617 70.9368 44.6169H89.554Z" fill="url(#paint2_radial_1247_12489)"/>
<g style="mix-blend-mode:multiply">
<path d="M78.7511 70.1044C78.4235 70.7415 77.7691 71.3782 76.625 71.377C75.481 71.3758 74.8278 70.7377 74.5016 70.0999" stroke="#9FBAF1" stroke-width="1.4" stroke-linecap="round"/>
</g>
<g style="mix-blend-mode:multiply">
<path d="M71.0005 64.5L74.1385 67.6381C74.1429 67.6425 74.1398 67.65 74.1336 67.65H71.0005" stroke="#9FBAF1" stroke-width="1.4" stroke-linecap="round"/>
</g>
<g style="mix-blend-mode:multiply">
<path d="M81.8503 64.5L78.7123 67.6381C78.7079 67.6425 78.711 67.65 78.7172 67.65H81.8503" stroke="#9FBAF1" stroke-width="1.4" stroke-linecap="round"/>
</g>
</g>
<rect x="5.5" y="3.5" width="122" height="122" rx="15.5" stroke="#EBEBEB"/>
</g>
<defs>
<filter id="filter0_d_1247_12489" x="0" y="0" width="133" height="133" filterUnits="userSpaceOnUse" color-interpolation-filters="sRGB">
<feFlood flood-opacity="0" result="BackgroundImageFix"/>
<feColorMatrix in="SourceAlpha" type="matrix" values="0 0 0 0 0 0 0 0 0 0 0 0 0 0 0 0 0 0 127 0" result="hardAlpha"/>
<feOffset dy="2"/>
<feGaussianBlur stdDeviation="2.5"/>
<feColorMatrix type="matrix" values="0 0 0 0 0 0 0 0 0 0 0 0 0 0 0 0 0 0 0.05 0"/>
<feBlend mode="normal" in2="BackgroundImageFix" result="effect1_dropShadow_1247_12489"/>
<feBlend mode="normal" in="SourceGraphic" in2="effect1_dropShadow_1247_12489" result="shape"/>
</filter>
<radialGradient id="paint0_radial_1247_12489" cx="0" cy="0" r="1" gradientUnits="userSpaceOnUse" gradientTransform="translate(115.8 67.2999) rotate(107.745) scale(18.3742)">
<stop stop-color="#9FBAF1"/>
<stop offset="1" stop-color="#BAD1FE"/>
</radialGradient>
<radialGradient id="paint1_radial_1247_12489" cx="0" cy="0" r="1" gradientUnits="userSpaceOnUse" gradientTransform="translate(96.8999 33.35) rotate(90) scale(16.45)">
<stop stop-color="#9FBAF1"/>
<stop offset="1" stop-color="#BAD1FE"/>
</radialGradient>
<radialGradient id="paint2_radial_1247_12489" cx="0" cy="0" r="1" gradientUnits="userSpaceOnUse" gradientTransform="translate(75.9005 69.0501) rotate(130.302) scale(25.7002 43.5136)">
<stop stop-color="#9FBAF1"/>
<stop offset="1" stop-color="#BAD1FE"/>
</radialGradient>
<clipPath id="clip0_1247_12489">
<rect x="5" y="3" width="123" height="123" rx="16" fill="white"/>
</clipPath>
</defs>
</svg>
