<svg width="133" height="133" viewBox="0 0 133 133" fill="none" xmlns="http://www.w3.org/2000/svg">
<g filter="url(#filter0_d_ib)">
<g clip-path="url(#clip0_ib)">
<rect x="5" y="3" width="123" height="123" rx="16" fill="white"/>
<g transform="translate(22, 11) scale(0.70)">
<rect x="106" y="47" width="46" height="46" rx="10" fill="url(#paint0_radial_ib)"/>
<circle cx="127.439" cy="77.4392" r="2.42831" transform="rotate(0.256274 127.439 77.4392)" fill="#6B8FD4"/>
<circle cx="143.223" cy="77.5097" r="2.42831" transform="rotate(0.256274 143.223 77.5097)" fill="#6B8FD4"/>
<path d="M139.99 82H131.01C131.004 82 131 82.0043 131 82.0098C131.007 83.5489 132.561 86 135.5 86C138.438 86 139.992 83.2452 140 82.0097C140 82.0041 139.996 82 139.99 82Z" fill="#6B8FD4"/>
<rect x="83" y="0" width="47" height="47" rx="10" fill="url(#paint1_radial_ib)"/>
<path d="M116.951 29.0359C116.358 29.9455 115.175 30.854 113.11 30.8503C111.045 30.8465 109.867 29.9338 109.279 29.0221" stroke="#6B8FD4" stroke-width="2" stroke-linecap="round"/>
<path d="M104.677 29.0137C104.084 29.9233 102.901 30.8318 100.836 30.828C98.7706 30.8243 97.5929 29.9116 97.0054 28.9999" stroke="#6B8FD4" stroke-width="2" stroke-linecap="round"/>
<path d="M110.073 34.0064C109.605 34.9165 108.67 35.8261 107.035 35.8244C105.401 35.8226 104.468 34.911 104.002 33.9999" stroke="#6B8FD4" stroke-width="2" stroke-linecap="round"/>
<path d="M96.5049 46.5957C102.028 46.5959 106.505 51.073 106.505 56.5957V83.1914C106.505 88.7141 102.028 93.1912 96.5049 93.1914H87.9209C89.3631 96.7063 92.818 99.1826 96.8525 99.1826H101.346C104.195 99.1826 106.505 101.492 106.505 104.341C106.505 107.19 104.195 109.5 101.346 109.5H73.0557C70.2065 109.5 67.8965 107.19 67.8965 104.341C67.8963 101.492 65.5871 99.1829 62.7383 99.1826H6.32324C2.83097 99.1824 0 96.3507 0 92.8584C0.000142759 89.3662 2.83106 86.5354 6.32324 86.5352H26.293C28.8664 86.5352 30.9531 84.4484 30.9531 81.875C30.9533 79.3018 33.0391 77.2159 35.6123 77.2158H59.9092V56.5957C59.9092 51.0729 64.3864 46.5957 69.9092 46.5957H96.5049Z" fill="url(#paint2_radial_ib)"/>
<path d="M81.0727 83.0064C80.6048 83.9165 79.6699 84.8261 78.0355 84.8244C76.4011 84.8226 75.468 83.911 75.002 82.9999" stroke="#6B8FD4" stroke-width="2" stroke-linecap="round"/>
<path d="M70 75L74.4829 79.4829C74.4892 79.4892 74.4848 79.5 74.4759 79.5H70" stroke="#6B8FD4" stroke-width="2" stroke-linecap="round"/>
<path d="M85.5 75L81.0171 79.4829C81.0108 79.4892 81.0152 79.5 81.0241 79.5H85.5" stroke="#6B8FD4" stroke-width="2" stroke-linecap="round"/>
</g>
<g transform="translate(-1.2, 80) scale(0.792)" fill="#9FBAF1">
<path d="M22.222 25.84H26.109V43H22.222V25.84ZM34.9102 40.205C35.4042 40.205 35.8115 40.1227 36.1322 39.958C36.4529 39.7847 36.6695 39.646 36.7822 39.542L38.5892 42.22C38.4505 42.3327 38.2122 42.48 37.8742 42.662C37.5362 42.8353 37.1115 42.987 36.6002 43.117C36.0975 43.247 35.5212 43.312 34.8712 43.312C33.6492 43.312 32.5745 43.0823 31.6472 42.623C30.7199 42.155 29.9962 41.4963 29.4762 40.647C28.9649 39.7977 28.7092 38.801 28.7092 37.657C28.7092 36.5043 28.9649 35.5077 29.4762 34.667C29.9962 33.8263 30.7199 33.1763 31.6472 32.717C32.5745 32.249 33.6492 32.015 34.8712 32.015C35.5125 32.015 36.0845 32.0843 36.5872 32.223C37.0985 32.353 37.5275 32.5047 37.8742 32.678C38.2209 32.8427 38.4635 32.9857 38.6022 33.107L36.7562 35.811C36.6955 35.7503 36.5829 35.6637 36.4182 35.551C36.2622 35.4383 36.0585 35.3387 35.8072 35.252C35.5559 35.1653 35.2569 35.122 34.9102 35.122C34.4855 35.122 34.0869 35.2303 33.7142 35.447C33.3502 35.6637 33.0555 35.9627 32.8302 36.344C32.6049 36.7253 32.4922 37.163 32.4922 37.657C32.4922 38.151 32.6049 38.593 32.8302 38.983C33.0555 39.3643 33.3502 39.6633 33.7142 39.88C34.0869 40.0967 34.4855 40.205 34.9102 40.205ZM43.3415 38.502C43.3675 38.8833 43.4888 39.2213 43.7055 39.516C43.9222 39.8107 44.2212 40.0447 44.6025 40.218C44.9925 40.3827 45.4518 40.465 45.9805 40.465C46.4832 40.465 46.9338 40.413 47.3325 40.309C47.7398 40.205 48.0908 40.075 48.3855 39.919C48.6888 39.763 48.9228 39.6027 49.0875 39.438L50.6215 41.882C50.4048 42.116 50.0972 42.3457 49.6985 42.571C49.3085 42.7877 48.7928 42.9653 48.1515 43.104C47.5102 43.2427 46.6998 43.312 45.7205 43.312C44.5418 43.312 43.4932 43.091 42.5745 42.649C41.6558 42.207 40.9322 41.557 40.4035 40.699C39.8748 39.841 39.6105 38.7923 39.6105 37.553C39.6105 36.513 39.8358 35.577 40.2865 34.745C40.7458 33.9043 41.4088 33.2413 42.2755 32.756C43.1422 32.262 44.1865 32.015 45.4085 32.015C46.5698 32.015 47.5752 32.2273 48.4245 32.652C49.2825 33.0767 49.9412 33.7093 50.4005 34.55C50.8685 35.382 51.1025 36.422 51.1025 37.67C51.1025 37.7393 51.0982 37.878 51.0895 38.086C51.0895 38.294 51.0808 38.4327 51.0635 38.502H43.3415ZM47.3845 36.435C47.3758 36.1577 47.3022 35.8847 47.1635 35.616C47.0248 35.3387 46.8168 35.1133 46.5395 34.94C46.2622 34.758 45.9068 34.667 45.4735 34.667C45.0402 34.667 44.6718 34.7537 44.3685 34.927C44.0738 35.0917 43.8485 35.3083 43.6925 35.577C43.5365 35.8457 43.4498 36.1317 43.4325 36.435H47.3845ZM53.0797 43V25.112H57.0317V33.887C57.1097 33.6443 57.3091 33.38 57.6297 33.094C57.9591 32.7993 58.3881 32.548 58.9167 32.34C59.4541 32.1233 60.0607 32.015 60.7367 32.015C61.7767 32.015 62.6781 32.2707 63.4407 32.782C64.2034 33.2933 64.7927 33.978 65.2087 34.836C65.6247 35.6853 65.8327 36.63 65.8327 37.67C65.8327 38.71 65.6247 39.659 65.2087 40.517C64.7927 41.3663 64.2034 42.0467 63.4407 42.558C62.6781 43.0607 61.7767 43.312 60.7367 43.312C60.1647 43.312 59.6231 43.208 59.1117 43C58.6091 42.8007 58.1714 42.545 57.7987 42.233C57.4347 41.9123 57.1661 41.5917 56.9927 41.271V43H53.0797ZM61.9587 37.67C61.9587 37.1847 61.8504 36.7513 61.6337 36.37C61.4257 35.98 61.1354 35.6767 60.7627 35.46C60.3987 35.2347 59.9871 35.122 59.5277 35.122C59.0511 35.122 58.6221 35.2347 58.2407 35.46C57.8681 35.6767 57.5734 35.98 57.3567 36.37C57.1401 36.7513 57.0317 37.1847 57.0317 37.67C57.0317 38.1553 57.1401 38.593 57.3567 38.983C57.5734 39.3643 57.8681 39.6633 58.2407 39.88C58.6221 40.0967 59.0511 40.205 59.5277 40.205C59.9871 40.205 60.3987 40.0967 60.7627 39.88C61.1354 39.6633 61.4257 39.3643 61.6337 38.983C61.8504 38.593 61.9587 38.1553 61.9587 37.67ZM71.2822 43H67.3302V32.327H71.2822V33.978H71.2172C71.2865 33.7787 71.4555 33.5273 71.7242 33.224C71.9928 32.912 72.3698 32.6347 72.8552 32.392C73.3405 32.1407 73.9342 32.015 74.6362 32.015C75.1302 32.015 75.5852 32.093 76.0012 32.249C76.4172 32.3963 76.7205 32.5393 76.9112 32.678L75.3772 35.889C75.2558 35.7417 75.0392 35.59 74.7272 35.434C74.4238 35.2693 74.0425 35.187 73.5832 35.187C73.0545 35.187 72.6168 35.3213 72.2702 35.59C71.9322 35.8587 71.6808 36.1837 71.5162 36.565C71.3602 36.9463 71.2822 37.306 71.2822 37.644V43ZM80.8435 38.502C80.8695 38.8833 80.9908 39.2213 81.2075 39.516C81.4241 39.8107 81.7231 40.0447 82.1045 40.218C82.4945 40.3827 82.9538 40.465 83.4825 40.465C83.9851 40.465 84.4358 40.413 84.8345 40.309C85.2418 40.205 85.5928 40.075 85.8875 39.919C86.1908 39.763 86.4248 39.6027 86.5895 39.438L88.1235 41.882C87.9068 42.116 87.5991 42.3457 87.2005 42.571C86.8105 42.7877 86.2948 42.9653 85.6535 43.104C85.0121 43.2427 84.2018 43.312 83.2225 43.312C82.0438 43.312 80.9951 43.091 80.0765 42.649C79.1578 42.207 78.4341 41.557 77.9055 40.699C77.3768 39.841 77.1125 38.7923 77.1125 37.553C77.1125 36.513 77.3378 35.577 77.7885 34.745C78.2478 33.9043 78.9108 33.2413 79.7775 32.756C80.6441 32.262 81.6885 32.015 82.9105 32.015C84.0718 32.015 85.0771 32.2273 85.9265 32.652C86.7845 33.0767 87.4431 33.7093 87.9025 34.55C88.3705 35.382 88.6045 36.422 88.6045 37.67C88.6045 37.7393 88.6001 37.878 88.5915 38.086C88.5915 38.294 88.5828 38.4327 88.5655 38.502H80.8435ZM84.8865 36.435C84.8778 36.1577 84.8041 35.8847 84.6655 35.616C84.5268 35.3387 84.3188 35.1133 84.0415 34.94C83.7641 34.758 83.4088 34.667 82.9755 34.667C82.5421 34.667 82.1738 34.7537 81.8705 34.927C81.5758 35.0917 81.3505 35.3083 81.1945 35.577C81.0385 35.8457 80.9518 36.1317 80.9345 36.435H84.8865ZM98.9277 43V41.271C98.8497 41.4443 98.6504 41.6957 98.3297 42.025C98.0177 42.3543 97.6017 42.6533 97.0817 42.922C96.5617 43.182 95.955 43.312 95.2617 43.312C94.2217 43.312 93.3117 43.0607 92.5317 42.558C91.7517 42.0467 91.145 41.3663 90.7117 40.517C90.2784 39.659 90.0617 38.71 90.0617 37.67C90.0617 36.63 90.2784 35.6853 90.7117 34.836C91.145 33.978 91.7517 33.2933 92.5317 32.782C93.3117 32.2707 94.2217 32.015 95.2617 32.015C95.929 32.015 96.514 32.1233 97.0167 32.34C97.5194 32.548 97.9267 32.7993 98.2387 33.094C98.5507 33.38 98.7674 33.6443 98.8887 33.887V32.327H102.815V43H98.9277ZM93.9357 37.67C93.9357 38.1553 94.0484 38.593 94.2737 38.983C94.499 39.3643 94.798 39.6633 95.1707 39.88C95.552 40.0967 95.9724 40.205 96.4317 40.205C96.9084 40.205 97.3287 40.0967 97.6927 39.88C98.0567 39.6633 98.3427 39.3643 98.5507 38.983C98.7674 38.593 98.8757 38.1553 98.8757 37.67C98.8757 37.1847 98.7674 36.7513 98.5507 36.37C98.3427 35.98 98.0567 35.6767 97.6927 35.46C97.3287 35.2347 96.9084 35.122 96.4317 35.122C95.9724 35.122 95.552 35.2347 95.1707 35.46C94.798 35.6767 94.499 35.98 94.2737 36.37C94.0484 36.7513 93.9357 37.1847 93.9357 37.67ZM112.602 32.327H117.074L112.043 37.423L117.594 43H113.018L108.897 38.71V43H104.945V25.112H108.897V36.045L112.602 32.327ZM121.291 38.502C121.317 38.8833 121.438 39.2213 121.655 39.516C121.871 39.8107 122.17 40.0447 122.552 40.218C122.942 40.3827 123.401 40.465 123.93 40.465C124.432 40.465 124.883 40.413 125.282 40.309C125.689 40.205 126.04 40.075 126.335 39.919C126.638 39.763 126.872 39.6027 127.037 39.438L128.571 41.882C128.354 42.116 128.046 42.3457 127.648 42.571C127.258 42.7877 126.742 42.9653 126.101 43.104C125.459 43.2427 124.649 43.312 123.67 43.312C122.491 43.312 121.442 43.091 120.524 42.649C119.605 42.207 118.881 41.557 118.353 40.699C117.824 39.841 117.56 38.7923 117.56 37.553C117.56 36.513 117.785 35.577 118.236 34.745C118.695 33.9043 119.358 33.2413 120.225 32.756C121.091 32.262 122.136 32.015 123.358 32.015C124.519 32.015 125.524 32.2273 126.374 32.652C127.232 33.0767 127.89 33.7093 128.35 34.55C128.818 35.382 129.052 36.422 129.052 37.67C129.052 37.7393 129.047 37.878 129.039 38.086C129.039 38.294 129.03 38.4327 129.013 38.502H121.291ZM125.334 36.435C125.325 36.1577 125.251 35.8847 125.113 35.616C124.974 35.3387 124.766 35.1133 124.489 34.94C124.211 34.758 123.856 34.667 123.423 34.667C122.989 34.667 122.621 34.7537 122.318 34.927C122.023 35.0917 121.798 35.3083 121.642 35.577C121.486 35.8457 121.399 36.1317 121.382 36.435H125.334ZM134.708 43H130.756V32.327H134.708V33.978H134.643C134.712 33.7787 134.881 33.5273 135.15 33.224C135.419 32.912 135.796 32.6347 136.281 32.392C136.766 32.1407 137.36 32.015 138.062 32.015C138.556 32.015 139.011 32.093 139.427 32.249C139.843 32.3963 140.146 32.5393 140.337 32.678L138.803 35.889C138.682 35.7417 138.465 35.59 138.153 35.434C137.85 35.2693 137.468 35.187 137.009 35.187C136.48 35.187 136.043 35.3213 135.696 35.59C135.358 35.8587 135.107 36.1837 134.942 36.565C134.786 36.9463 134.708 37.306 134.708 37.644V43Z"/>
</g>
</g>
<rect x="5.5" y="3.5" width="122" height="122" rx="15.5" stroke="#EBEBEB"/>
</g>
<defs>
<filter id="filter0_d_ib" x="0" y="0" width="133" height="133" filterUnits="userSpaceOnUse" color-interpolation-filters="sRGB">
<feFlood flood-opacity="0" result="BackgroundImageFix"/>
<feColorMatrix in="SourceAlpha" type="matrix" values="0 0 0 0 0 0 0 0 0 0 0 0 0 0 0 0 0 0 127 0" result="hardAlpha"/>
<feOffset dy="2"/>
<feGaussianBlur stdDeviation="2.5"/>
<feColorMatrix type="matrix" values="0 0 0 0 0 0 0 0 0 0 0 0 0 0 0 0 0 0 0.05 0"/>
<feBlend mode="normal" in2="BackgroundImageFix" result="effect1_dropShadow_ib"/>
<feBlend mode="normal" in="SourceGraphic" in2="effect1_dropShadow_ib" result="shape"/>
</filter>
<radialGradient id="paint0_radial_ib" cx="0" cy="0" r="1" gradientUnits="userSpaceOnUse" gradientTransform="translate(134 79) rotate(107.745) scale(26.2488)">
<stop stop-color="#9FBAF1"/>
<stop offset="1" stop-color="#BAD1FE"/>
</radialGradient>
<radialGradient id="paint1_radial_ib" cx="0" cy="0" r="1" gradientUnits="userSpaceOnUse" gradientTransform="translate(107 30.5) rotate(90) scale(23.5)">
<stop stop-color="#9FBAF1"/>
<stop offset="1" stop-color="#BAD1FE"/>
</radialGradient>
<radialGradient id="paint2_radial_ib" cx="0" cy="0" r="1" gradientUnits="userSpaceOnUse" gradientTransform="translate(77 81.5) rotate(130.302) scale(36.7144 62.1621)">
<stop stop-color="#9FBAF1"/>
<stop offset="1" stop-color="#BAD1FE"/>
</radialGradient>
<clipPath id="clip0_ib">
<rect x="5" y="3" width="123" height="123" rx="16" fill="white"/>
</clipPath>
</defs>
</svg>
