<svg width="133" height="133" viewBox="0 0 133 133" fill="none" xmlns="http://www.w3.org/2000/svg">
<g filter="url(#filter0_d_1247_12478)">
<rect x="5" y="3" width="123" height="123" rx="16" fill="white"/>
<rect x="5.5" y="3.5" width="122" height="122" rx="15.5" stroke="#EBEBEB"/>
<path d="M20.52 101.39C20.52 102.143 20.6733 102.827 20.98 103.44C21.2933 104.047 21.7233 104.53 22.27 104.89C22.8233 105.25 23.4633 105.43 24.19 105.43C24.9167 105.43 25.5533 105.25 26.1 104.89C26.6533 104.53 27.0833 104.047 27.39 103.44C27.7033 102.827 27.86 102.143 27.86 101.39C27.86 100.637 27.7033 99.9567 27.39 99.35C27.0833 98.7433 26.6533 98.26 26.1 97.9C25.5533 97.5333 24.9167 97.35 24.19 97.35C23.4633 97.35 22.8233 97.5333 22.27 97.9C21.7233 98.26 21.2933 98.7433 20.98 99.35C20.6733 99.9567 20.52 100.637 20.52 101.39ZM17.41 101.39C17.41 100.43 17.58 99.5367 17.92 98.71C18.26 97.8767 18.7367 97.15 19.35 96.53C19.9633 95.91 20.6833 95.4267 21.51 95.08C22.3367 94.7333 23.23 94.56 24.19 94.56C25.1633 94.56 26.06 94.7333 26.88 95.08C27.7067 95.4267 28.4233 95.91 29.03 96.53C29.6433 97.15 30.1167 97.8767 30.45 98.71C30.79 99.5367 30.96 100.43 30.96 101.39C30.96 102.357 30.7967 103.257 30.47 104.09C30.1433 104.917 29.6767 105.643 29.07 106.27C28.4633 106.89 27.7467 107.373 26.92 107.72C26.0933 108.067 25.1833 108.24 24.19 108.24C23.1767 108.24 22.2533 108.067 21.42 107.72C20.5933 107.373 19.88 106.89 19.28 106.27C18.68 105.643 18.2167 104.917 17.89 104.09C17.57 103.257 17.41 102.357 17.41 101.39ZM35.6738 112.16H32.6638V99.79H35.7038V100.99C35.7971 100.803 35.9738 100.6 36.2338 100.38C36.5004 100.153 36.8371 99.96 37.2438 99.8C37.6571 99.6333 38.1238 99.55 38.6438 99.55C39.4438 99.55 40.1271 99.7467 40.6938 100.14C41.2671 100.533 41.7071 101.06 42.0138 101.72C42.3204 102.373 42.4738 103.1 42.4738 103.9C42.4738 104.7 42.3104 105.43 41.9838 106.09C41.6571 106.743 41.1971 107.267 40.6038 107.66C40.0171 108.047 39.3238 108.24 38.5238 108.24C37.9504 108.24 37.4604 108.14 37.0538 107.94C36.6538 107.733 36.3371 107.507 36.1038 107.26C35.8771 107.007 35.7338 106.81 35.6738 106.67V112.16ZM39.5038 103.9C39.5038 103.527 39.4204 103.193 39.2538 102.9C39.0871 102.6 38.8604 102.367 38.5738 102.2C38.2938 102.027 37.9771 101.94 37.6238 101.94C37.2571 101.94 36.9271 102.027 36.6338 102.2C36.3471 102.367 36.1204 102.6 35.9538 102.9C35.7871 103.193 35.7038 103.527 35.7038 103.9C35.7038 104.273 35.7871 104.61 35.9538 104.91C36.1204 105.203 36.3471 105.433 36.6338 105.6C36.9271 105.767 37.2571 105.85 37.6238 105.85C37.9771 105.85 38.2938 105.767 38.5738 105.6C38.8604 105.433 39.0871 105.203 39.2538 104.91C39.4204 104.61 39.5038 104.273 39.5038 103.9ZM46.4319 104.54C46.4519 104.833 46.5452 105.093 46.7119 105.32C46.8785 105.547 47.1085 105.727 47.4019 105.86C47.7019 105.987 48.0552 106.05 48.4619 106.05C48.8485 106.05 49.1952 106.01 49.5019 105.93C49.8152 105.85 50.0852 105.75 50.3119 105.63C50.5452 105.51 50.7252 105.387 50.8519 105.26L52.0319 107.14C51.8652 107.32 51.6285 107.497 51.3219 107.67C51.0219 107.837 50.6252 107.973 50.1319 108.08C49.6385 108.187 49.0152 108.24 48.2619 108.24C47.3552 108.24 46.5485 108.07 45.8419 107.73C45.1352 107.39 44.5785 106.89 44.1719 106.23C43.7652 105.57 43.5619 104.763 43.5619 103.81C43.5619 103.01 43.7352 102.29 44.0819 101.65C44.4352 101.003 44.9452 100.493 45.6119 100.12C46.2785 99.74 47.0819 99.55 48.0219 99.55C48.9152 99.55 49.6885 99.7133 50.3419 100.04C51.0019 100.367 51.5085 100.853 51.8619 101.5C52.2219 102.14 52.4019 102.94 52.4019 103.9C52.4019 103.953 52.3985 104.06 52.3919 104.22C52.3919 104.38 52.3852 104.487 52.3719 104.54H46.4319ZM49.5419 102.95C49.5352 102.737 49.4785 102.527 49.3719 102.32C49.2652 102.107 49.1052 101.933 48.8919 101.8C48.6785 101.66 48.4052 101.59 48.0719 101.59C47.7385 101.59 47.4552 101.657 47.2219 101.79C46.9952 101.917 46.8219 102.083 46.7019 102.29C46.5819 102.497 46.5152 102.717 46.5019 102.95H49.5419ZM59.6228 99.55C60.1961 99.55 60.7561 99.6667 61.3028 99.9C61.8495 100.133 62.2995 100.503 62.6528 101.01C63.0061 101.51 63.1828 102.17 63.1828 102.99V108H60.1328V103.49C60.1328 102.903 59.9928 102.463 59.7128 102.17C59.4328 101.87 59.0661 101.72 58.6128 101.72C58.3128 101.72 58.0295 101.8 57.7628 101.96C57.5028 102.113 57.2895 102.333 57.1228 102.62C56.9628 102.9 56.8828 103.223 56.8828 103.59V108H53.8428V99.79H56.8828V101C56.9628 100.78 57.1295 100.56 57.3828 100.34C57.6428 100.113 57.9661 99.9267 58.3528 99.78C58.7461 99.6267 59.1695 99.55 59.6228 99.55ZM67.3694 104.54C67.3894 104.833 67.4827 105.093 67.6494 105.32C67.816 105.547 68.046 105.727 68.3394 105.86C68.6394 105.987 68.9927 106.05 69.3994 106.05C69.786 106.05 70.1327 106.01 70.4394 105.93C70.7527 105.85 71.0227 105.75 71.2494 105.63C71.4827 105.51 71.6627 105.387 71.7894 105.26L72.9694 107.14C72.8027 107.32 72.566 107.497 72.2594 107.67C71.9594 107.837 71.5627 107.973 71.0694 108.08C70.576 108.187 69.9527 108.24 69.1994 108.24C68.2927 108.24 67.486 108.07 66.7794 107.73C66.0727 107.39 65.516 106.89 65.1094 106.23C64.7027 105.57 64.4994 104.763 64.4994 103.81C64.4994 103.01 64.6727 102.29 65.0194 101.65C65.3727 101.003 65.8827 100.493 66.5494 100.12C67.216 99.74 68.0194 99.55 68.9594 99.55C69.8527 99.55 70.626 99.7133 71.2794 100.04C71.9394 100.367 72.446 100.853 72.7994 101.5C73.1594 102.14 73.3394 102.94 73.3394 103.9C73.3394 103.953 73.336 104.06 73.3294 104.22C73.3294 104.38 73.3227 104.487 73.3094 104.54H67.3694ZM70.4794 102.95C70.4727 102.737 70.416 102.527 70.3094 102.32C70.2027 102.107 70.0427 101.933 69.8294 101.8C69.616 101.66 69.3427 101.59 69.0094 101.59C68.676 101.59 68.3927 101.657 68.1594 101.79C67.9327 101.917 67.7594 102.083 67.6394 102.29C67.5194 102.497 67.4527 102.717 67.4394 102.95H70.4794ZM77.6903 108H74.6503V99.79H77.6903V101.06H77.6403C77.6936 100.907 77.8236 100.713 78.0303 100.48C78.237 100.24 78.527 100.027 78.9003 99.84C79.2736 99.6467 79.7303 99.55 80.2703 99.55C80.6503 99.55 81.0003 99.61 81.3203 99.73C81.6403 99.8433 81.8736 99.9533 82.0203 100.06L80.8403 102.53C80.747 102.417 80.5803 102.3 80.3403 102.18C80.107 102.053 79.8136 101.99 79.4603 101.99C79.0536 101.99 78.717 102.093 78.4503 102.3C78.1903 102.507 77.997 102.757 77.8703 103.05C77.7503 103.343 77.6903 103.62 77.6903 103.88V108Z" fill="#3C47BD"/>
<path d="M38.4497 39.3024H90.2497V84.1024H45.4497C41.5837 84.1024 38.4497 80.9684 38.4497 77.1024V39.3024Z" fill="url(#paint0_radial_1247_12478)"/>
<path d="M90.2498 39.3022L117.55 33.7023V72.3757C117.55 75.6514 115.278 78.4892 112.082 79.206L90.2498 84.1023V39.3022Z" fill="#3C47BD"/>
<path d="M65.6932 33.7023H117.55L90.2497 39.3023H38.4497L65.6932 33.7023Z" fill="black"/>
<path d="M65.6953 33.7023H93.0497L65.6953 39.3023H38.4497L65.6953 33.7023Z" fill="#3C47BD"/>
<path d="M65.7498 19.3223L92.8831 13.4023L117.55 33.7023L90.2498 39.3023L65.7498 19.3223Z" fill="#3C47BD"/>
<g style="mix-blend-mode:multiply">
<path d="M71.3152 49.1275C70.9003 49.7642 70.0723 50.4001 68.6266 50.3975C67.181 50.3949 66.3566 49.756 65.9453 49.1178" stroke="#153A7A" stroke-width="1.4" stroke-linecap="round"/>
</g>
<g style="mix-blend-mode:multiply">
<path d="M62.7238 49.112C62.3089 49.7487 61.4809 50.3846 60.0352 50.382C58.5895 50.3794 57.7651 49.7405 57.3539 49.1023" stroke="#153A7A" stroke-width="1.4" stroke-linecap="round"/>
</g>
<g style="mix-blend-mode:multiply">
<path d="M66.5004 52.6068C66.1728 53.2439 65.5184 53.8807 64.3743 53.8794C63.2302 53.8782 62.577 53.2401 62.2508 52.6023" stroke="#153A7A" stroke-width="1.4" stroke-linecap="round"/>
</g>
</g>
<defs>
<filter id="filter0_d_1247_12478" x="0" y="0" width="133" height="133" filterUnits="userSpaceOnUse" color-interpolation-filters="sRGB">
<feFlood flood-opacity="0" result="BackgroundImageFix"/>
<feColorMatrix in="SourceAlpha" type="matrix" values="0 0 0 0 0 0 0 0 0 0 0 0 0 0 0 0 0 0 127 0" result="hardAlpha"/>
<feOffset dy="2"/>
<feGaussianBlur stdDeviation="2.5"/>
<feColorMatrix type="matrix" values="0 0 0 0 0 0 0 0 0 0 0 0 0 0 0 0 0 0 0.05 0"/>
<feBlend mode="normal" in2="BackgroundImageFix" result="effect1_dropShadow_1247_12478"/>
<feBlend mode="normal" in="SourceGraphic" in2="effect1_dropShadow_1247_12478" result="shape"/>
</filter>
<radialGradient id="paint0_radial_1247_12478" cx="0" cy="0" r="1" gradientUnits="userSpaceOnUse" gradientTransform="translate(64.3497 51.8115) rotate(90) scale(38.1091 44.0636)">
<stop stop-color="#5D6BF9"/>
<stop offset="1" stop-color="#3C47BD"/>
</radialGradient>
</defs>
</svg>
