<svg width="133" height="133" viewBox="0 0 133 133" fill="none" xmlns="http://www.w3.org/2000/svg">
<g filter="url(#filter0_d_1247_12552)">
<g clip-path="url(#clip0_1247_12552)">
<rect x="5" y="3" width="123" height="123" rx="16" fill="white"/>
<path d="M20.29 76.42H17.14V73.8H26.42V76.42H23.28V87H20.29V76.42ZM28.8538 83.54C28.8738 83.8333 28.9671 84.0933 29.1338 84.32C29.3004 84.5467 29.5304 84.7267 29.8238 84.86C30.1238 84.9867 30.4771 85.05 30.8838 85.05C31.2704 85.05 31.6171 85.01 31.9238 84.93C32.2371 84.85 32.5071 84.75 32.7338 84.63C32.9671 84.51 33.1471 84.3867 33.2738 84.26L34.4538 86.14C34.2871 86.32 34.0504 86.4967 33.7438 86.67C33.4438 86.8367 33.0471 86.9733 32.5538 87.08C32.0604 87.1867 31.4371 87.24 30.6838 87.24C29.7771 87.24 28.9704 87.07 28.2638 86.73C27.5571 86.39 27.0004 85.89 26.5938 85.23C26.1871 84.57 25.9838 83.7633 25.9838 82.81C25.9838 82.01 26.1571 81.29 26.5038 80.65C26.8571 80.0033 27.3671 79.4933 28.0338 79.12C28.7004 78.74 29.5038 78.55 30.4438 78.55C31.3371 78.55 32.1104 78.7133 32.7638 79.04C33.4238 79.3667 33.9304 79.8533 34.2838 80.5C34.6438 81.14 34.8238 81.94 34.8238 82.9C34.8238 82.9533 34.8204 83.06 34.8138 83.22C34.8138 83.38 34.8071 83.4867 34.7938 83.54H28.8538ZM31.9638 81.95C31.9571 81.7367 31.9004 81.5267 31.7938 81.32C31.6871 81.1067 31.5271 80.9333 31.3138 80.8C31.1004 80.66 30.8271 80.59 30.4938 80.59C30.1604 80.59 29.8771 80.6567 29.6438 80.79C29.4171 80.9167 29.2438 81.0833 29.1238 81.29C29.0038 81.4967 28.9371 81.7167 28.9238 81.95H31.9638ZM42.7647 87V85.67C42.7047 85.8033 42.5514 85.9967 42.3047 86.25C42.0647 86.5033 41.7447 86.7333 41.3447 86.94C40.9447 87.14 40.478 87.24 39.9447 87.24C39.1447 87.24 38.4447 87.0467 37.8447 86.66C37.2447 86.2667 36.778 85.7433 36.4447 85.09C36.1114 84.43 35.9447 83.7 35.9447 82.9C35.9447 82.1 36.1114 81.3733 36.4447 80.72C36.778 80.06 37.2447 79.5333 37.8447 79.14C38.4447 78.7467 39.1447 78.55 39.9447 78.55C40.458 78.55 40.908 78.6333 41.2947 78.8C41.6814 78.96 41.9947 79.1533 42.2347 79.38C42.4747 79.6 42.6414 79.8033 42.7347 79.99V78.79H45.7547V87H42.7647ZM38.9247 82.9C38.9247 83.2733 39.0114 83.61 39.1847 83.91C39.358 84.2033 39.588 84.4333 39.8747 84.6C40.168 84.7667 40.4914 84.85 40.8447 84.85C41.2114 84.85 41.5347 84.7667 41.8147 84.6C42.0947 84.4333 42.3147 84.2033 42.4747 83.91C42.6414 83.61 42.7247 83.2733 42.7247 82.9C42.7247 82.5267 42.6414 82.1933 42.4747 81.9C42.3147 81.6 42.0947 81.3667 41.8147 81.2C41.5347 81.0267 41.2114 80.94 40.8447 80.94C40.4914 80.94 40.168 81.0267 39.8747 81.2C39.588 81.3667 39.358 81.6 39.1847 81.9C39.0114 82.1933 38.9247 82.5267 38.9247 82.9ZM58.9738 78.55C59.5938 78.55 60.1404 78.68 60.6138 78.94C61.0871 79.1933 61.4571 79.5867 61.7238 80.12C61.9971 80.6533 62.1338 81.34 62.1338 82.18V87H59.1438V82.64C59.1438 82.0667 59.0571 81.6033 58.8838 81.25C58.7104 80.8967 58.3671 80.72 57.8538 80.72C57.5471 80.72 57.2771 80.8 57.0438 80.96C56.8104 81.12 56.6304 81.3433 56.5038 81.63C56.3771 81.91 56.3138 82.2467 56.3138 82.64V87H53.5238V82.64C53.5238 82.0667 53.4271 81.6033 53.2338 81.25C53.0471 80.8967 52.7138 80.72 52.2338 80.72C51.9271 80.72 51.6571 80.8 51.4238 80.96C51.1904 81.1133 51.0104 81.3333 50.8838 81.62C50.7638 81.9 50.7038 82.24 50.7038 82.64V87H47.6838V78.79H50.7038V79.96C50.7838 79.7533 50.9571 79.5433 51.2238 79.33C51.4971 79.11 51.8338 78.9267 52.2338 78.78C52.6338 78.6267 53.0571 78.55 53.5038 78.55C53.9904 78.55 54.3971 78.6233 54.7238 78.77C55.0504 78.91 55.3171 79.1 55.5238 79.34C55.7371 79.58 55.9071 79.84 56.0338 80.12C56.1271 79.88 56.3104 79.64 56.5838 79.4C56.8638 79.1533 57.2104 78.95 57.6238 78.79C58.0438 78.63 58.4938 78.55 58.9738 78.55ZM24.82 105.28C25.4333 105.28 25.99 105.19 26.49 105.01C26.9967 104.83 27.3733 104.653 27.62 104.48L28.9 107.02C28.5867 107.287 28.05 107.557 27.29 107.83C26.5367 108.103 25.64 108.24 24.6 108.24C23.6267 108.24 22.7133 108.07 21.86 107.73C21.0067 107.39 20.2533 106.913 19.6 106.3C18.9533 105.68 18.4433 104.957 18.07 104.13C17.7033 103.297 17.52 102.393 17.52 101.42C17.52 100.447 17.7033 99.5433 18.07 98.71C18.4367 97.87 18.9433 97.14 19.59 96.52C20.2433 95.9 20.9967 95.42 21.85 95.08C22.71 94.7333 23.6267 94.56 24.6 94.56C25.64 94.56 26.5367 94.6967 27.29 94.97C28.05 95.2433 28.5867 95.5133 28.9 95.78L27.62 98.32C27.3733 98.14 26.9967 97.9633 26.49 97.79C25.99 97.61 25.4333 97.52 24.82 97.52C24.14 97.52 23.5467 97.6267 23.04 97.84C22.5333 98.0467 22.11 98.3333 21.77 98.7C21.43 99.0667 21.1767 99.48 21.01 99.94C20.8433 100.4 20.76 100.883 20.76 101.39C20.76 101.903 20.8433 102.393 21.01 102.86C21.1767 103.32 21.43 103.733 21.77 104.1C22.11 104.467 22.5333 104.757 23.04 104.97C23.5467 105.177 24.14 105.28 24.82 105.28ZM36.4506 99.55C37.024 99.55 37.584 99.6667 38.1306 99.9C38.6773 100.133 39.1273 100.503 39.4806 101.01C39.834 101.51 40.0106 102.17 40.0106 102.99V108H36.9706V103.49C36.9706 102.903 36.8373 102.463 36.5706 102.17C36.3106 101.87 35.954 101.72 35.5006 101.72C35.2006 101.72 34.914 101.8 34.6406 101.96C34.3673 102.113 34.144 102.333 33.9706 102.62C33.804 102.9 33.7206 103.223 33.7206 103.59V108H30.6706V94.24H33.7206V101C33.794 100.78 33.9573 100.56 34.2106 100.34C34.4706 100.113 34.794 99.9267 35.1806 99.78C35.574 99.6267 35.9973 99.55 36.4506 99.55ZM48.1748 108V106.67C48.1148 106.803 47.9615 106.997 47.7148 107.25C47.4748 107.503 47.1548 107.733 46.7548 107.94C46.3548 108.14 45.8882 108.24 45.3548 108.24C44.5548 108.24 43.8548 108.047 43.2548 107.66C42.6548 107.267 42.1882 106.743 41.8548 106.09C41.5215 105.43 41.3548 104.7 41.3548 103.9C41.3548 103.1 41.5215 102.373 41.8548 101.72C42.1882 101.06 42.6548 100.533 43.2548 100.14C43.8548 99.7467 44.5548 99.55 45.3548 99.55C45.8682 99.55 46.3182 99.6333 46.7048 99.8C47.0915 99.96 47.4048 100.153 47.6448 100.38C47.8848 100.6 48.0515 100.803 48.1448 100.99V99.79H51.1648V108H48.1748ZM44.3348 103.9C44.3348 104.273 44.4215 104.61 44.5948 104.91C44.7682 105.203 44.9982 105.433 45.2848 105.6C45.5782 105.767 45.9015 105.85 46.2548 105.85C46.6215 105.85 46.9448 105.767 47.2248 105.6C47.5048 105.433 47.7248 105.203 47.8848 104.91C48.0515 104.61 48.1348 104.273 48.1348 103.9C48.1348 103.527 48.0515 103.193 47.8848 102.9C47.7248 102.6 47.5048 102.367 47.2248 102.2C46.9448 102.027 46.6215 101.94 46.2548 101.94C45.9015 101.94 45.5782 102.027 45.2848 102.2C44.9982 102.367 44.7682 102.6 44.5948 102.9C44.4215 103.193 44.3348 103.527 44.3348 103.9ZM56.1339 108H53.0839V94.24H56.1339V108ZM61.1339 108H58.0839V94.24H61.1339V108ZM65.5139 104.54C65.5339 104.833 65.6272 105.093 65.7939 105.32C65.9606 105.547 66.1906 105.727 66.4839 105.86C66.7839 105.987 67.1372 106.05 67.5439 106.05C67.9306 106.05 68.2772 106.01 68.5839 105.93C68.8972 105.85 69.1672 105.75 69.3939 105.63C69.6272 105.51 69.8072 105.387 69.9339 105.26L71.1139 107.14C70.9472 107.32 70.7106 107.497 70.4039 107.67C70.1039 107.837 69.7072 107.973 69.2139 108.08C68.7206 108.187 68.0972 108.24 67.3439 108.24C66.4372 108.24 65.6306 108.07 64.9239 107.73C64.2172 107.39 63.6606 106.89 63.2539 106.23C62.8472 105.57 62.6439 104.763 62.6439 103.81C62.6439 103.01 62.8172 102.29 63.1639 101.65C63.5172 101.003 64.0272 100.493 64.6939 100.12C65.3606 99.74 66.1639 99.55 67.1039 99.55C67.9972 99.55 68.7706 99.7133 69.4239 100.04C70.0839 100.367 70.5906 100.853 70.9439 101.5C71.3039 102.14 71.4839 102.94 71.4839 103.9C71.4839 103.953 71.4806 104.06 71.4739 104.22C71.4739 104.38 71.4672 104.487 71.4539 104.54H65.5139ZM68.6239 102.95C68.6172 102.737 68.5606 102.527 68.4539 102.32C68.3472 102.107 68.1872 101.933 67.9739 101.8C67.7606 101.66 67.4872 101.59 67.1539 101.59C66.8206 101.59 66.5372 101.657 66.3039 101.79C66.0772 101.917 65.9039 102.083 65.7839 102.29C65.6639 102.497 65.5972 102.717 65.5839 102.95H68.6239ZM78.7048 99.55C79.2782 99.55 79.8382 99.6667 80.3848 99.9C80.9315 100.133 81.3815 100.503 81.7348 101.01C82.0882 101.51 82.2648 102.17 82.2648 102.99V108H79.2148V103.49C79.2148 102.903 79.0748 102.463 78.7948 102.17C78.5148 101.87 78.1482 101.72 77.6948 101.72C77.3948 101.72 77.1115 101.8 76.8448 101.96C76.5848 102.113 76.3715 102.333 76.2048 102.62C76.0448 102.9 75.9648 103.223 75.9648 103.59V108H72.9248V99.79H75.9648V101C76.0448 100.78 76.2115 100.56 76.4648 100.34C76.7248 100.113 77.0482 99.9267 77.4348 99.78C77.8282 99.6267 78.2515 99.55 78.7048 99.55ZM88.3414 112.39C87.7681 112.39 87.1981 112.34 86.6314 112.24C86.0714 112.14 85.5481 111.97 85.0614 111.73C84.5747 111.49 84.1647 111.16 83.8314 110.74L85.6114 108.89C85.7647 109.07 85.9514 109.247 86.1714 109.42C86.3981 109.593 86.6747 109.737 87.0014 109.85C87.3347 109.963 87.7381 110.02 88.2114 110.02C88.6514 110.02 89.0347 109.943 89.3614 109.79C89.6881 109.637 89.9414 109.413 90.1214 109.12C90.3081 108.827 90.4014 108.47 90.4014 108.05V107.85H93.3914V108.23C93.3914 109.137 93.1647 109.9 92.7114 110.52C92.2647 111.14 91.6614 111.607 90.9014 111.92C90.1414 112.233 89.2881 112.39 88.3414 112.39ZM90.4014 108V106.67C90.3414 106.803 90.1881 106.997 89.9414 107.25C89.7014 107.503 89.3814 107.733 88.9814 107.94C88.5814 108.14 88.1147 108.24 87.5814 108.24C86.7814 108.24 86.0814 108.047 85.4814 107.66C84.8814 107.267 84.4147 106.743 84.0814 106.09C83.7481 105.43 83.5814 104.7 83.5814 103.9C83.5814 103.1 83.7481 102.373 84.0814 101.72C84.4147 101.06 84.8814 100.533 85.4814 100.14C86.0814 99.7467 86.7814 99.55 87.5814 99.55C88.0947 99.55 88.5447 99.6333 88.9314 99.8C89.3181 99.96 89.6314 100.153 89.8714 100.38C90.1114 100.6 90.2781 100.803 90.3714 100.99V99.79H93.3914V108H90.4014ZM86.5614 103.9C86.5614 104.273 86.6481 104.61 86.8214 104.91C86.9947 105.203 87.2247 105.433 87.5114 105.6C87.8047 105.767 88.1281 105.85 88.4814 105.85C88.8481 105.85 89.1714 105.767 89.4514 105.6C89.7314 105.433 89.9514 105.203 90.1114 104.91C90.2781 104.61 90.3614 104.273 90.3614 103.9C90.3614 103.527 90.2781 103.193 90.1114 102.9C89.9514 102.6 89.7314 102.367 89.4514 102.2C89.1714 102.027 88.8481 101.94 88.4814 101.94C88.1281 101.94 87.8047 102.027 87.5114 102.2C87.2247 102.367 86.9947 102.6 86.8214 102.9C86.6481 103.193 86.5614 103.527 86.5614 103.9ZM97.76 104.54C97.78 104.833 97.8733 105.093 98.04 105.32C98.2067 105.547 98.4367 105.727 98.73 105.86C99.03 105.987 99.3833 106.05 99.79 106.05C100.177 106.05 100.523 106.01 100.83 105.93C101.143 105.85 101.413 105.75 101.64 105.63C101.873 105.51 102.053 105.387 102.18 105.26L103.36 107.14C103.193 107.32 102.957 107.497 102.65 107.67C102.35 107.837 101.953 107.973 101.46 108.08C100.967 108.187 100.343 108.24 99.59 108.24C98.6833 108.24 97.8767 108.07 97.17 107.73C96.4633 107.39 95.9067 106.89 95.5 106.23C95.0933 105.57 94.89 104.763 94.89 103.81C94.89 103.01 95.0633 102.29 95.41 101.65C95.7633 101.003 96.2733 100.493 96.94 100.12C97.6067 99.74 98.41 99.55 99.35 99.55C100.243 99.55 101.017 99.7133 101.67 100.04C102.33 100.367 102.837 100.853 103.19 101.5C103.55 102.14 103.73 102.94 103.73 103.9C103.73 103.953 103.727 104.06 103.72 104.22C103.72 104.38 103.713 104.487 103.7 104.54H97.76ZM100.87 102.95C100.863 102.737 100.807 102.527 100.7 102.32C100.593 102.107 100.433 101.933 100.22 101.8C100.007 101.66 99.7333 101.59 99.4 101.59C99.0667 101.59 98.7833 101.657 98.55 101.79C98.3233 101.917 98.15 102.083 98.03 102.29C97.91 102.497 97.8433 102.717 97.83 102.95H100.87Z" fill="#00BC7B"/>
<path d="M46.0063 -3L66.2919 10.0119C69.546 12.0992 70.4919 16.4292 68.4046 19.6833L49.1767 49.6598L22.9991 32.8685L46.0063 -3Z" fill="url(#paint0_radial_1247_12552)"/>
<path d="M65.23 9.33032L66.2926 10.0119C69.5467 12.0992 70.4925 16.4292 68.4053 19.6833L67.7237 20.7459L60.769 16.285L65.23 9.33032Z" fill="#00BC7B"/>
<path d="M85.7219 22.6206C85.3644 23.1471 85.3679 24.0337 85.732 25.2299C86.0961 26.4261 86.8137 27.9084 87.8439 29.5922C88.8741 31.2759 90.1967 33.1282 91.7362 35.0433C93.2757 36.9583 95.0019 38.8986 96.8163 40.7534C98.6307 42.6081 100.498 44.341 102.311 45.8531C104.124 47.3652 105.847 48.6269 107.383 49.5662C108.919 50.5054 110.237 51.1038 111.261 51.3272C112.286 51.5506 112.997 51.3946 113.354 50.8681L99.5382 36.7443L85.7219 22.6206Z" fill="#D0F8EA"/>
<path d="M94.235 16.3852C94.8448 16.2033 95.689 16.4741 96.7196 17.1821C97.7502 17.8901 98.9469 19.0216 100.241 20.5118C101.536 22.002 102.903 23.8218 104.264 25.8673C105.626 27.9129 106.955 30.144 108.176 32.4334C109.396 34.7229 110.485 37.0257 111.38 39.2105C112.275 41.3953 112.957 43.4192 113.39 45.1667C113.822 46.9142 113.995 48.3511 113.899 49.3953C113.802 50.4396 113.439 51.0707 112.829 51.2526L103.532 33.8189L94.235 16.3852Z" fill="#D0F8EA"/>
<path d="M108.012 51.1928C109.079 50.9841 110.118 51.1771 111.011 51.5867C112.759 52.3896 114.146 54.1016 114.67 56.1184L116.309 62.4225C116.834 64.4394 116.457 66.6106 115.321 68.1635C114.741 68.9558 113.927 69.6309 112.894 69.968C111.842 70.3113 110.707 70.2565 109.602 69.8179C109.091 69.6153 108.594 69.3728 108.115 69.0914C105.641 67.6386 103.846 65.2618 103.124 62.4853C102.403 59.7089 102.813 56.7594 104.266 54.2858C104.547 53.8067 104.863 53.3528 105.21 52.9273C105.962 52.0061 106.926 51.4054 108.012 51.1928Z" stroke="#00BC7B" stroke-width="3.92"/>
<path d="M114.754 46.2547C114.234 47.2083 114.104 48.2579 114.225 49.2322C114.463 51.1416 115.677 52.9798 117.442 54.0883L122.957 57.5529C124.722 58.6614 126.906 58.9573 128.729 58.3425C129.66 58.0288 130.549 57.4563 131.182 56.5733C131.827 55.6738 132.117 54.5749 132.032 53.3893C131.993 52.8417 131.912 52.2945 131.788 51.7529C131.149 48.9561 129.425 46.5274 126.995 45.0015C124.566 43.4757 121.63 42.9772 118.834 43.6159C118.292 43.7397 117.764 43.904 117.253 44.1065C116.148 44.5448 115.285 45.2834 114.754 46.2547Z" stroke="#00BC7B" stroke-width="3.92"/>
<path d="M91.3 71.6998H57V62.7211C57 62.0044 57.1376 61.2944 57.4052 60.6296L62.4141 48.1884C63.5683 45.3218 66.8263 43.9319 69.6942 45.0826L73.7927 46.727L83.7969 61.6361H85.7C88.7928 61.6361 91.3 64.1433 91.3 67.2361V71.6998Z" fill="url(#paint1_radial_1247_12552)"/>
<g style="mix-blend-mode:multiply">
<path d="M72.3569 64.3695C72.0703 64.9499 71.4976 65.5301 70.4966 65.5289C69.4955 65.5278 68.924 64.9464 68.6385 64.3653" stroke="#00BC7B" stroke-width="1.4" stroke-linecap="round"/>
</g>
<g style="mix-blend-mode:multiply">
<path d="M65.5751 59.2629L68.3222 62.1235C68.3256 62.127 68.3231 62.1329 68.3182 62.1329H65.5751" stroke="#00BC7B" stroke-width="1.4" stroke-linecap="round"/>
</g>
<g style="mix-blend-mode:multiply">
<path d="M75.0688 59.2629L72.3217 62.1235C72.3183 62.127 72.3208 62.1329 72.3257 62.1329H75.0688" stroke="#00BC7B" stroke-width="1.4" stroke-linecap="round"/>
</g>
</g>
<rect x="5.5" y="3.5" width="122" height="122" rx="15.5" stroke="#EBEBEB"/>
</g>
<defs>
<filter id="filter0_d_1247_12552" x="0" y="0" width="133" height="133" filterUnits="userSpaceOnUse" color-interpolation-filters="sRGB">
<feFlood flood-opacity="0" result="BackgroundImageFix"/>
<feColorMatrix in="SourceAlpha" type="matrix" values="0 0 0 0 0 0 0 0 0 0 0 0 0 0 0 0 0 0 127 0" result="hardAlpha"/>
<feOffset dy="2"/>
<feGaussianBlur stdDeviation="2.5"/>
<feColorMatrix type="matrix" values="0 0 0 0 0 0 0 0 0 0 0 0 0 0 0 0 0 0 0.05 0"/>
<feBlend mode="normal" in2="BackgroundImageFix" result="effect1_dropShadow_1247_12552"/>
<feBlend mode="normal" in="SourceGraphic" in2="effect1_dropShadow_1247_12552" result="shape"/>
</filter>
<radialGradient id="paint0_radial_1247_12552" cx="0" cy="0" r="1" gradientUnits="userSpaceOnUse" gradientTransform="translate(47.5915 23.3299) rotate(122.677) scale(21.3066 15.55)">
<stop stop-color="#D0F8EA"/>
<stop offset="1" stop-color="#B0F6DE"/>
</radialGradient>
<radialGradient id="paint1_radial_1247_12552" cx="0" cy="0" r="1" gradientTransform="matrix(4.64479 16.0273 -19.1545 6.04109 71.649 61.2634)" gradientUnits="userSpaceOnUse">
<stop stop-color="#00BC7B"/>
<stop offset="1" stop-color="#0D9364"/>
</radialGradient>
<clipPath id="clip0_1247_12552">
<rect x="5" y="3" width="123" height="123" rx="16" fill="white"/>
</clipPath>
</defs>
</svg>
