<svg width="130" height="153" viewBox="0 0 130 153" fill="none" xmlns="http://www.w3.org/2000/svg">
<path d="M83.69 63.8868L115.022 50.6836L115.533 139.451L94.1749 88.7679L62.8433 101.971L62.3318 13.2032L83.69 63.8868Z" fill="url(#paint0_radial_1247_12376)"/>
<path d="M85.9901 83H77.0101C77.0046 83 77.0001 83.0043 77.0001 83.0098C77.0067 84.5489 78.5609 87 81.5001 87C84.4379 87 85.992 84.2452 86.0001 83.0097C86.0001 83.0041 85.9956 83 85.9901 83Z" fill="#C44E4E"/>
<path d="M91.9507 78.8212C91.358 77.9117 90.1751 77.0032 88.1099 77.0069C86.0446 77.0106 84.8669 77.9234 84.2794 78.8351" stroke="#C44E4E" stroke-width="2" stroke-linecap="round"/>
<path d="M79.6768 78.8434C79.084 77.9339 77.9012 77.0254 75.836 77.0291C73.7707 77.0329 72.593 77.9456 72.0055 78.8573" stroke="#C44E4E" stroke-width="2" stroke-linecap="round"/>
<path d="M40.9498 113.623L51.7523 100.497L72.608 139.676L51.3739 122.202L40.5714 135.328L19.7157 96.1486L40.9498 113.623Z" fill="url(#paint1_radial_1247_12376)"/>
<defs>
<radialGradient id="paint0_radial_1247_12376" cx="0" cy="0" r="1" gradientUnits="userSpaceOnUse" gradientTransform="translate(82.0001 82.5) rotate(62.2717) scale(44.0596 21.869)">
<stop stop-color="#FF6B6B"/>
<stop offset="1" stop-color="#FF8D8D"/>
</radialGradient>
<radialGradient id="paint1_radial_1247_12376" cx="0" cy="0" r="1" gradientTransform="matrix(12.7568 12.2401 -7.36733 5.05711 46.0346 118.542)" gradientUnits="userSpaceOnUse">
<stop stop-color="#FF8D8D"/>
<stop offset="1" stop-color="#FF6B6B"/>
</radialGradient>
</defs>
</svg>
