<svg width="34" height="34" viewBox="0 0 34 34" fill="none" xmlns="http://www.w3.org/2000/svg">
<rect width="34" height="34" rx="16" fill="white" fill-opacity="0.12"/>
<path d="M21.623 11.2637C21.7033 11.4075 21.75 11.5729 21.75 11.75V22.9912L17.1973 21.04L17 20.9561L16.8027 21.04L12.25 22.9912V11.75C12.25 11.5796 12.2942 11.4141 12.375 11.2676V22.751L13.0596 22.4795L17.002 20.9111L21.0391 22.4805L21.7266 22.748L21.7207 22.0098L21.625 11.3701L21.623 11.2637ZM13.25 10.75H20.75C20.9252 10.75 21.0899 10.7956 21.2334 10.875H12.7676C12.9141 10.7942 13.0796 10.75 13.25 10.75Z" fill="white" stroke="white"/>
</svg>
