<svg width="151" height="96" viewBox="0 0 151 96" fill="none" xmlns="http://www.w3.org/2000/svg">
<path d="M100.521 11.8061C102.64 18.551 109.771 22.4021 116.598 20.4278C123.425 18.4531 127.398 11.3903 125.59 4.55547L141.34 1.97377e-05L145.726 15.1655C145.629 15.1913 145.531 15.2189 145.433 15.2471C138.509 17.2501 134.519 24.4869 136.522 31.4113C138.525 38.3358 145.762 42.3262 152.686 40.3237C152.784 40.2956 152.881 40.2648 152.977 40.2346L157.532 55.9846L142.366 60.3713C142.396 60.4676 142.427 60.5641 142.455 60.6617C144.458 67.5863 140.467 74.8233 133.543 76.8262C126.618 78.8288 119.381 74.8393 117.378 67.9147C117.35 67.8172 117.324 67.7195 117.298 67.6219L101.548 72.1773L96.9923 56.4274C96.8963 56.4576 96.8 56.4881 96.7028 56.5162C89.7781 58.5191 82.5403 54.5288 80.5374 47.6041C78.5347 40.6795 82.5252 33.4424 89.4498 31.4396C89.547 31.4115 89.6441 31.384 89.7414 31.3583L85.355 16.1928L100.521 11.8061Z" fill="url(#paint0_radial_1247_12412)"/>
<path d="M125.329 25.4856C125.133 26.4901 124.489 27.6244 122.919 28.0785C121.349 28.5326 120.199 27.9173 119.497 27.1723" stroke="#50A102" stroke-width="2" stroke-linecap="round"/>
<path d="M129.425 28.7245C128.064 30.0663 125.301 33.7092 119.649 35.344C113.997 36.9788 110.299 35.2044 108.431 34.7968" stroke="#50A102" stroke-width="2" stroke-linecap="round"/>
<path d="M115.998 28.1843C115.803 29.1888 115.158 30.3231 113.588 30.7772C112.018 31.2313 110.868 30.6161 110.166 29.8711" stroke="#50A102" stroke-width="2" stroke-linecap="round"/>
<path d="M40.5301 15.2545C47.4547 13.2517 54.6923 17.2413 56.6953 24.1657C56.7235 24.2631 56.7501 24.3611 56.7759 24.4585L62.9187 22.6818C68.224 21.1473 73.7688 24.2044 75.3034 29.5096L76.9114 35.0688C76.8139 35.0946 76.7161 35.1223 76.6188 35.1504C69.6945 37.1534 65.7049 44.3903 67.7073 51.3147C69.7102 58.2392 76.9473 62.2296 83.8719 60.227C83.9692 60.1989 84.066 60.1682 84.1623 60.138L85.9392 66.2817C87.4737 71.587 84.4168 77.1319 79.1115 78.6664L72.9678 80.4434C72.942 80.3461 72.9164 80.2483 72.8883 80.1512C70.8854 73.2267 63.6475 69.2362 56.7229 71.2391C49.7986 73.2421 45.8091 80.4798 47.8117 87.4043C47.8398 87.5014 47.8694 87.598 47.8996 87.694L42.3394 89.3022C37.0341 90.8365 31.4891 87.7797 29.9547 82.4744L28.178 76.3317C28.0819 76.3618 27.9854 76.3914 27.8882 76.4195C20.9636 78.4224 13.726 74.4329 11.7231 67.5084C9.72018 60.5837 13.7105 53.3458 20.6352 51.3429C20.7324 51.3148 20.8298 51.2883 20.9271 51.2625L19.3189 45.7024C17.7846 40.3972 20.8416 34.8523 26.1466 33.3176L31.7068 31.7094C31.6766 31.6132 31.6468 31.5161 31.6187 31.4188C29.6161 24.4944 33.6059 17.2575 40.5301 15.2545Z" fill="url(#paint1_radial_1247_12412)"/>
<path d="M47.487 64.4314C47.2914 65.4359 46.6473 66.5702 45.0772 67.0243C43.5072 67.4784 42.3569 66.8631 41.6553 66.1181" stroke="#9DAD3A" stroke-width="2" stroke-linecap="round"/>
<circle cx="35.9776" cy="63.9684" r="2.42831" transform="rotate(-16.1318 35.9776 63.9684)" fill="#9DAD3A"/>
<circle cx="51.1403" cy="59.5829" r="2.42831" transform="rotate(-16.1318 51.1403 59.5829)" fill="#9DAD3A"/>
<defs>
<radialGradient id="paint0_radial_1247_12412" cx="0" cy="0" r="1" gradientUnits="userSpaceOnUse" gradientTransform="translate(119.5 33.5) rotate(79.7458) scale(54.0013)">
<stop stop-color="#72CF1A"/>
<stop offset="1" stop-color="#A9F561"/>
</radialGradient>
<radialGradient id="paint1_radial_1247_12412" cx="0" cy="0" r="1" gradientUnits="userSpaceOnUse" gradientTransform="translate(42.5 62.5) rotate(63.1591) scale(26.1578)">
<stop stop-color="#D9E877"/>
<stop offset="1" stop-color="#EAF3B2"/>
</radialGradient>
</defs>
</svg>
