<svg width="139" height="120" viewBox="0 0 139 120" fill="none" xmlns="http://www.w3.org/2000/svg">
<path d="M89.7627 0C100.874 0.00011648 109.882 9.00771 109.882 20.1191H118.394C129.505 20.1191 138.513 29.1268 138.513 40.2383C138.513 51.3498 129.505 60.3574 118.394 60.3574H113.545L124.209 81.8232L98.707 60.3574H60.3574V60.2988C49.9691 59.5085 41.7861 50.829 41.7861 40.2383C41.7862 29.6476 49.9691 20.968 60.3574 20.1777V20.1191H69.6436C69.6436 9.00764 78.6512 0 89.7627 0Z" fill="url(#paint0_radial_1247_12439)"/>
<circle cx="89.4389" cy="40.4392" r="2.42831" transform="rotate(0.256274 89.4389 40.4392)" fill="#ECD528"/>
<circle cx="105.223" cy="40.5097" r="2.42831" transform="rotate(0.256274 105.223 40.5097)" fill="#ECD528"/>
<path d="M101.99 45H93.01C93.0045 45 93 45.0043 93 45.0098C93.0066 46.5489 94.5608 49 97.5 49C100.438 49 101.992 46.2452 102 45.0097C102 45.0041 101.996 45 101.99 45Z" fill="#ECD528"/>
<path d="M63.4531 37.917C74.5645 37.9172 83.5723 46.9247 83.5723 58.0361C83.5723 58.447 83.5575 58.855 83.5332 59.2598C91.2327 62.0826 96.7266 69.4774 96.7266 78.1553C96.7266 88.746 88.5436 97.4256 78.1553 98.2158V98.2744H39.8057L14.3037 119.74L24.9688 98.2744H20.1191C9.00765 98.2744 5.15405e-06 89.2668 0 78.1553C0 67.0438 9.00764 58.0362 20.1191 58.0361H21.3574C24.1909 50.357 31.575 44.8809 40.2383 44.8809C42.6982 44.8809 45.0546 45.3238 47.2334 46.1318C50.8956 41.1506 56.7964 37.917 63.4531 37.917Z" fill="url(#paint1_radial_1247_12439)"/>
<path d="M71.8376 75.0359C71.3686 75.9455 70.4325 76.854 68.7982 76.8503C67.1638 76.8465 66.2318 75.9338 65.7669 75.0221" stroke="#ECBB28" stroke-width="2" stroke-linecap="round"/>
<path d="M74.8633 79.2921C73.1801 80.1989 69.5078 82.9224 63.6241 82.909C57.7403 82.8956 54.6876 80.1567 53.0085 79.2423" stroke="#ECBB28" stroke-width="2" stroke-linecap="round"/>
<path d="M62.1243 75.0137C61.6552 75.9233 60.7192 76.8318 59.0848 76.828C57.4504 76.8243 56.5184 75.9116 56.0535 74.9999" stroke="#ECBB28" stroke-width="2" stroke-linecap="round"/>
<defs>
<radialGradient id="paint0_radial_1247_12439" cx="0" cy="0" r="1" gradientUnits="userSpaceOnUse" gradientTransform="translate(97.5 41) rotate(100.207) scale(41.4797 49.0349)">
<stop stop-color="#ECD528"/>
<stop offset="1" stop-color="#FFEE6B"/>
</radialGradient>
<radialGradient id="paint1_radial_1247_12439" cx="0" cy="0" r="1" gradientUnits="userSpaceOnUse" gradientTransform="translate(64 79) rotate(110.998) scale(43.638 51.5862)">
<stop stop-color="#ECD528"/>
<stop offset="1" stop-color="#ECBB28"/>
</radialGradient>
</defs>
</svg>
