<svg xmlns="http://www.w3.org/2000/svg" width="24" height="24" viewBox="0 0 24 24" fill="none">
  <path d="M2.99974 13.9928H4.99974V20.9928C4.99974 21.258 5.1051 21.5124 5.29263 21.6999C5.48017 21.8875 5.73452 21.9928 5.99974 21.9928H17.9997C18.265 21.9928 18.5193 21.8875 18.7068 21.6999C18.8944 21.5124 18.9997 21.258 18.9997 20.9928V13.9928H20.9997C21.193 13.993 21.3821 13.937 21.5442 13.8318C21.7063 13.7265 21.8343 13.5765 21.9127 13.3998C21.9917 13.2233 22.0177 13.0276 21.9875 12.8366C21.9573 12.6456 21.8723 12.4674 21.7427 12.3238L12.7427 2.32382C12.3637 1.90182 11.6357 1.90182 11.2567 2.32382L2.25674 12.3238C2.12743 12.4675 2.04253 12.6455 2.0123 12.8365C1.98208 13.0274 2.00783 13.2229 2.08644 13.3995C2.16505 13.5761 2.29315 13.7261 2.45523 13.8314C2.61732 13.9367 2.80645 13.9928 2.99974 13.9928ZM8.65274 11.6338C9.06897 11.2229 9.63033 10.9925 10.2152 10.9925C10.8001 10.9925 11.3615 11.2229 11.7777 11.6338L12.0017 11.8538L12.2247 11.6338C12.6411 11.2228 13.2027 10.9924 13.7877 10.9924C14.3728 10.9924 14.9343 11.2228 15.3507 11.6338C15.5573 11.8326 15.7217 12.0709 15.8339 12.3347C15.9462 12.5985 16.004 12.8822 16.004 13.1688C16.004 13.4555 15.9462 13.7392 15.8339 14.0029C15.7217 14.2667 15.5573 14.5051 15.3507 14.7038L12.0017 17.9928L8.65274 14.7038C8.44616 14.5051 8.28182 14.2667 8.16956 14.0029C8.05731 13.7392 7.99945 13.4555 7.99945 13.1688C7.99945 12.8822 8.05731 12.5985 8.16956 12.3347C8.28182 12.0709 8.44616 11.8326 8.65274 11.6338Z" fill="#153A7A"/>
</svg>