<svg width="608" height="438" viewBox="0 0 608 438" fill="none" xmlns="http://www.w3.org/2000/svg">
<g clip-path="url(#clip0_7511_5792)">
<path d="M368.197 -0.147171C369.774 -0.157904 369.774 -0.157904 371.383 -0.168854C372.531 -0.171543 373.679 -0.174232 374.862 -0.177002C376.075 -0.183573 377.289 -0.190144 378.539 -0.196915C382.56 -0.216645 386.581 -0.228315 390.602 -0.238281C391.989 -0.242331 393.377 -0.246448 394.765 -0.250631C401.289 -0.269676 407.812 -0.283906 414.336 -0.292243C421.848 -0.302003 429.359 -0.328293 436.871 -0.368744C442.688 -0.398989 448.506 -0.41372 454.324 -0.417024C457.793 -0.419366 461.261 -0.428209 464.73 -0.453485C468.608 -0.481282 472.484 -0.47691 476.362 -0.469971C477.498 -0.482781 478.634 -0.495591 479.804 -0.508789C491.366 -0.433631 501.205 3.71507 509.719 11.5898C516.022 18.4239 520.104 26.8781 520.147 36.1972C520.158 37.774 520.158 37.774 520.169 39.3827C520.173 41.1049 520.173 41.1049 520.177 42.8618C520.187 44.682 520.187 44.682 520.197 46.539C520.217 50.5599 520.228 54.5807 520.238 58.6016C520.242 59.9894 520.246 61.3772 520.251 62.7651C520.27 69.2887 520.284 75.8123 520.292 82.336C520.302 89.8477 520.328 97.3592 520.369 104.871C520.399 110.688 520.414 116.506 520.417 122.324C520.419 125.793 520.428 129.261 520.453 132.73C520.481 136.608 520.477 140.484 520.47 144.362C520.483 145.498 520.496 146.634 520.509 147.804C520.434 159.366 516.285 169.205 508.41 177.719C505.161 180.716 501.732 182.734 497.766 184.672C496.871 185.111 495.977 185.55 495.056 186.003C494.377 186.332 493.699 186.661 493 187C494.03 187.004 495.06 187.007 496.122 187.011C505.861 187.048 515.6 187.106 525.339 187.184C530.345 187.223 535.351 187.256 540.357 187.271C545.194 187.286 550.031 187.321 554.868 187.368C556.707 187.383 558.547 187.391 560.386 187.392C578.821 187.409 578.821 187.409 587 192C587.902 192.481 588.805 192.962 589.734 193.457C598.87 199.601 605.72 207.955 608 219C608.095 220.68 608.139 222.363 608.147 224.045C608.158 225.572 608.158 225.572 608.169 227.129C608.173 228.795 608.173 228.795 608.177 230.495C608.187 232.256 608.187 232.256 608.197 234.054C608.217 237.945 608.228 241.836 608.238 245.727C608.242 247.07 608.246 248.413 608.251 249.756C608.27 256.071 608.284 262.385 608.292 268.699C608.302 275.969 608.328 283.238 608.369 290.508C608.399 296.138 608.414 301.769 608.417 307.4C608.419 310.757 608.43 314.114 608.453 317.471C608.478 321.224 608.477 324.976 608.47 328.729C608.483 329.828 608.496 330.926 608.509 332.058C608.432 343.492 604.189 353.31 596.41 361.719C589.64 367.963 581.199 372.102 571.955 372.147C570.428 372.158 570.428 372.158 568.871 372.169C567.76 372.172 566.65 372.174 565.505 372.177C564.331 372.184 563.156 372.19 561.946 372.197C558.055 372.217 554.164 372.228 550.273 372.238C548.93 372.242 547.587 372.246 546.244 372.251C539.929 372.27 533.615 372.284 527.301 372.292C520.031 372.302 512.762 372.328 505.492 372.369C499.862 372.399 494.231 372.414 488.6 372.417C485.243 372.419 481.886 372.43 478.529 372.453C474.776 372.478 471.024 372.477 467.271 372.47C466.172 372.483 465.074 372.496 463.942 372.509C452.538 372.432 442.563 368.213 434.246 360.34C430.61 356.339 426 350.633 426 345C425.34 345 424.68 345 424 345C423.938 345.66 423.876 346.32 423.812 347C422.67 351.217 420.449 354.418 418 358C417.422 358.866 416.845 359.733 416.25 360.625C409.177 368.091 399.554 372.846 389.268 373.319C383.781 373.441 378.299 373.35 372.812 373.25C370.887 373.23 368.962 373.212 367.037 373.195C362.358 373.152 357.679 373.083 353 373C353.913 374.59 354.836 376.175 355.762 377.758C356.274 378.641 356.787 379.524 357.315 380.434C362.198 387.871 369.372 391.957 377.727 394.532C380.659 395.136 383.459 395.165 386.453 395.211C387.712 395.239 388.972 395.268 390.27 395.297C392.907 395.349 395.545 395.393 398.184 395.43C406.104 395.623 412.667 395.814 419.242 400.648C419.781 401.218 420.32 401.788 420.875 402.375C421.706 403.222 421.706 403.222 422.555 404.086C427.018 409.996 426.84 416.906 426 424C423.727 429.973 419.615 433.851 414.174 437.085C411.563 438.184 409.607 438.254 406.776 438.261C405.719 438.268 404.662 438.275 403.573 438.282C402.418 438.28 401.264 438.277 400.075 438.275C398.245 438.282 398.245 438.282 396.378 438.29C393.035 438.302 389.692 438.304 386.349 438.302C383.556 438.301 380.763 438.305 377.97 438.31C371.378 438.321 364.786 438.322 358.195 438.316C351.401 438.31 344.607 438.322 337.814 438.343C331.976 438.361 326.138 438.367 320.3 438.364C316.816 438.362 313.331 438.364 309.847 438.378C305.959 438.393 302.072 438.384 298.184 438.372C297.034 438.38 295.883 438.388 294.698 438.396C287.436 438.348 282.904 437.566 277.312 432.625C272.092 426.699 271.132 421.264 269.844 413.594C269.031 410.132 267.92 407.945 266 405C266 404.34 266 403.68 266 403C258.616 399 252.477 397.557 244.184 397.635C242.745 397.63 242.745 397.63 241.276 397.625C238.077 397.619 234.878 397.633 231.678 397.647C229.378 397.646 227.078 397.644 224.778 397.64C219.831 397.635 214.885 397.64 209.939 397.65C202.114 397.667 194.289 397.658 186.464 397.646C175.49 397.629 164.517 397.621 153.543 397.621C152.847 397.621 152.152 397.621 151.435 397.621C143.676 397.622 135.917 397.625 128.157 397.632C127.46 397.633 126.763 397.633 126.044 397.634C125.347 397.635 124.651 397.635 123.933 397.636C122.528 397.637 121.123 397.638 119.718 397.64C119.024 397.64 118.329 397.641 117.614 397.642C106.022 397.652 94.4302 397.642 82.8382 397.617C75.0634 397.602 67.289 397.61 59.5141 397.634C54.6723 397.644 49.8308 397.634 44.9891 397.617C42.7486 397.614 40.508 397.619 38.2676 397.633C35.2013 397.651 32.1365 397.639 29.0702 397.619C28.1904 397.632 27.3106 397.645 26.4042 397.658C18.7546 397.551 12.4087 394.884 6.56248 389.938C6.04686 389.298 5.53123 388.659 4.99998 388C4.46373 387.361 3.92748 386.721 3.37498 386.062C-1.14132 379.288 -0.641916 371.819 -1.68085e-05 364C1.65281 356.967 7.21287 351.989 13 348C18.0073 345.91 22.3814 345.717 27.7082 345.745C28.5627 345.741 29.4172 345.737 30.2976 345.734C32.1456 345.727 33.9937 345.724 35.8417 345.726C38.7726 345.727 41.7032 345.714 44.6341 345.697C52.9646 345.65 61.2951 345.626 69.6257 345.619C74.7292 345.614 79.8322 345.59 84.9355 345.554C86.8735 345.544 88.8114 345.542 90.7494 345.547C93.4678 345.554 96.1852 345.537 98.9035 345.514C100.089 345.526 100.089 345.526 101.299 345.539C107.112 345.454 112.025 344.08 117 341C121.778 335.928 122.501 330.623 123.426 323.906C124.428 318.831 126.614 314.835 130.742 311.66C135.179 308.985 139.128 307.873 144.239 307.88C145.078 307.878 145.916 307.877 146.78 307.876C147.692 307.879 148.603 307.883 149.542 307.886C150.991 307.886 150.991 307.886 152.47 307.886C155.662 307.887 158.854 307.895 162.047 307.902C164.261 307.904 166.475 307.906 168.689 307.907C174.515 307.91 180.341 307.92 186.167 307.931C192.113 307.942 198.058 307.946 204.004 307.951C215.669 307.962 227.335 307.979 239 308C238.991 306.939 238.982 305.878 238.973 304.785C238.892 294.738 238.832 284.691 238.793 274.643C238.772 269.479 238.744 264.315 238.698 259.151C238.654 254.158 238.631 249.166 238.62 244.173C238.613 242.278 238.599 240.382 238.577 238.487C238.41 223.289 239.357 209.923 250 198C259.077 189.371 268.625 185.891 281.003 185.795C281.794 185.785 282.585 185.775 283.399 185.765C286.002 185.733 288.604 185.708 291.207 185.684C293.016 185.663 294.825 185.642 296.634 185.621C301.386 185.566 306.139 185.516 310.892 185.468C315.745 185.417 320.598 185.362 325.451 185.307C334.967 185.199 344.484 185.098 354 185C353.252 184.473 352.503 183.945 351.732 183.402C350.254 182.346 350.254 182.346 348.746 181.27C347.771 180.577 346.796 179.885 345.791 179.171C338.315 173.355 334.414 166.05 332 157C331.477 152.77 331.452 148.602 331.482 144.344C331.472 142.522 331.472 142.522 331.461 140.663C331.447 137.366 331.45 134.069 331.463 130.771C331.473 127.3 331.463 123.83 331.457 120.359C331.45 114.535 331.459 108.711 331.478 102.886C331.5 96.1761 331.493 89.4661 331.471 82.7557C331.453 76.9677 331.451 71.1797 331.461 65.3917C331.467 61.9463 331.468 58.5011 331.455 55.0558C331.445 51.2126 331.46 47.3703 331.482 43.5271C331.474 42.4021 331.466 41.2772 331.458 40.1181C331.581 28.6021 335.746 18.7611 343.59 10.2812C350.424 3.97783 358.878 -0.103527 368.197 -0.147171ZM400 188C401.641 189.094 403.291 190.175 404.98 191.191C414.607 197.172 420.508 204.654 425 215C427.019 212.981 427.95 211.33 429.25 208.812C434.938 198.481 442.047 192.925 453.312 189.48C453.869 189.322 454.426 189.163 455 189C455 188.67 455 188.34 455 188C436.85 188 418.7 188 400 188Z" fill="#B0C9F9"/>
<path d="M524 328C535.88 328 547.76 328 560 328C558.743 334.287 556.63 338.108 551.438 341.875C546.465 344.747 541.593 344.918 536 344C531.123 341.652 528.061 338.373 525 334C524.67 332.02 524.34 330.04 524 328Z" fill="#678CE6"/>
<path d="M342.788 296.257C343.883 296.625 343.883 296.625 345 297C345.84 299.137 345.84 299.137 346 302C344.235 304.213 342.633 305.937 340.562 307.812C340.033 308.315 339.504 308.817 338.959 309.334C337.652 310.57 336.328 311.787 335 313C335.626 313.049 336.253 313.098 336.898 313.148C337.716 313.223 338.533 313.298 339.375 313.375C340.187 313.445 340.999 313.514 341.836 313.586C344 314 344 314 346 316C345.444 320.556 345.444 320.556 344 322C340.361 322.252 336.709 322.185 333.062 322.187C332.034 322.2 331.006 322.212 329.947 322.225C328.475 322.227 328.475 322.227 326.973 322.23C325.615 322.237 325.615 322.237 324.231 322.243C322 322 322 322 320 320C320.343 313.345 325.807 309.536 330.25 305.125C331.11 304.233 331.97 303.341 332.855 302.422C334.11 301.165 334.11 301.165 335.391 299.883C336.154 299.113 336.918 298.344 337.704 297.551C340 296 340 296 342.788 296.257Z" fill="#678BE6"/>
<path d="M278 296C284.712 296.54 288.38 301.721 292.875 306.25C293.767 307.11 294.659 307.97 295.578 308.855C296.416 309.692 297.254 310.529 298.117 311.391C298.887 312.154 299.656 312.918 300.449 313.704C302 316 302 316 301.805 318.726C301 321 301 321 300 322C296.361 322.252 292.709 322.185 289.062 322.188C288.034 322.2 287.006 322.212 285.947 322.225C284.475 322.228 284.475 322.228 282.973 322.23C281.615 322.237 281.615 322.237 280.231 322.243C278 322 278 322 276 320C276.556 315.444 276.556 315.444 278 314C279.515 313.768 281.038 313.588 282.562 313.438C283.802 313.312 283.802 313.312 285.066 313.184C285.704 313.123 286.343 313.062 287 313C286.194 312.264 285.389 311.528 284.559 310.77C283.517 309.785 282.477 308.799 281.438 307.812C280.904 307.33 280.371 306.847 279.822 306.35C278.309 304.895 278.309 304.895 276 302C276.145 297.855 276.145 297.855 278 296Z" fill="#658AE5"/>
<path d="M386 112C390.416 112.232 392.026 113.93 395 117C400.431 118.791 406.078 118.747 411.375 116.688C413.983 115.177 413.983 115.177 415.562 113.25C416.037 112.837 416.511 112.425 417 112C419.688 112.312 419.688 112.312 422 113C422.812 115.188 422.812 115.188 423 118C419.649 122.021 415.986 125.338 411 127C401.567 127.616 394.585 127.788 387.125 121.625C384.934 118.918 384.094 117.463 384 114C384.66 113.34 385.32 112.68 386 112Z" fill="#6A8EE7"/>
<path d="M435 112C439.414 112.358 441.002 113.906 444 117C448.806 118.605 454.025 118.79 459 118C461.128 116.605 462.728 115.089 464.496 113.27C466 112 466 112 468.938 112.125C469.958 112.558 469.958 112.558 471 113C471.812 115.188 471.812 115.188 472 118C468.649 122.021 464.986 125.338 460 127C451.207 127.781 443.869 128.287 436.602 122.605C435 121 435 121 433 118C433.541 113.459 433.541 113.459 435 112Z" fill="#6A8EE7"/>
<path d="M576 300C580.291 302.384 580.291 302.384 582 305C582.864 308.515 582.864 311.485 582 315C580.233 317.704 578.959 318.356 576 320C572.077 320.549 569.282 320.263 566 318C563.465 315.555 563.022 314.151 562.5 310.625C563.159 305.844 564.624 304.376 568 301C570.903 299.548 572.773 299.628 576 300Z" fill="#6B8FE8"/>
<path d="M298 328C300.438 328.188 300.438 328.188 303 329C304.125 331 304.125 331 305 333C309.145 334.382 313.059 334.647 317.25 333.25C319.329 331.765 320.589 330.117 322 328C324.97 328.495 324.97 328.495 328 329C328.341 332.671 328.3 334.521 326.312 337.688C323.169 340.831 320.57 342.784 316.098 343.398C309.507 343.348 304.598 343.261 299.5 338.641C298.062 337.125 298.062 337.125 296 334C296.186 329.814 296.186 329.814 298 328Z" fill="#678BE5"/>
<path d="M513 300C516.438 301.938 516.438 301.938 519 305C519.804 308.177 519.748 310.816 519 314C517.063 317.063 517.063 317.063 514 319C509.723 319.853 506.309 319.753 502.5 317.563C500.314 313.828 499.654 310.316 500 306C503.452 300.286 506.448 299.345 513 300Z" fill="#698DE7"/>
<path d="M414 132C417.686 132.205 418.821 132.806 421.375 135.562C423.846 138.334 423.846 138.334 427.562 138.438C431.947 137.879 433.935 137.293 436.75 133.875C437.163 133.256 437.575 132.637 438 132C440.97 132.495 440.97 132.495 444 133C444.312 135.688 444.312 135.688 444 139C441.75 141.688 441.75 141.688 439 144C438.415 144.534 437.83 145.067 437.227 145.617C432.724 148.414 427.099 147.571 422 147C417.586 144.909 414.552 142.186 412 138C412.293 133.707 412.293 133.707 414 132Z" fill="#698DE7"/>
</g>
<defs>
<clipPath id="clip0_7511_5792">
<rect width="608" height="438" fill="white"/>
</clipPath>
</defs>
</svg>
