<svg xmlns="http://www.w3.org/2000/svg" width="24" height="24" viewBox="0 0 24 24" fill="none">
  <path d="M3.80102 3H4.70153C5.65067 3 6.42871 3.816 6.49805 4.85L6.50256 5V19C6.50247 19.5044 6.33076 19.9901 6.02183 20.3599C5.7129 20.7297 5.28955 20.9562 4.83661 20.994L4.70153 21H3.80102C3.34665 21.0002 2.90901 20.8096 2.57583 20.4665C2.24266 20.1234 2.03858 19.6532 2.0045 19.15L2 19V5C2 3.946 2.73482 3.082 3.66595 3.005L3.80102 3ZM9.20409 3H10.1046C11.0537 3 11.8318 3.816 11.9011 4.85L11.9056 5V19C11.9055 19.5044 11.7338 19.9901 11.4249 20.3599C11.116 20.7297 10.6926 20.9562 10.2397 20.994L10.1046 21H9.20409C8.74971 21.0002 8.31207 20.8096 7.9789 20.4665C7.64573 20.1234 7.44165 19.6532 7.40757 19.15L7.40307 19V5C7.40307 3.946 8.13789 3.082 9.06901 3.005L9.20409 3ZM15.4843 5C16.2407 5 16.9323 5.531 17.1862 6.346L17.2285 6.503L19.9436 18.249C20.0564 18.7375 19.9988 19.2553 19.7824 19.6987C19.5659 20.1421 19.2067 20.4783 18.7765 20.64L18.6469 20.683L17.7743 20.931C17.3362 21.0557 16.872 20.9929 16.4738 20.755C16.0755 20.5171 15.7725 20.1216 15.6247 19.647L15.5824 19.492L12.8665 7.747C12.7535 7.25808 12.8113 6.73982 13.028 6.29619C13.2448 5.85255 13.6046 5.51634 14.0353 5.355L14.1641 5.312L15.0358 5.064C15.1859 5.02133 15.3354 5 15.4843 5ZM4.70153 4.5H3.80102C3.69564 4.49996 3.59358 4.54097 3.51263 4.61589C3.43167 4.69081 3.37694 4.79489 3.35797 4.91L3.35077 5V19C3.35077 19.244 3.51016 19.45 3.71998 19.492L3.80102 19.5H4.70153C4.92216 19.5 5.10676 19.322 5.14459 19.09L5.15179 19V5C5.15182 4.88297 5.11489 4.76964 5.04743 4.67974C4.97997 4.58984 4.88624 4.52906 4.78258 4.508L4.70153 4.5ZM10.1046 4.5H9.20409C9.09871 4.49996 8.99665 4.54097 8.91569 4.61589C8.83474 4.69081 8.78001 4.79489 8.76104 4.91L8.75383 5V19C8.75383 19.244 8.91323 19.45 9.12304 19.492L9.20409 19.5H10.1046C10.3252 19.5 10.5098 19.322 10.5477 19.09L10.5549 19V5C10.5549 4.88297 10.518 4.76964 10.4505 4.67974C10.383 4.58984 10.2893 4.52906 10.1856 4.508L10.1046 4.5ZM15.4852 6.5L15.4284 6.504L15.3717 6.517L14.5 6.764C14.3992 6.7925 14.3104 6.85887 14.2487 6.95184C14.1869 7.04481 14.1561 7.15864 14.1614 7.274L14.1749 7.374L16.8909 19.119C16.9158 19.2261 16.972 19.3211 17.0507 19.3889C17.1294 19.4568 17.2262 19.4938 17.3258 19.494L17.3825 19.491L17.4384 19.479L18.3119 19.229C18.4138 19.1998 18.5033 19.1319 18.5648 19.0371C18.6263 18.9423 18.656 18.8266 18.6487 18.71L18.6351 18.622L15.9201 6.875C15.8952 6.76786 15.839 6.67292 15.7603 6.60506C15.6816 6.5372 15.5848 6.50025 15.4852 6.5Z" fill="#909090"/>
</svg>