<svg xmlns="http://www.w3.org/2000/svg" width="24" height="24" viewBox="0 0 24 24" fill="none">
  <path d="M4.60594 3C3.71875 3 3 3.83998 3 4.87496V19.1172C3 20.1522 3.72004 20.9921 4.60594 20.9921H5.24883C6.13602 20.9921 6.85477 20.1522 6.85477 19.1172V4.87346C6.85477 3.83848 6.13473 3 5.24754 3H4.60594ZM9.7452 3C8.85801 3 8.13797 3.83998 8.13797 4.87496V19.1172C8.13797 20.1522 8.85801 20.9921 9.7452 20.9921H10.3881C10.8139 20.9914 11.222 20.7935 11.5229 20.4419C11.8238 20.0904 11.9927 19.6139 11.9927 19.1172V4.87346C11.9924 4.37671 11.8231 3.90042 11.522 3.54916C11.2209 3.19791 10.8126 3.0004 10.3868 3H9.7452ZM17.1076 7.16542C16.9532 6.71852 16.6572 6.35811 16.2811 6.15898C15.905 5.95984 15.4776 5.93727 15.0876 6.09594L14.3393 6.40193C14.1345 6.4858 13.9464 6.61717 13.7864 6.78813C13.6263 6.95909 13.4976 7.16609 13.4079 7.39666C13.3183 7.62723 13.2696 7.87659 13.2648 8.1297C13.2601 8.38281 13.2993 8.63443 13.3801 8.86939L17.1564 19.8252C17.4766 20.7552 18.3651 21.2246 19.1764 20.8947L19.9247 20.5887C20.1296 20.5048 20.3179 20.3734 20.478 20.2023C20.6382 20.0313 20.767 19.8241 20.8567 19.5934C20.9463 19.3626 20.9949 19.1131 20.9996 18.8598C21.0043 18.6065 20.9649 18.3547 20.8839 18.1197L17.1076 7.16542Z" fill="#153A7A"/>
</svg>