<svg width="24" height="24" viewBox="0 0 24 24" fill="none" xmlns="http://www.w3.org/2000/svg">
<path d="M16.9047 2.97656C16.1727 2.97656 15.4407 3.26062 14.8726 3.82875L3.81605 14.8853L3.77235 15.1038L3.00757 18.9496L2.78906 19.9766L3.81605 19.7581L7.66181 18.9933L7.88032 18.9496L18.9369 7.89301C20.0731 6.75677 20.0731 4.96499 18.9369 3.82875C18.3688 3.26062 17.6367 2.97656 16.9047 2.97656ZM16.9047 4.30947C17.2571 4.30947 17.6122 4.47062 17.9536 4.81204C18.6337 5.49215 18.6337 6.22962 17.9536 6.90972L17.451 7.39044L15.3752 5.31461L15.8559 4.81204C16.1973 4.47062 16.5524 4.30947 16.9047 4.30947ZM14.3919 6.2979L16.4677 8.37373L8.01143 16.83C7.55256 15.9341 6.83148 15.2131 5.93559 14.7542L14.3919 6.2979ZM5.03971 15.8904C5.87823 16.2291 6.53649 16.8874 6.87518 17.7259L4.58084 18.1848L5.03971 15.8904Z" fill="#153A7A"/>
</svg>
