<svg xmlns="http://www.w3.org/2000/svg" width="21" height="13" viewBox="0 0 21 13" fill="none">
  <path d="M10.5 0C11.3122 0 12.0912 0.330603 12.6655 0.919079C13.2398 1.50756 13.5625 2.3057 13.5625 3.13793C13.5625 3.97016 13.2398 4.76831 12.6655 5.35678C12.0912 5.94526 11.3122 6.27586 10.5 6.27586C9.68777 6.27586 8.90882 5.94526 8.33449 5.35678C7.76016 4.76831 7.4375 3.97016 7.4375 3.13793C7.4375 2.3057 7.76016 1.50756 8.33449 0.919079C8.90882 0.330603 9.68777 0 10.5 0ZM4.375 2.24138C4.865 2.24138 5.32 2.37586 5.71375 2.61793C5.5825 3.9 5.95 5.1731 6.7025 6.16828C6.265 7.02897 5.39 7.62069 4.375 7.62069C3.67881 7.62069 3.01113 7.33732 2.51884 6.83291C2.02656 6.3285 1.75 5.64438 1.75 4.93103C1.75 4.21769 2.02656 3.53357 2.51884 3.02916C3.01113 2.52475 3.67881 2.24138 4.375 2.24138ZM16.625 2.24138C17.3212 2.24138 17.9889 2.52475 18.4812 3.02916C18.9734 3.53357 19.25 4.21769 19.25 4.93103C19.25 5.64438 18.9734 6.3285 18.4812 6.83291C17.9889 7.33732 17.3212 7.62069 16.625 7.62069C15.61 7.62069 14.735 7.02897 14.2975 6.16828C15.05 5.1731 15.4175 3.9 15.2862 2.61793C15.68 2.37586 16.135 2.24138 16.625 2.24138ZM4.8125 11.431C4.8125 9.57517 7.35875 8.06897 10.5 8.06897C13.6412 8.06897 16.1875 9.57517 16.1875 11.431V13H4.8125V11.431ZM0 13V11.6552C0 10.409 1.65375 9.36 3.89375 9.05517C3.3775 9.66483 3.0625 10.5076 3.0625 11.431V13H0ZM21 13H17.9375V11.431C17.9375 10.5076 17.6225 9.66483 17.1062 9.05517C19.3462 9.36 21 10.409 21 11.6552V13Z" fill="#153A7A"/>
</svg>