<svg xmlns="http://www.w3.org/2000/svg" width="24" height="24" viewBox="0 0 24 24" fill="none">
  <path d="M21.1559 19.5013L16.7458 15.0912C17.8075 13.6777 18.3807 11.9572 18.3788 10.1894C18.3788 5.67379 14.705 2 10.1894 2C5.67378 2 2 5.67379 2 10.1894C2 14.705 5.67378 18.3788 10.1894 18.3788C11.9572 18.3807 13.6777 17.8075 15.0912 16.7458L19.5013 21.1559C19.7246 21.3555 20.0157 21.462 20.3151 21.4536C20.6144 21.4452 20.8991 21.3226 21.1108 21.1109C21.3226 20.8991 21.4452 20.6144 21.4536 20.3151C21.462 20.0157 21.3554 19.7246 21.1559 19.5013ZM4.33982 10.1894C4.33982 9.03245 4.68289 7.9015 5.32565 6.93954C5.96841 5.97759 6.88198 5.22783 7.95085 4.78509C9.01972 4.34236 10.1959 4.22652 11.3306 4.45222C12.4653 4.67793 13.5076 5.23504 14.3256 6.05312C15.1437 6.8712 15.7008 7.91349 15.9265 9.04819C16.1522 10.1829 16.0364 11.359 15.5937 12.4279C15.1509 13.4968 14.4012 14.4104 13.4392 15.0531C12.4773 15.6959 11.3463 16.0389 10.1894 16.0389C8.63855 16.0371 7.15177 15.4202 6.05517 14.3236C4.95857 13.227 4.34168 11.7402 4.33982 10.1894Z" fill="#153A7A"/>
  <path d="M5 10.15C5 9.13143 5.30204 8.13573 5.86793 7.28882C6.43382 6.4419 7.23814 5.78181 8.17918 5.39202C9.12022 5.00223 10.1557 4.90024 11.1547 5.09896C12.1537 5.29767 13.0714 5.78816 13.7916 6.5084C14.5118 7.22864 15.0023 8.14629 15.201 9.14529C15.3998 10.1443 15.2978 11.1798 14.908 12.1208C14.5182 13.0619 13.8581 13.8662 13.0112 14.4321C12.1643 14.998 11.1686 15.3 10.15 15.3C8.78464 15.2984 7.47567 14.7553 6.51021 13.7898C5.54475 12.8243 5.00164 11.5154 5 10.15Z" fill="#153A7A"/>
</svg>