<svg width="167" height="89" viewBox="0 0 167 89" fill="none" xmlns="http://www.w3.org/2000/svg">
<path d="M103.888 25.8868C103.378 26.6389 103.383 27.9055 103.903 29.6144C104.423 31.3232 105.448 33.4408 106.92 35.8462C108.392 38.2516 110.281 40.8977 112.48 43.6335C114.679 46.3693 117.145 49.1411 119.737 51.7908C122.329 54.4404 124.997 56.916 127.587 59.0762C130.177 61.2363 132.639 63.0387 134.833 64.3805C137.027 65.7222 138.909 66.5771 140.373 66.8962C141.837 67.2153 142.853 66.9925 143.363 66.2404L123.626 46.0636L103.888 25.8868Z" fill="#D0F8EA"/>
<path d="M116.05 16.9793C116.921 16.7193 118.127 17.1062 119.6 18.1176C121.072 19.1291 122.781 20.7454 124.631 22.8743C126.48 25.0032 128.433 27.6029 130.378 30.5251C132.322 33.4473 134.221 36.6347 135.965 39.9053C137.709 43.1759 139.265 46.4657 140.543 49.5868C141.821 52.7079 142.796 55.5992 143.414 58.0957C144.031 60.5921 144.278 62.6448 144.141 64.1365C144.003 65.6283 143.484 66.5299 142.613 66.7898L129.332 41.8845L116.05 16.9793Z" fill="#D0F8EA"/>
<path d="M135.732 66.7041C137.255 66.406 138.741 66.6814 140.015 67.2665C142.514 68.4135 144.494 70.8599 145.244 73.7413L147.585 82.7476C148.334 85.6288 147.796 88.7295 146.173 90.948C145.344 92.0798 144.181 93.0438 142.706 93.5253C141.203 94.0157 139.582 93.9375 138.003 93.3111C137.274 93.0216 136.563 92.6752 135.879 92.2732C132.345 90.1977 129.781 86.803 128.75 82.8367C127.718 78.8704 128.304 74.6566 130.38 71.1228C130.782 70.4383 131.234 69.7904 131.73 69.1826C132.803 67.8666 134.181 67.0079 135.732 66.7041Z" stroke="#00BC7B" stroke-width="5.6"/>
<path d="M145.364 59.6499C144.62 61.0121 144.434 62.5114 144.608 63.9032C144.947 66.6311 146.682 69.2576 149.203 70.8412L157.083 75.7909C159.604 77.3742 162.723 77.7963 165.328 76.9181C166.657 76.47 167.927 75.6518 168.831 74.3904C169.752 73.1055 170.167 71.5362 170.045 69.8425C169.99 69.0602 169.874 68.2778 169.697 67.504C168.784 63.5087 166.321 60.0397 162.851 57.8599C159.381 55.6801 155.187 54.9675 151.191 55.8801C150.417 56.0568 149.663 56.2927 148.934 56.5819C147.356 57.2081 146.121 58.2624 145.364 59.6499Z" stroke="#00BC7B" stroke-width="5.6"/>
<path d="M19.7975 42L76.5673 66.9237C81.6242 69.1438 83.9239 75.0431 81.7038 80.1L45.9262 161.592L-20 132.649L19.7975 42Z" fill="url(#paint0_radial_1247_12463)"/>
<path d="M71.9894 64.9138L76.5676 66.9238C81.6245 69.1439 83.9242 75.0432 81.7041 80.1002L79.6941 84.6784L65.9595 78.6484L71.9894 64.9138Z" fill="#00BC7B"/>
<path d="M93 41H44V28.1734C44 27.1496 44.1965 26.1353 44.5789 25.1856L51.7345 7.41234C53.3832 3.3172 58.0375 1.3316 62.1346 2.97548L67.9896 5.32468L82.2812 26.6234H85C89.4183 26.6234 93 30.2051 93 34.6234V41Z" fill="url(#paint1_radial_1247_12463)"/>
<path d="M65.9387 30.5282C65.5293 31.3574 64.7112 32.1861 63.2811 32.1845C61.851 32.183 61.0345 31.3524 60.6268 30.5222" stroke="#00BC7B" stroke-width="2" stroke-linecap="round"/>
<path d="M56.2502 23.2332L60.1747 27.3196C60.1796 27.3247 60.176 27.3332 60.169 27.3332H56.2502" stroke="#00BC7B" stroke-width="2" stroke-linecap="round"/>
<path d="M69.812 23.2332L65.8875 27.3196C65.8826 27.3247 65.8862 27.3332 65.8933 27.3332H69.812" stroke="#00BC7B" stroke-width="2" stroke-linecap="round"/>
<defs>
<radialGradient id="paint0_radial_1247_12463" cx="0" cy="0" r="1" gradientUnits="userSpaceOnUse" gradientTransform="translate(32.8619 101.796) rotate(113.703) scale(49.5 36)">
<stop stop-color="#D0F8EA"/>
<stop offset="1" stop-color="#B0F6DE"/>
</radialGradient>
<radialGradient id="paint1_radial_1247_12463" cx="0" cy="0" r="1" gradientTransform="matrix(6.63542 22.8961 -27.3636 8.63012 64.9271 26.0909)" gradientUnits="userSpaceOnUse">
<stop stop-color="#00BC7B"/>
<stop offset="1" stop-color="#0D9364"/>
</radialGradient>
</defs>
</svg>
