<svg width="167" height="89" viewBox="0 0 167 89" fill="none" xmlns="http://www.w3.org/2000/svg">
<path d="M103.888 25.8865C103.378 26.6386 103.382 27.9053 103.903 29.6141C104.423 31.323 105.448 33.4405 106.92 35.8459C108.391 38.2513 110.281 40.8975 112.48 43.6333C114.679 46.369 117.145 49.1409 119.737 51.7905C122.329 54.4402 124.997 56.9158 127.587 59.0759C130.177 61.2361 132.639 63.0385 134.833 64.3802C137.027 65.722 138.909 66.5768 140.373 66.896C141.837 67.2151 142.853 66.9922 143.363 66.2401L123.626 46.0633L103.888 25.8865Z" fill="#D0F8EA"/>
<path d="M116.05 16.9793C116.921 16.7193 118.127 17.1062 119.599 18.1176C121.072 19.1291 122.781 20.7454 124.631 22.8743C126.48 25.0032 128.433 27.6029 130.377 30.5251C132.322 33.4473 134.221 36.6347 135.965 39.9053C137.709 43.1759 139.265 46.4657 140.543 49.5868C141.821 52.7079 142.796 55.5992 143.414 58.0957C144.031 60.5921 144.278 62.6448 144.141 64.1365C144.003 65.6283 143.484 66.5299 142.613 66.7898L129.332 41.8845L116.05 16.9793Z" fill="#D0F8EA"/>
<path d="M135.732 66.7044C137.255 66.4063 138.741 66.6816 140.015 67.2668C142.514 68.4137 144.494 70.8601 145.244 73.7416L147.585 82.7478C148.334 85.6291 147.796 88.7298 146.173 90.9482C145.344 92.0801 144.181 93.044 142.706 93.5256C141.203 94.016 139.582 93.9378 138.003 93.3113C137.274 93.0219 136.563 92.6754 135.879 92.2734C132.345 90.1979 129.781 86.8032 128.75 82.837C127.718 78.8706 128.304 74.6569 130.38 71.1231C130.782 70.4386 131.234 69.7907 131.73 69.1828C132.803 67.8669 134.181 67.0081 135.732 66.7044Z" stroke="#00BC7B" stroke-width="5.6"/>
<path d="M145.364 59.6499C144.62 61.0121 144.434 62.5114 144.608 63.9032C144.947 66.6311 146.682 69.2576 149.203 70.8412L157.083 75.7909C159.604 77.3742 162.723 77.7963 165.328 76.9181C166.657 76.47 167.927 75.6518 168.831 74.3904C169.752 73.1055 170.167 71.5362 170.046 69.8425C169.99 69.0602 169.874 68.2778 169.697 67.504C168.784 63.5087 166.322 60.0397 162.851 57.8599C159.381 55.6801 155.187 54.9675 151.191 55.8801C150.417 56.0568 149.663 56.2927 148.934 56.5819C147.356 57.2081 146.121 58.2624 145.364 59.6499Z" stroke="#00BC7B" stroke-width="5.6"/>
<path d="M19.7975 42L76.5673 66.9237C81.6242 69.1438 83.9239 75.0431 81.7038 80.1L45.9262 161.592L-20 132.649L19.7975 42Z" fill="url(#paint0_radial_7028_272)"/>
<path d="M71.9894 64.9141L76.5676 66.924C81.6245 69.1442 83.9242 75.0435 81.7041 80.1004L79.6941 84.6786L65.9595 78.6487L71.9894 64.9141Z" fill="#00BC7B"/>
<path d="M93 41H44V28.1734C44 27.1496 44.1965 26.1353 44.5789 25.1856L51.7345 7.41234C53.3832 3.3172 58.0375 1.3316 62.1346 2.97548L67.9896 5.32468L82.2812 26.6234H85C89.4183 26.6234 93 30.2051 93 34.6234V41Z" fill="url(#paint1_radial_7028_272)"/>
<path d="M65.9387 30.5282C65.5292 31.3574 64.7111 32.1861 63.281 32.1845C61.851 32.183 61.0345 31.3524 60.6267 30.5222" stroke="#00BC7B" stroke-width="2" stroke-linecap="round"/>
<path d="M56.2502 23.2334L60.1747 27.3199C60.1796 27.3249 60.176 27.3334 60.1689 27.3334H56.2502" stroke="#00BC7B" stroke-width="2" stroke-linecap="round"/>
<path d="M69.8121 23.2334L65.8876 27.3199C65.8827 27.3249 65.8863 27.3334 65.8933 27.3334H69.8121" stroke="#00BC7B" stroke-width="2" stroke-linecap="round"/>
<defs>
<radialGradient id="paint0_radial_7028_272" cx="0" cy="0" r="1" gradientUnits="userSpaceOnUse" gradientTransform="translate(32.8619 101.796) rotate(113.703) scale(49.5 36)">
<stop stop-color="#D0F8EA"/>
<stop offset="1" stop-color="#B0F6DE"/>
</radialGradient>
<radialGradient id="paint1_radial_7028_272" cx="0" cy="0" r="1" gradientTransform="matrix(6.63542 22.8961 -27.3636 8.63012 64.9271 26.0909)" gradientUnits="userSpaceOnUse">
<stop stop-color="#00BC7B"/>
<stop offset="1" stop-color="#0D9364"/>
</radialGradient>
</defs>
</svg>
